{
.appVersion = "3135";
.formatVersion = 3;
axes = (
{
name = Weight;
tag = wght;
}
);
classes = (
{
code = "alef-hb bet-hb gimel-hb dalet-hb he-hb vav-hb zayin-hb het-hb tet-hb yod-hb finalkaf-hb kaf-hb lamed-hb finalmem-hb mem-hb finalnun-hb nun-hb samekh-hb ayin-hb finalpe-hb pe-hb finaltsadi-hb tsadi-hb qof-hb resh-hb shin-hb tav-hb";
name = HebrewLetters;
},
{
automatic = 1;

glyphs = (
{
color = 6;
glyphname = A;
kernLeft = A;
kernRight = A;
layers = (
{
anchors = (
{
name = bottom;
pos = (272,0);
},
{
name = ogonek;
pos = (575,57);
},
{
name = top;
pos = (408,700);
}
);
layerId = UUID0;
shapes = (
{
closed = 1;
nodes = (
(5,0,ls),
(14,0,o),
(24,5,o),
(30,15,cs),
(128,175,l),
(481,175,l),
(511,21,ls),
(514,6,o),
(522,0,o),
(534,0,cs),
(555,0,ls),
(568,0,o),
(577,11,o),
(573,31,c),
(458,680,ls),
(456,693,o),
(449,700,o),
(433,700,cs),
(391,700,ls),
(375,700,o),
(366,693,o),
(358,680,cs),
(-33,31,l),
(-41,17,o),
(-34,0,o),
(-17,0,cs)
);
},
{
closed = 1;
nodes = (
(401,629,l),
(471,235,l),
(164,235,l)
);
}
);
width = 653;
},
{
anchors = (
{
name = bottom;
pos = (326,0);
},
{
name = ogonek;
pos = (680,122);
},
{
name = top;
pos = (464,700);
}
);
color = 6;
layerId = "A0D8A2CD-35BA-4362-A7DB-C0E331BFD9A3";
shapes = (
{
closed = 1;
nodes = (
(155,0,ls),
(181,0,o),
(192,14,o),
(199,25,cs),
(237,91,l),
(452,91,l),
(462,25,ls),
(464,14,o),
(470,0,o),
(496,0,cs),
(676,0,ls),
(691,0,o),
(705,11,o),
(703,29,c),
(615,667,l),
(613,682,o),
(604,700,o),
(577,700,cs),
(355,700,ls),
(328,700,o),
(311,681,o),
(303,667,c),
(-55,29,ls),
(-63,15,o),
(-55,0,o),
(-40,0,cs)
);
},
{
closed = 1;
nodes = (
(425,472,l),
(442,286,l),
(329,286,l)
);
}
);
width = 761;
}
);
unicode = 65;
userData = {
com.typemytype.robofont.guides = (
{
angle = 0;
isGlobal = 0;
magnetic = 5;
x = 0;
y = 680;
},
{
angle = 90;
isGlobal = 0;
magnetic = 5;
x = 35;
y = 0;
},
{
angle = 90;
isGlobal = 0;
magnetic = 5;
x = 637;
y = 0;
},
{
angle = 90;
isGlobal = 0;
magnetic = 5;
x = 336;
y = 0;
}
);
};
},
{
color = 6;
glyphname = Aogonek;
kernLeft = A;
kernRight = A;
layers = (
{
background = {
shapes = (
{
ref = A;
}
);
};
layerId = UUID0;
shapes = (
{
closed = 1;
nodes = (
(485,-220,ls),
(498,-220,o),
(509,-211,o),
(512,-198,cs),
(515,-185,ls),
(518,-172,o),
(511,-163,o),
(498,-163,cs),
(483,-163,ls),
(438,-163,o),
(412,-133,o),
(423,-82,cs),
(434,-31,o),
(473,0,o),
(517,0,cs),
(546,0,ls),
(557,0,o),
(568,9,o),
(571,20,cs),
(572,22,o),
(573,28,o),
(572,31,cs),
(455,680,ls),
(453,693,o),
(446,700,o),
(430,700,cs),
(394,700,ls),
(378,700,o),
(369,693,o),
(361,680,cs),
(-32,31,ls),
(-34,28,o),
(-36,22,o),
(-37,20,cs),
(-39,9,o),
(-32,0,o),
(-21,0,cs),
(1,0,ls),
(14,0,o),
(24,10,o),
(27,15,cs),
(123,175,l),
(481,175,l),
(501,63,l),
(501,60,o),
(502,58,o),
(502,55,c),
(432,45,o),
(379,-6,o),
(363,-82,cs),
(344,-167,o),
(384,-220,o),
(466,-220,cs)
);
},
{
closed = 1;
nodes = (
(400,629,l),
(470,235,l),
(161,235,l)
);
}
);
width = 650;
},
{
color = 6;
layerId = "A0D8A2CD-35BA-4362-A7DB-C0E331BFD9A3";
shapes = (
{
closed = 1;
nodes = (
(609,-220,ls),
(624,-220,o),
(639,-208,o),
(642,-193,cs),
(657,-125,ls),
(660,-110,o),
(650,-98,o),
(635,-98,cs),
(625,-98,ls),
(586,-98,o),
(581,-70,o),
(586,-49,cs),
(590,-29,o),
(606,-2,o),
(640,0,c),
(671,0,ls),
(683,0,o),
(695,10,o),
(698,22,cs),
(698,24,o),
(699,26,o),
(698,29,cs),
(611,667,l),
(610,682,o),
(600,700,o),
(573,700,cs),
(356,700,ls),
(329,700,o),
(311,682,o),
(304,667,c),
(-55,29,ls),
(-56,26,o),
(-57,24,o),
(-57,22,cs),
(-60,10,o),
(-52,0,o),
(-40,0,cs),
(145,0,ls),
(171,0,o),
(183,14,o),
(190,25,cs),
(228,91,l),
(443,91,l),
(453,25,ls),
(453,15,o),
(458,3,o),
(475,0,c),
(469,-15,o),
(464,-31,o),
(460,-49,cs),
(440,-144,o),
(474,-220,o),
(595,-220,cs)
);
},
{
closed = 1;
nodes = (
(416,472,l),
(433,286,l),
(320,286,l)
);
}
);
width = 756;
}
);
metricLeft = A;
metricRight = A;
unicode = 260;
},
{
color = 6;
glyphname = AE;
kernLeft = AE;
kernRight = E;
layers = (
{
anchors = (
{
name = bottom;
pos = (417,0);
},
{
name = top;
pos = (606,700);
}
);
layerId = UUID0;
shapes = (
{
closed = 1;
nodes = (
(11,0,l),
(20,0,o),
(30,5,o),
(36,15,cs),
(134,175,l),
(421,175,l),
(388,22,l),
(385,9,o),
(393,0,o),
(406,0,c),
(804,0,l),
(818,0,o),
(828,9,o),
(831,22,c),
(834,37,l),
(837,51,o),
(830,60,o),
(816,60,c),
(459,60,l),
(516,325,l),
(843,325,l),
(857,325,o),
(867,334,o),
(870,347,c),
(873,362,l),
(876,376,o),
(869,385,o),
(855,385,c),
(528,385,l),
(583,640,l),
(932,640,l),
(946,640,o),
(956,649,o),
(959,662,c),
(962,677,l),
(965,691,o),
(958,700,o),
(944,700,c),
(394,700,l),
(385,700,o),
(374,697,o),
(364,681,c),
(-24,36,l),
(-31,24,o),
(-35,0,o),
(-9,0,cs)
);
},
{
closed = 1;
nodes = (
(409,633,l),
(518,633,l),
(433,235,l),
(170,235,l)
);
}
);
width = 943;
},
{
anchors = (
{
name = bottom;
pos = (453,0);
},
{
name = top;
pos = (613,700);
}
);
color = 6;
layerId = "A0D8A2CD-35BA-4362-A7DB-C0E331BFD9A3";
shapes = (
{
closed = 1;
nodes = (
(160,0,ls),
(186,0,o),
(197,14,o),
(204,25,cs),
(242,91,l),
(391,91,l),
(377,27,ls),
(374,12,o),
(384,0,o),
(399,0,cs),
(890,0,ls),
(905,0,o),
(919,12,o),
(922,27,cs),
(952,168,ls),
(955,183,o),
(946,195,o),
(931,195,cs),
(653,195,l),
(666,258,l),
(914,258,ls),
(929,258,o),
(944,270,o),
(947,285,cs),
(975,415,ls),
(978,430,o),
(968,442,o),
(953,442,cs),
(705,442,l),
(719,505,l),
(989,505,ls),
(1004,505,o),
(1018,517,o),
(1022,532,c),
(1052,673,ls),
(1055,688,o),
(1045,700,o),
(1030,700,cs),
(360,700,ls),
(333,700,o),
(315,682,o),
(308,667,c),
(-50,29,ls),
(-58,15,o),
(-50,0,o),
(-35,0,cs)
);
},
{
closed = 1;
nodes = (
(447,505,l),
(479,505,l),
(432,286,l),
(334,286,l)
);
}
);
width = 1016;
}
);
unicode = 198;
userData = {
com.typemytype.robofont.guides = (
{
angle = 0;
isGlobal = 0;
magnetic = 5;
x = 0;
y = 505;
},
{
angle = 90;
isGlobal = 0;
magnetic = 5;
x = 431;
y = 0;
}
);
};
},
{
color = 6;
glyphname = B;
kernLeft = I;
layers = (
{
anchors = (
{
name = bottom;
pos = (274,0);
},
{
name = top;
pos = (423,700);
}
);
layerId = UUID0;
shapes = (
{
closed = 1;
nodes = (
(323,0,ls),
(479,0,o),
(550,97,o),
(572,198,c),
(589,282,o),
(553,337,o),
(506,369,c),
(550,386,o),
(606,426,o),
(626,521,cs),
(646,616,o),
(588,700,o),
(463,700,cs),
(202,700,ls),
(189,700,o),
(178,691,o),
(175,677,cs),
(36,22,ls),
(33,9,o),
(41,0,o),
(54,0,cs)
);
},
{
closed = 1;
nodes = (
(166,336,l),
(383,336,ls),
(497,336,o),
(526,279,o),
(509,198,cs),
(492,118,o),
(417,60,o),
(323,60,cs),
(107,60,l)
);
},
{
closed = 1;
nodes = (
(231,640,l),
(448,640,ls),
(544,640,o),
(580,600,o),
(563,521,cs),
(546,442,o),
(475,396,o),
(381,396,cs),
(179,396,l)
);
}
);
width = 657;
},
{
anchors = (
{
name = bottom;
pos = (312,0);
},
{
name = top;
pos = (461,700);
}
);
color = 6;
layerId = "A0D8A2CD-35BA-4362-A7DB-C0E331BFD9A3";
shapes = (
{
closed = 1;
nodes = (
(381,0,ls),
(561,0,o),
(657,70,o),
(689,220,cs),
(703,286,o),
(672,344,o),
(625,365,c),
(660,381,o),
(718,426,o),
(732,490,cs),
(761,630,o),
(660,700,o),
(479,700,cs),
(167,700,ls),
(152,700,o),
(138,688,o),
(135,673,cs),
(-3,27,ls),
(-6,12,o),
(4,0,o),
(19,0,cs)
);
},
{
closed = 1;
nodes = (
(299,270,l),
(392,270,ls),
(422,270,o),
(433,245,o),
(427,221,cs),
(423,199,o),
(404,172,o),
(371,172,cs),
(278,172,l)
);
},
{
closed = 1;
nodes = (
(354,528,l),
(438,528,ls),
(467,528,o),
(473,503,o),
(469,482,cs),
(464,461,o),
(447,437,o),
(418,437,cs),
(334,437,l)
);
}
);
width = 733;
}
);
unicode = 66;
userData = {
com.typemytype.robofont.guides = (
{
angle = 0;
isGlobal = 0;
magnetic = 5;
x = 0;
y = 271;
},
{
angle = 0;
isGlobal = 0;
magnetic = 5;
x = 0;
y = 437;
},
{
angle = 0;
isGlobal = 0;
magnetic = 5;
x = 0;
y = 521;
},
{
angle = 0;
isGlobal = 0;
magnetic = 5;
x = 0;
y = 198;
},
{
angle = 0;
isGlobal = 0;
magnetic = 5;
x = 0;
y = 9;
},
{
angle = 90;
isGlobal = 0;
magnetic = 5;
x = 355;
y = 0;
},
{
angle = 90;
isGlobal = 0;
magnetic = 5;
x = 583;
y = 0;
},
{
angle = 90;
isGlobal = 0;
magnetic = 5;
x = 94;
y = 0;
}
);
};
},
{
color = 6;
glyphname = C;
kernLeft = O;
kernRight = C;
layers = (
{
anchors = (
{
name = bottom;
pos = (270,0);
},
{
name = top;
pos = (418,700);
}
);
layerId = UUID0;
shapes = (
{
closed = 1;
nodes = (
(474,-10,o),
(550,112,o),
(579,206,cs),
(583,218,o),
(575,226,o),
(563,226,cs),
(540,226,ls),
(529,226,o),
(521,221,o),
(515,205,c),
(464,86,o),
(381,50,o),
(274,50,cs),
(152,50,o),
(96,115,o),
(123,266,cs),
(133,323,o),
(145,379,o),
(159,434,cs),
(196,585,o),
(291,650,o),
(413,650,cs),
(520,650,o),
(590,608,o),
(578,495,cs),
(576,479,o),
(588,474,o),
(599,474,cs),
(622,474,ls),
(634,474,o),
(639,482,o),
(641,494,cs),
(658,595,o),
(603,710,o),
(413,710,cs),
(231,710,o),
(136,595,o),
(97,439,cs),
(83,382,o),
(68,315,o),
(59,261,cs),
(32,105,o),
(92,-10,o),
(274,-10,cs)
);
}
);
width = 650;
},
{
anchors = (
{
name = bottom;
pos = (311,0);
},
{
name = top;
pos = (459,700);
}
);
color = 6;
layerId = "A0D8A2CD-35BA-4362-A7DB-C0E331BFD9A3";
shapes = (
{
closed = 1;
nodes = (
(507,-10,o),
(657,64,o),
(699,246,c),
(701,258,o),
(693,268,o),
(681,268,cs),
(477,268,ls),
(455,268,o),
(446,262,o),
(434,239,cs),
(413,199,o),
(382,185,o),
(348,185,cs),
(304,185,o),
(280,205,o),
(291,266,cs),
(301,323,o),
(313,379,o),
(327,434,cs),
(342,495,o),
(374,515,o),
(418,515,cs),
(452,515,o),
(476,504,o),
(481,461,c),
(485,439,o),
(490,432,o),
(512,432,cs),
(716,432,ls),
(728,432,o),
(740,442,o),
(743,454,cs),
(779,636,o),
(600,710,o),
(440,710,cs),
(243,710,o),
(115,625,o),
(68,439,cs),
(54,382,o),
(39,315,o),
(30,261,cs),
(-3,70,o),
(145,-10,o),
(327,-10,cs)
);
}
);
width = 731;
}
);
unicode = 67;
userData = {
com.typemytype.robofont.guides = (
{
angle = 0;
isGlobal = 0;
magnetic = 5;
x = 0;
y = 434;
},
{
angle = 0;
isGlobal = 0;
magnetic = 5;
x = 0;
y = 266;
},
{
angle = 0;
isGlobal = 0;
magnetic = 5;
x = 0;
y = 710;
},
{
angle = 0;
isGlobal = 0;
magnetic = 5;
x = 0;
y = "-10";
},
{
angle = 90;
isGlobal = 0;
magnetic = 5;
x = 599;
y = 0;
},
{
angle = 90;
isGlobal = 0;
magnetic = 5;
x = 209;
y = 0;
},
{
angle = 90;
isGlobal = 0;
magnetic = 5;
x = 149;
y = 0;
},
{
angle = 90;
isGlobal = 0;
magnetic = 5;
x = 332;
y = 0;
}
);
};
},
{
color = 6;
glyphname = Ccedilla;
kernLeft = O;
kernRight = C;
layers = (
{
layerId = UUID0;
shapes = (
{
closed = 1;
nodes = (
(281,-221,o),
(321,-180,o),
(331,-132,cs),
(341,-84,o),
(317,-50,o),
(273,-50,cs),
(258,-50,o),
(242,-53,o),
(233,-58,c),
(266,-10,l),
(456,-10,o),
(554,111,o),
(579,206,cs),
(583,218,o),
(574,226,o),
(562,226,c),
(542,226,l),
(531,226,o),
(522,221,o),
(516,205,cs),
(464,86,o),
(386,50,o),
(279,50,cs),
(157,50,o),
(96,115,o),
(123,266,cs),
(133,323,o),
(145,379,o),
(158,434,cs),
(196,585,o),
(284,650,o),
(406,650,cs),
(513,650,o),
(577,614,o),
(577,495,cs),
(577,479,o),
(584,474,o),
(595,474,c),
(615,474,l),
(627,474,o),
(639,482,o),
(640,494,cs),
(655,589,o),
(609,710,o),
(419,710,cs),
(237,710,o),
(136,595,o),
(97,439,cs),
(82,382,o),
(68,315,o),
(59,261,cs),
(34,121,o),
(73,15,o),
(213,-6,c),
(183,-53,l),
(177,-63,o),
(166,-75,o),
(172,-83,c),
(184,-100,l),
(196,-116,o),
(213,-96,o),
(245,-96,cs),
(268,-96,o),
(285,-110,o),
(280,-134,cs),
(274,-159,o),
(251,-174,o),
(228,-174,cs),
(184,-174,o),
(184,-140,o),
(164,-156,c),
(147,-169,l),
(128,-184,o),
(162,-219,o),
(218,-220,cs)
);
}
);
width = 650;
},
{
color = 6;
hints = (
{
horizontal = 1;
place = (0, 0);
type = Tag;
}
);
layerId = "A0D8A2CD-35BA-4362-A7DB-C0E331BFD9A3";
shapes = (
{
closed = 1;
nodes = (
(316,-220,o),
(363,-183,o),
(375,-130,cs),
(386,-77,o),
(364,-40,o),
(313,-40,cs),
(309,-40,o),
(290,-42,o),
(282,-45,c),
(307,-10,l),
(477,-10,o),
(657,64,o),
(698,246,cs),
(701,258,o),
(693,268,o),
(681,268,c),
(477,268,l),
(455,268,o),
(446,262,o),
(434,239,cs),
(413,199,o),
(382,185,o),
(348,185,cs),
(304,185,o),
(280,205,o),
(291,266,cs),
(301,323,o),
(313,379,o),
(326,434,cs),
(341,495,o),
(374,515,o),
(418,515,cs),
(452,515,o),
(475,504,o),
(481,461,cs),
(485,439,o),
(490,432,o),
(512,432,c),
(716,432,l),
(728,432,o),
(740,442,o),
(743,454,cs),
(778,636,o),
(630,710,o),
(460,710,cs),
(273,710,o),
(115,625,o),
(68,439,cs),
(53,382,o),
(39,315,o),
(30,261,cs),
(1,91,o),
(90,10,o),
(245,-6,c),
(215,-52,l),
(202,-71,o),
(203,-76,o),
(210,-85,c),
(227,-106,l),
(237,-119,o),
(263,-106,o),
(281,-106,cs),
(301,-106,o),
(306,-118,o),
(304,-130,cs),
(301,-142,o),
(289,-154,o),
(270,-154,cs),
(236,-154,o),
(235,-136,o),
(215,-151,c),
(190,-169,l),
(163,-189,o),
(203,-220,o),
(256,-220,cs)
);
}
);
width = 731;
}
);
metricLeft = C;
metricRight = C;
unicode = 199;
userData = {
com.typemytype.robofont.guides = (
{
angle = 0;
isGlobal = 0;
magnetic = 5;
x = 0;
y = "-174";
},
{
angle = 0;
isGlobal = 0;
magnetic = 5;
x = 0;
y = "-220";
},
{
angle = 0;
isGlobal = 0;
magnetic = 5;
x = 0;
y = "-96";
},
{
angle = 0;
isGlobal = 0;
magnetic = 5;
x = 0;
y = "-50";
},
{
angle = 0;
isGlobal = 0;
magnetic = 5;
x = 0;
y = "-135";
},
{
angle = 90;
isGlobal = 0;
magnetic = 5;
x = 331;
y = 0;
},
{
angle = 90;
isGlobal = 0;
magnetic = 5;
x = 342;
y = 0;
}
);
};
},
{
color = 6;
glyphname = D;
kernLeft = I;
kernRight = D;
layers = (
{
anchors = (
{
name = bottom;
pos = (284,0);
},
{
name = center;
pos = (358,350);
},
{
name = top;
pos = (388,700);
}
);
layerId = UUID0;
shapes = (
{
closed = 1;
nodes = (
(282,0,ls),
(481,0,o),
(559,87,o),
(602,271,cs),
(616,331,o),
(624,370,o),
(636,430,cs),
(670,604,o),
(587,700,o),
(405,700,c),
(202,700,l),
(189,700,o),
(178,691,o),
(175,677,cs),
(36,22,ls),
(33,9,o),
(41,0,o),
(54,0,cs)
);
},
{
closed = 1;
nodes = (
(231,640,l),
(398,640,ls),
(558,640,o),
(600,571,o),
(572,425,cs),
(560,365,o),
(554,336,o),
(540,276,cs),
(504,120,o),
(438,60,o),
(279,60,cs),
(107,60,l)
);
}
);
width = 677;
},
{
anchors = (
{
name = bottom;
pos = (315,0);
},
{
name = center;
pos = (389,350);
},
{
name = top;
pos = (414,700);
}
);
color = 6;
layerId = "A0D8A2CD-35BA-4362-A7DB-C0E331BFD9A3";
shapes = (
{
closed = 1;
nodes = (
(332,0,ls),
(543,0,o),
(651,87,o),
(699,276,cs),
(713,330,o),
(721,368,o),
(731,425,cs),
(762,604,o),
(602,700,o),
(435,700,c),
(167,700,ls),
(152,700,o),
(138,688,o),
(135,673,cs),
(-3,27,ls),
(-6,12,o),
(4,0,o),
(19,0,cs)
);
},
{
closed = 1;
nodes = (
(349,505,l),
(409,505,ls),
(454,505,o),
(486,481,o),
(477,425,cs),
(468,370,o),
(460,333,o),
(445,276,cs),
(430,220,o),
(392,195,o),
(348,195,cs),
(283,195,l)
);
}
);
width = 739;
}
);
unicode = 68;
userData = {
com.typemytype.robofont.guides = (
{
angle = 0;
isGlobal = 0;
magnetic = 5;
x = 0;
y = 425;
},
{
angle = 0;
isGlobal = 0;
magnetic = 5;
x = 0;
y = 276;
},
{
angle = 0;
isGlobal = 0;
magnetic = 5;
x = 0;
y = 9;
},
{
angle = 90;
isGlobal = 0;
magnetic = 5;
x = 320;
y = 0;
},
{
angle = 90;
isGlobal = 0;
magnetic = 5;
x = 603;
y = 0;
},
{
angle = 90;
isGlobal = 0;
magnetic = 5;
x = 94;
y = 0;
}
);
};
},
{
color = 6;
glyphname = Eth;
kernLeft = I;
kernRight = D;
layers = (
{
layerId = UUID0;
shapes = (
{
closed = 1;
nodes = (
(289,0,l),
(488,0,o),
(566,87,o),
(609,271,cs),
(623,331,o),
(631,370,o),
(643,430,cs),
(677,604,o),
(594,700,o),
(412,700,c),
(209,700,l),
(196,700,o),
(185,691,o),
(182,677,c),
(120,382,l),
(57,382,l),
(44,382,o),
(32,373,o),
(30,360,c),
(27,344,l),
(25,331,o),
(31,322,o),
(44,322,c),
(107,322,l),
(43,22,l),
(40,9,o),
(48,0,o),
(61,0,c)
);
},
{
closed = 1;
nodes = (
(170,322,l),
(320,322,ls),
(333,322,o),
(345,331,o),
(347,344,c),
(350,360,l),
(352,373,o),
(346,382,o),
(333,382,c),
(183,382,l),
(238,640,l),
(405,640,l),
(565,640,o),
(607,571,o),
(579,425,cs),
(567,365,o),
(561,336,o),
(547,276,cs),
(511,120,o),
(445,60,o),
(286,60,c),
(114,60,l)
);
}
);
width = 684;
},
{
color = 6;
layerId = "A0D8A2CD-35BA-4362-A7DB-C0E331BFD9A3";
shapes = (
{
closed = 1;
nodes = (
(354,0,ls),
(565,0,o),
(673,87,o),
(721,276,cs),
(735,330,o),
(743,368,o),
(753,425,cs),
(784,604,o),
(624,700,o),
(457,700,cs),
(189,700,ls),
(174,700,o),
(160,688,o),
(157,673,cs),
(105,430,l),
(67,430,ls),
(52,430,o),
(37,418,o),
(34,403,cs),
(13,302,ls),
(10,287,o),
(19,275,o),
(34,275,c),
(72,275,l),
(19,27,ls),
(16,12,o),
(26,0,o),
(41,0,cs)
);
},
{
closed = 1;
nodes = (
(322,275,l),
(378,275,ls),
(393,275,o),
(408,287,o),
(411,302,cs),
(432,403,ls),
(435,418,o),
(426,430,o),
(411,430,cs),
(355,430,l),
(371,505,l),
(431,505,ls),
(476,505,o),
(508,481,o),
(499,425,cs),
(490,370,o),
(482,333,o),
(467,276,cs),
(452,220,o),
(414,195,o),
(370,195,cs),
(305,195,l)
);
}
);
width = 761;
}
);
unicode = 208;
userData = {
com.typemytype.robofont.guides = (
{
angle = 0;
isGlobal = 0;
magnetic = 5;
x = 0;
y = 350;
}
);
};
},
{
color = 6;
glyphname = Dcroat;
kernLeft = I;
kernRight = D;
layers = (
{
layerId = UUID0;
shapes = (
{
closed = 1;
nodes = (
(289,0,ls),
(488,0,o),
(566,87,o),
(609,271,cs),
(623,331,o),
(631,370,o),
(643,430,cs),
(677,604,o),
(594,700,o),
(412,700,cs),
(209,700,ls),
(196,700,o),
(185,691,o),
(182,677,c),
(120,382,l),
(57,382,ls),
(44,382,o),
(32,373,o),
(30,360,cs),
(27,344,ls),
(25,331,o),
(31,322,o),
(44,322,cs),
(107,322,l),
(43,22,ls),
(40,9,o),
(48,0,o),
(61,0,cs)
);
},
{
closed = 1;
nodes = (
(170,322,l),
(320,322,ls),
(333,322,o),
(345,331,o),
(347,344,cs),
(350,360,ls),
(352,373,o),
(346,382,o),
(333,382,cs),
(183,382,l),
(238,640,l),
(405,640,ls),
(565,640,o),
(607,571,o),
(579,425,cs),
(567,365,o),
(561,336,o),
(547,276,cs),
(511,120,o),
(445,60,o),
(286,60,cs),
(114,60,l)
);
}
);
width = 684;
},
{
color = 6;
layerId = "A0D8A2CD-35BA-4362-A7DB-C0E331BFD9A3";
shapes = (
{
closed = 1;
nodes = (
(354,0,l),
(565,0,o),
(673,87,o),
(721,276,cs),
(735,330,o),
(743,368,o),
(753,425,cs),
(784,604,o),
(624,700,o),
(457,700,c),
(189,700,l),
(174,700,o),
(160,688,o),
(157,673,c),
(105,430,l),
(67,430,l),
(52,430,o),
(37,418,o),
(34,403,c),
(13,302,l),
(10,287,o),
(19,275,o),
(34,275,c),
(72,275,l),
(19,27,l),
(16,12,o),
(26,0,o),
(41,0,c)
);
},
{
closed = 1;
nodes = (
(322,275,l),
(378,275,l),
(393,275,o),
(408,287,o),
(411,302,c),
(432,403,l),
(435,418,o),
(426,430,o),
(411,430,c),
(355,430,l),
(371,505,l),
(431,505,l),
(476,505,o),
(508,481,o),
(499,425,cs),
(490,370,o),
(482,333,o),
(467,276,cs),
(452,220,o),
(414,195,o),
(370,195,c),
(305,195,l)
);
}
);
width = 761;
}
);
unicode = 272;
userData = {
com.typemytype.robofont.guides = (
{
angle = 0;
isGlobal = 0;
magnetic = 5;
x = 0;
y = 352;
},
{
angle = 90;
isGlobal = 0;
magnetic = 5;
x = 340;
y = 0;
},
{
angle = 90;
isGlobal = 0;
magnetic = 5;
x = 105;
y = 0;
}
);
};
},
{
color = 6;
glyphname = E;
kernLeft = I;
kernRight = E;
layers = (
{
anchors = (
{
name = bottom;
pos = (241,0);
},
{
name = ogonek;
pos = (483,57);
},
{
name = top;
pos = (390,700);
},
{
name = topleft;
pos = (114,700);
}
);
layerId = UUID0;
shapes = (
{
closed = 1;
nodes = (
(452,0,ls),
(466,0,o),
(476,9,o),
(479,22,cs),
(482,37,ls),
(485,51,o),
(478,60,o),
(464,60,cs),
(107,60,l),
(164,325,l),
(491,325,ls),
(505,325,o),
(515,334,o),
(518,347,cs),
(521,362,ls),
(524,376,o),
(517,385,o),
(503,385,cs),
(176,385,l),
(231,640,l),
(580,640,ls),
(594,640,o),
(604,649,o),
(607,662,cs),
(610,677,ls),
(613,691,o),
(606,700,o),
(592,700,cs),
(202,700,ls),
(189,700,o),
(178,691,o),
(175,677,cs),
(36,22,ls),
(33,9,o),
(41,0,o),
(54,0,cs)
);
}
);
width = 591;
},
{
anchors = (
{
name = bottom;
pos = (278,0);
},
{
name = ogonek;
pos = (586,122);
},
{
name = top;
pos = (423,700);
},
{
name = topleft;
pos = (114,700);
}
);
color = 6;
layerId = "A0D8A2CD-35BA-4362-A7DB-C0E331BFD9A3";
shapes = (
{
closed = 1;
nodes = (
(540,0,ls),
(555,0,o),
(569,12,o),
(572,27,cs),
(602,168,ls),
(605,183,o),
(596,195,o),
(581,195,cs),
(273,195,l),
(286,258,l),
(564,258,ls),
(579,258,o),
(594,270,o),
(597,285,cs),
(625,415,ls),
(628,430,o),
(618,442,o),
(603,442,cs),
(325,442,l),
(339,505,l),
(639,505,ls),
(654,505,o),
(669,517,o),
(672,532,cs),
(702,673,ls),
(705,688,o),
(695,700,o),
(680,700,cs),
(167,700,ls),
(152,700,o),
(138,688,o),
(135,673,cs),
(-3,27,ls),
(-6,12,o),
(4,0,o),
(19,0,cs)
);
}
);
width = 666;
}
);
unicode = 69;
userData = {
com.typemytype.robofont.guides = (
{
angle = 0;
isGlobal = 0;
magnetic = 5;
x = 0;
y = 334;
},
{
angle = 0;
isGlobal = 0;
magnetic = 5;
x = 0;
y = 9;
},
{
angle = 0;
isGlobal = 0;
magnetic = 5;
x = 0;
y = 376;
},
{
angle = 0;
isGlobal = 0;
magnetic = 5;
x = 0;
y = 691;
},
{
angle = 0;
isGlobal = 0;
magnetic = 5;
x = 0;
y = 649;
},
{
angle = 90;
isGlobal = 0;
magnetic = 5;
x = 664;
y = 0;
},
{
angle = 90;
isGlobal = 0;
magnetic = 5;
x = 94;
y = 0;
},
{
angle = 90;
isGlobal = 0;
magnetic = 5;
x = 511;
y = 0;
}
);
};
},
{
color = 6;
glyphname = Eogonek;
kernLeft = I;
kernRight = E;
layers = (
{
anchors = (
{
name = top;
pos = (390,700);
}
);
layerId = UUID0;
shapes = (
{
closed = 1;
nodes = (
(406,-220,ls),
(419,-220,o),
(430,-211,o),
(432,-198,cs),
(435,-185,ls),
(438,-172,o),
(431,-163,o),
(418,-163,cs),
(403,-163,ls),
(359,-163,o),
(333,-133,o),
(344,-82,cs),
(354,-33,o),
(390,-3,o),
(431,0,c),
(452,0,ls),
(466,0,o),
(476,9,o),
(479,22,cs),
(482,37,ls),
(485,51,o),
(478,60,o),
(464,60,cs),
(107,60,l),
(164,325,l),
(491,325,ls),
(505,325,o),
(515,334,o),
(518,347,cs),
(521,362,ls),
(524,376,o),
(517,385,o),
(503,385,cs),
(176,385,l),
(231,640,l),
(580,640,ls),
(594,640,o),
(604,649,o),
(607,662,cs),
(610,677,ls),
(613,691,o),
(606,700,o),
(592,700,cs),
(202,700,ls),
(189,700,o),
(178,691,o),
(175,677,cs),
(36,22,ls),
(33,9,o),
(41,0,o),
(54,0,cs),
(323,0,l),
(304,-22,o),
(291,-50,o),
(284,-82,cs),
(266,-167,o),
(306,-220,o),
(387,-220,cs)
);
}
);
width = 591;
},
{
anchors = (
{
name = top;
pos = (427,700);
}
);
color = 6;
layerId = "A0D8A2CD-35BA-4362-A7DB-C0E331BFD9A3";
shapes = (
{
closed = 1;
nodes = (
(493,-220,l),
(508,-220,o),
(522,-208,o),
(525,-193,c),
(540,-125,l),
(543,-110,o),
(534,-98,o),
(519,-98,c),
(509,-98,l),
(470,-98,o),
(465,-70,o),
(469,-49,cs),
(473,-29,o),
(489,-2,o),
(524,0,c),
(540,0,l),
(555,0,o),
(569,12,o),
(572,27,c),
(602,168,l),
(605,183,o),
(596,195,o),
(581,195,c),
(273,195,l),
(286,258,l),
(564,258,l),
(579,258,o),
(594,270,o),
(597,285,c),
(625,415,l),
(628,430,o),
(618,442,o),
(603,442,c),
(325,442,l),
(339,505,l),
(639,505,l),
(654,505,o),
(668,517,o),
(672,532,c),
(702,673,l),
(705,688,o),
(695,700,o),
(680,700,c),
(167,700,l),
(152,700,o),
(138,688,o),
(135,673,c),
(-3,27,l),
(-6,12,o),
(4,0,o),
(19,0,c),
(354,0,l),
(349,-12,o),
(346,-25,o),
(343,-39,cs),
(323,-134,o),
(368,-220,o),
(489,-220,c)
);
}
);
width = 666;
}
);
unicode = 280;
userData = {
com.typemytype.robofont.guides = (
{
angle = 90;
isGlobal = 0;
magnetic = 5;
x = 355;
y = 0;
}
);
};
},
{
color = 6;
glyphname = F;
kernLeft = I;
layers = (
{
anchors = (
{
name = bottom;
pos = (232,0);
},
{
name = top;
pos = (381,700);
}
);
layerId = UUID0;
shapes = (
{
closed = 1;
nodes = (
(72,0,ls),
(86,0,o),
(96,9,o),
(99,22,cs),
(161,311,l),
(486,311,ls),
(500,311,o),
(511,320,o),
(513,333,cs),
(516,348,ls),
(519,362,o),
(512,371,o),
(498,371,cs),
(173,371,l),
(231,640,l),
(576,640,ls),
(590,640,o),
(600,649,o),
(603,662,cs),
(606,677,ls),
(609,691,o),
(602,700,o),
(588,700,cs),
(202,700,l),
(189,700,o),
(178,691,o),
(175,677,cs),
(36,22,ls),
(33,9,o),
(41,0,o),
(54,0,cs)
);
}
);
width = 573;
},
{
anchors = (
{
name = bottom;
pos = (268,0);
},
{
name = top;
pos = (417,700);
}
);
color = 6;
layerId = "A0D8A2CD-35BA-4362-A7DB-C0E331BFD9A3";
shapes = (
{
closed = 1;
nodes = (
(210,0,ls),
(225,0,o),
(239,12,o),
(242,27,cs),
(282,215,l),
(548,215,ls),
(563,215,o),
(578,227,o),
(581,242,cs),
(613,393,ls),
(616,408,o),
(607,420,o),
(592,420,cs),
(326,420,l),
(342,494,l),
(628,494,ls),
(643,494,o),
(657,506,o),
(660,521,cs),
(693,673,ls),
(696,688,o),
(686,700,o),
(671,700,cs),
(167,700,ls),
(152,700,o),
(138,688,o),
(135,673,cs),
(-3,27,ls),
(-6,12,o),
(4,0,o),
(19,0,cs)
);
}
);
width = 646;
}
);
unicode = 70;
userData = {
com.typemytype.robofont.guides = (
{
angle = 0;
isGlobal = 0;
magnetic = 5;
x = 0;
y = 320;
},
{
angle = 0;
isGlobal = 0;
magnetic = 5;
x = 0;
y = 691;
},
{
angle = 0;
isGlobal = 0;
magnetic = 5;
x = 0;
y = 649;
},
{
angle = 0;
isGlobal = 0;
magnetic = 5;
x = 0;
y = 362;
},
{
angle = 0;
isGlobal = 0;
magnetic = 5;
x = 0;
y = 9;
},
{
angle = 90;
isGlobal = 0;
magnetic = 5;
x = 761;
y = 0;
},
{
angle = 90;
isGlobal = 0;
magnetic = 5;
x = 94;
y = 0;
},
{
angle = 90;
isGlobal = 0;
magnetic = 5;
x = 487;
y = 0;
},
{
angle = 90;
isGlobal = 0;
magnetic = 5;
x = 139;
y = 0;
}
);
};
},
{
color = 6;
glyphname = G;
kernLeft = O;
kernRight = G;
layers = (
{
anchors = (
{
name = bottom;
pos = (277,0);
},
{
name = top;
pos = (427,700);
}
);
layerId = UUID0;
shapes = (
{
closed = 1;
nodes = (
(455,-10,o),
(575,100,o),
(610,260,cs),
(629,348,ls),
(632,362,o),
(625,371,o),
(611,371,cs),
(397,371,ls),
(384,371,o),
(373,362,o),
(370,348,cs),
(367,334,ls),
(364,320,o),
(371,311,o),
(384,311,cs),
(558,311,l),
(547,260,ls),
(516,115,o),
(414,50,o),
(296,50,cs),
(177,50,o),
(110,110,o),
(136,260,cs),
(147,320,o),
(160,380,o),
(175,440,cs),
(212,590,o),
(304,650,o),
(423,650,cs),
(542,650,o),
(586,587,o),
(593,525,cs),
(595,510,o),
(598,505,o),
(610,505,cs),
(632,505,ls),
(645,505,o),
(655,513,o),
(657,525,cs),
(666,582,o),
(621,710,o),
(436,710,cs),
(265,710,o),
(151,602,o),
(113,445,cs),
(98,385,o),
(83,315,o),
(72,255,cs),
(44,99,o),
(111,-10,o),
(283,-10,cs)
);
}
);
width = 664;
},
{
anchors = (
{
name = bottom;
pos = (318,0);
},
{
name = top;
pos = (460,700);
}
);
color = 6;
layerId = "A0D8A2CD-35BA-4362-A7DB-C0E331BFD9A3";
shapes = (
{
closed = 1;
nodes = (
(525,-10,o),
(689,85,o),
(726,265,cs),
(753,395,ls),
(756,410,o),
(747,422,o),
(732,422,cs),
(457,422,ls),
(442,422,o),
(427,410,o),
(424,395,cs),
(401,284,ls),
(398,269,o),
(407,257,o),
(422,257,cs),
(469,257,l),
(469,256,l),
(458,205,o),
(419,185,o),
(369,185,cs),
(320,185,o),
(295,210,o),
(306,270,c),
(316,327,o),
(328,385,o),
(342,440,c),
(354,490,o),
(386,515,o),
(435,515,cs),
(484,515,o),
(493,486,o),
(498,476,cs),
(503,469,o),
(510,465,o),
(525,465,cs),
(746,465,ls),
(758,465,o),
(770,475,o),
(773,487,cs),
(795,608,o),
(687,710,o),
(476,710,cs),
(279,710,o),
(127,622,o),
(83,445,c),
(69,388,o),
(54,319,o),
(45,265,cs),
(13,79,o),
(121,-10,o),
(323,-10,cs)
);
}
);
width = 753;
}
);
unicode = 71;
userData = {
com.typemytype.robofont.guides = (
{
angle = 0;
isGlobal = 0;
magnetic = 5;
x = 0;
y = "-10";
},
{
angle = 0;
isGlobal = 0;
magnetic = 5;
x = 0;
y = 260;
},
{
angle = 0;
isGlobal = 0;
magnetic = 5;
x = 0;
y = 440;
},
{
angle = 90;
isGlobal = 0;
magnetic = 5;
x = 334;
y = 0;
},
{
angle = 90;
isGlobal = 0;
magnetic = 5;
x = 133;
y = 0;
},
{
angle = 90;
isGlobal = 0;
magnetic = 5;
x = 604;
y = 0;
},
{
angle = 90;
isGlobal = 0;
magnetic = 5;
x = 67;
y = 0;
}
);
};
},
{
color = 6;
glyphname = H;
kernLeft = I;
kernRight = I;
layers = (
{
anchors = (
{
name = bottom;
pos = (296,0);
},
{
name = center;
pos = (396,545);
},
{
name = top;
pos = (425,700);
},
{
name = topleft;
pos = (114,700);
}
);
layerId = UUID0;
shapes = (
{
closed = 1;
nodes = (
(72,0,ls),
(86,0,o),
(96,9,o),
(99,22,cs),
(164,325,l),
(550,325,l),
(485,22,ls),
(482,9,o),
(490,0,o),
(503,0,cs),
(521,0,ls),
(535,0,o),
(545,9,o),
(548,22,cs),
(687,677,ls),
(690,691,o),
(683,700,o),
(669,700,cs),
(651,700,l),
(638,700,o),
(627,691,o),
(624,677,cs),
(562,385,l),
(176,385,l),
(238,677,ls),
(241,691,o),
(234,700,o),
(220,700,cs),
(202,700,ls),
(189,700,o),
(178,691,o),
(175,677,cs),
(36,22,ls),
(33,9,o),
(41,0,o),
(54,0,cs)
);
}
);
width = 701;
},
{
anchors = (
{
name = bottom;
pos = (331,0);
},
{
name = center;
pos = (405,350);
},
{
name = top;
pos = (467,700);
},
{
name = topleft;
pos = (114,700);
}
);
color = 6;
layerId = "A0D8A2CD-35BA-4362-A7DB-C0E331BFD9A3";
shapes = (
{
closed = 1;
nodes = (
(215,0,ls),
(230,0,o),
(244,12,o),
(247,27,cs),
(293,243,l),
(455,243,l),
(409,27,ls),
(406,12,o),
(416,0,o),
(431,0,cs),
(627,0,ls),
(642,0,o),
(656,12,o),
(659,27,cs),
(797,673,ls),
(800,688,o),
(790,700,o),
(775,700,cs),
(579,700,ls),
(564,700,o),
(550,688,o),
(547,673,cs),
(502,463,l),
(340,463,l),
(385,673,ls),
(388,688,o),
(378,700,o),
(363,700,cs),
(167,700,ls),
(152,700,o),
(138,688,o),
(135,673,cs),
(-3,27,ls),
(-6,11,o),
(4,0,o),
(19,0,cs)
);
}
);
width = 771;
}
);
unicode = 72;
userData = {
com.typemytype.robofont.guides = (
{
angle = 0;
isGlobal = 0;
magnetic = 5;
x = 0;
y = 350;
},
{
angle = 0;
isGlobal = 0;
magnetic = 5;
x = 0;
y = 9;
},
{
angle = 0;
isGlobal = 0;
magnetic = 5;
x = 0;
y = 691;
},
{
angle = 90;
isGlobal = 0;
magnetic = 5;
x = 94;
y = 0;
},
{
angle = 90;
isGlobal = 0;
magnetic = 5;
x = 139;
y = 0;
},
{
angle = 90;
isGlobal = 0;
magnetic = 5;
x = 543;
y = 0;
},
{
angle = 90;
isGlobal = 0;
magnetic = 5;
x = 588;
y = 0;
}
);
};
},
{
color = 3;
glyphname = Hbar;
kernLeft = I;
kernRight = I;
layers = (
{
layerId = UUID0;
shapes = (
{
closed = 1;
nodes = (
(714,511,ls),
(728,511,o),
(739,520,o),
(742,533,cs),
(745,548,ls),
(748,562,o),
(741,571,o),
(727,571,cs),
(100,571,ls),
(87,571,o),
(76,562,o),
(73,548,cs),
(70,533,ls),
(67,520,o),
(74,511,o),
(87,511,cs)
);
},
{
ref = H;
}
);
width = 710;
},
{
color = 3;
layerId = "A0D8A2CD-35BA-4362-A7DB-C0E331BFD9A3";
shapes = (
{
closed = 1;
nodes = (
(725,521,ls),
(740,521,o),
(755,533,o),
(758,548,cs),
(772,616,ls),
(775,631,o),
(766,643,o),
(751,643,cs),
(157,643,ls),
(142,643,o),
(127,631,o),
(124,616,cs),
(110,548,ls),
(107,533,o),
(116,521,o),
(131,521,cs)
);
},
{
ref = H;
}
);
width = 771;
}
);
unicode = 294;
},
{
color = 6;
glyphname = I;
kernLeft = I;
kernRight = I;
layers = (
{
anchors = (
{
name = bottom;
pos = (64,0);
},
{
name = ogonek;
pos = (105,57);
},
{
name = top;
pos = (210,700);
},
{
name = topleft;
pos = (114,700);
}
);
layerId = UUID0;
shapes = (
{
closed = 1;
nodes = (
(73,0,ls),
(86,0,o),
(96,9,o),
(99,22,cs),
(239,678,l),
(241,691,o),
(234,700,o),
(221,700,cs),
(202,700,ls),
(189,700,o),
(178,691,o),
(176,678,c),
(35,22,ls),
(32,9,o),
(40,0,o),
(53,0,cs)
);
}
);
width = 252;
},
{
anchors = (
{
name = bottom;
pos = (129,0);
},
{
name = ogonek;
pos = (265,122);
},
{
name = top;
pos = (275,700);
},
{
name = topleft;
pos = (114,700);
}
);
color = 6;
layerId = "A0D8A2CD-35BA-4362-A7DB-C0E331BFD9A3";
shapes = (
{
closed = 1;
nodes = (
(223,0,ls),
(238,0,o),
(252,12,o),
(255,27,cs),
(393,673,ls),
(396,688,o),
(386,700,o),
(371,700,cs),
(167,700,ls),
(152,700,o),
(138,688,o),
(135,673,cs),
(-3,27,ls),
(-6,12,o),
(4,0,o),
(19,0,cs)
);
}
);
width = 367;
}
);
unicode = 73;
userData = {
com.typemytype.robofont.guides = (
{
angle = 90;
isGlobal = 0;
magnetic = 5;
x = 85;
y = 0;
},
{
angle = 90;
isGlobal = 0;
magnetic = 5;
x = 148;
y = 0;
}
);
};
},
{
color = 6;
glyphname = IJ;
kernLeft = I;
layers = (
{
layerId = UUID0;
shapes = (
{
closed = 1;
nodes = (
(381,-10,o),
(460,99,o),
(493,255,cs),
(582,677,ls),
(585,691,o),
(578,700,o),
(564,700,cs),
(546,700,ls),
(533,700,o),
(522,691,o),
(520,678,cs),
(430,256,ls),
(404,135,o),
(324,50,o),
(207,50,cs),
(194,50,o),
(183,41,o),
(180,27,cs),
(177,12,ls),
(174,-1,o),
(181,-10,o),
(194,-10,cs)
);
},
{
closed = 1;
nodes = (
(73,0,ls),
(86,0,o),
(96,9,o),
(99,22,cs),
(239,678,ls),
(241,691,o),
(234,700,o),
(221,700,cs),
(202,700,ls),
(189,700,o),
(178,691,o),
(176,678,cs),
(36,22,ls),
(33,9,o),
(41,0,o),
(54,0,cs)
);
}
);
width = 590;
},
{
color = 6;
layerId = "A0D8A2CD-35BA-4362-A7DB-C0E331BFD9A3";
shapes = (
{
closed = 1;
nodes = (
(592,-10,o),
(704,45,o),
(749,258,cs),
(838,673,ls),
(841,688,o),
(831,700,o),
(816,700,cs),
(611,700,ls),
(596,700,o),
(582,688,o),
(579,673,c),
(499,298,ls),
(484,227,o),
(456,205,o),
(400,205,cs),
(385,205,o),
(371,193,o),
(367,178,cs),
(333,17,ls),
(330,2,o),
(339,-10,o),
(354,-10,cs)
);
},
{
closed = 1;
nodes = (
(223,0,ls),
(238,0,o),
(252,12,o),
(255,27,cs),
(393,673,ls),
(396,688,o),
(386,700,o),
(371,700,cs),
(167,700,ls),
(152,700,o),
(138,688,o),
(135,673,cs),
(-3,27,ls),
(-6,12,o),
(4,0,o),
(19,0,cs)
);
}
);
width = 807;
}
);
unicode = 306;
userData = {
com.typemytype.robofont.guides = (
{
angle = 90;
isGlobal = 0;
magnetic = 5;
x = 642;
y = 0;
}
);
};
},
{
color = 6;
glyphname = Iogonek;
kernLeft = I;
kernRight = I;
layers = (
{
layerId = UUID0;
shapes = (
{
closed = 1;
nodes = (
(57,-220,ls),
(70,-220,o),
(81,-211,o),
(84,-198,cs),
(87,-185,ls),
(90,-172,o),
(83,-163,o),
(70,-163,cs),
(55,-163,ls),
(11,-163,o),
(-15,-133,o),
(-4,-82,cs),
(7,-31,o),
(45,0,o),
(89,0,cs),
(104,0,ls),
(117,0,o),
(128,9,o),
(131,22,cs),
(270,678,ls),
(273,691,o),
(266,700,o),
(253,700,cs),
(234,700,ls),
(221,700,o),
(210,691,o),
(207,678,cs),
(79,74,l),
(78,71,o),
(77,67,o),
(77,64,c),
(75,55,l),
(5,46,o),
(-48,-5,o),
(-64,-82,cs),
(-82,-167,o),
(-43,-220,o),
(38,-220,cs)
);
}
);
width = 269;
},
{
color = 6;
hints = (
{
horizontal = 1;
place = (0, 0);
type = Tag;
}
);
layerId = "A0D8A2CD-35BA-4362-A7DB-C0E331BFD9A3";
shapes = (
{
closed = 1;
nodes = (
(190,-222,ls),
(205,-222,o),
(220,-210,o),
(223,-195,cs),
(237,-127,ls),
(240,-112,o),
(231,-100,o),
(216,-100,cs),
(206,-100,l),
(167,-100,o),
(162,-71,o),
(167,-50,cs),
(171,-29,o),
(188,0,o),
(227,0,cs),
(237,0,ls),
(252,0,o),
(267,12,o),
(270,27,cs),
(407,673,ls),
(410,688,o),
(401,700,o),
(386,700,cs),
(182,700,ls),
(167,700,o),
(152,688,o),
(149,673,cs),
(12,27,ls),
(9,12,o),
(18,0,o),
(33,0,cs),
(56,0,l),
(50,-16,o),
(44,-32,o),
(41,-50,cs),
(20,-145,o),
(55,-222,o),
(176,-222,cs)
);
}
);
width = 368;
}
);
unicode = 302;
userData = {
com.typemytype.robofont.guides = (
{
angle = 90;
isGlobal = 0;
magnetic = 5;
x = 110;
y = 0;
}
);
};
},
{
color = 6;
glyphname = J;
kernLeft = J;
kernRight = U;
layers = (
{
anchors = (
{
name = bottom;
pos = (252,0);
},
{
name = top;
pos = (390,700);
}
);
layerId = UUID0;
shapes = (
{
closed = 1;
nodes = (
(403,-10,o),
(484,99,o),
(517,255,c),
(606,677,ls),
(609,691,o),
(602,700,o),
(588,700,cs),
(179,700,ls),
(166,700,o),
(155,691,o),
(153,678,c),
(149,662,ls),
(146,649,o),
(154,640,o),
(167,640,cs),
(535,640,l),
(453,256,ls),
(427,135,o),
(358,50,o),
(226,50,cs),
(129,50,o),
(68,91,o),
(82,195,cs),
(84,207,o),
(77,216,o),
(64,216,cs),
(42,216,ls),
(28,216,o),
(21,206,o),
(19,194,cs),
(0,52,o),
(106,-10,o),
(226,-10,cs)
);
}
);
width = 614;
},
{
anchors = (
{
name = bottom;
pos = (294,0);
},
{
name = top;
pos = (443,700);
}
);
color = 6;
layerId = "A0D8A2CD-35BA-4362-A7DB-C0E331BFD9A3";
shapes = (
{
closed = 1;
nodes = (
(490,-10,o),
(602,73,o),
(641,258,cs),
(730,673,ls),
(733,688,o),
(723,700,o),
(708,700,cs),
(179,700,ls),
(164,700,o),
(150,688,o),
(147,673,cs),
(115,524,ls),
(112,509,o),
(121,497,o),
(136,497,cs),
(433,497,l),
(384,266,ls),
(371,205,o),
(344,185,o),
(308,185,cs),
(275,185,o),
(266,198,o),
(258,225,cs),
(253,247,o),
(246,257,o),
(224,257,cs),
(20,257,ls),
(8,257,o),
(-4,247,o),
(-7,235,cs),
(-37,78,o),
(143,-10,o),
(288,-10,cs)
);
}
);
width = 698;
}
);
unicode = 74;
userData = {
com.typemytype.robofont.guides = (
{
angle = 0;
isGlobal = 0;
magnetic = 5;
x = 0;
y = "-10";
},
{
angle = 0;
isGlobal = 0;
magnetic = 5;
x = 0;
y = 133;
},
{
angle = 0;
isGlobal = 0;
magnetic = 5;
x = 0;
y = 677;
},
{
angle = 90;
isGlobal = 0;
magnetic = 5;
x = 303;
y = 0;
},
{
angle = 90;
isGlobal = 0;
magnetic = 5;
x = 60;
y = 0;
},
{
angle = 90;
isGlobal = 0;
magnetic = 5;
x = 91;
y = 0;
}
);
};
},
{
color = 6;
glyphname = K;
kernLeft = I;
kernRight = K;
layers = (
{
anchors = (
{
name = bottom;
pos = (233,0);
},
{
name = top;
pos = (375,700);
}
);
layerId = UUID0;
shapes = (
{
closed = 1;
nodes = (
(74,0,l),
(88,0,o),
(96,9,o),
(99,22,c),
(162,318,l),
(422,15,ls),
(426,10,o),
(434,0,o),
(455,0,c),
(473,0,l),
(488,0,o),
(501,17,o),
(487,34,cs),
(203,365,l),
(588,666,ls),
(600,675,o),
(594,700,o),
(574,700,c),
(556,700,l),
(533,700,o),
(521,689,o),
(516,685,c),
(186,427,l),
(238,677,l),
(241,691,o),
(234,700,o),
(220,700,c),
(200,700,ls),
(187,700,o),
(178,691,o),
(175,677,cs),
(36,22,l),
(33,9,o),
(41,0,o),
(54,0,c)
);
}
);
width = 562;
},
{
anchors = (
{
name = bottom;
pos = (305,0);
},
{
name = top;
pos = (450,700);
}
);
color = 6;
layerId = "A0D8A2CD-35BA-4362-A7DB-C0E331BFD9A3";
shapes = (
{
closed = 1;
nodes = (
(210,0,ls),
(225,0,o),
(239,12,o),
(242,27,cs),
(288,241,l),
(373,23,l),
(378,10,o),
(389,0,o),
(410,0,cs),
(623,0,ls),
(638,0,o),
(657,15,o),
(649,33,cs),
(517,344,l),
(776,667,ls),
(787,680,o),
(782,700,o),
(764,700,cs),
(538,700,ls),
(516,700,o),
(502,689,o),
(494,678,c),
(337,475,l),
(380,673,ls),
(383,688,o),
(373,700,o),
(358,700,cs),
(167,700,ls),
(152,700,o),
(138,688,o),
(135,673,cs),
(-3,27,ls),
(-6,12,o),
(4,0,o),
(19,0,cs)
);
}
);
width = 712;
}
);
unicode = 75;
userData = {
com.typemytype.robofont.guides = (
{
angle = 0;
isGlobal = 0;
magnetic = 5;
x = 0;
y = 365;
},
{
angle = 90;
isGlobal = 0;
magnetic = 5;
x = 547;
y = 0;
},
{
angle = 90;
isGlobal = 0;
magnetic = 5;
x = 94;
y = 0;
},
{
angle = 90;
isGlobal = 0;
magnetic = 5;
x = 139;
y = 0;
}
);
};
},
{
color = 6;
glyphname = L;
kernLeft = I;
kernRight = L;
layers = (
{
anchors = (
{
name = bottom;
pos = (238,0);
},
{
name = center;
pos = (289,350);
},
{
name = top;
pos = (211,700);
},
{
name = topright;
pos = (614,700);
}
);
layerId = UUID0;
shapes = (
{
closed = 1;
nodes = (
(440,0,ls),
(454,0,o),
(464,9,o),
(467,22,cs),
(470,37,ls),
(473,51,o),
(466,60,o),
(452,60,cs),
(107,60,l),
(239,678,l),
(241,691,o),
(234,700,o),
(221,700,cs),
(202,700,ls),
(189,700,o),
(178,691,o),
(176,678,c),
(36,22,ls),
(33,9,o),
(41,0,o),
(54,0,cs)
);
}
);
width = 540;
},
{
anchors = (
{
name = bottom;
pos = (257,0);
},
{
name = center;
pos = (331,350);
},
{
name = top;
pos = (276,700);
},
{
name = topright;
pos = (697,700);
}
);
color = 6;
layerId = "A0D8A2CD-35BA-4362-A7DB-C0E331BFD9A3";
shapes = (
{
closed = 1;
nodes = (
(523,0,ls),
(538,0,o),
(552,12,o),
(555,27,cs),
(587,178,ls),
(590,193,o),
(581,205,o),
(566,205,cs),
(289,205,l),
(389,673,ls),
(392,688,o),
(382,700,o),
(367,700,cs),
(167,700,ls),
(152,700,o),
(138,688,o),
(135,673,cs),
(-3,27,ls),
(-6,12,o),
(4,0,o),
(19,0,cs)
);
}
);
width = 623;
}
);
unicode = 76;
},
{
color = 6;
glyphname = Lslash;
kernLeft = I;
kernRight = L;
layers = (
{
layerId = UUID0;
shapes = (
{
closed = 1;
nodes = (
(449,0,ls),
(462,0,o),
(472,9,o),
(475,22,cs),
(479,38,ls),
(481,51,o),
(474,60,o),
(461,60,cs),
(115,60,l),
(170,317,l),
(338,377,ls),
(355,383,o),
(362,387,o),
(365,402,cs),
(369,421,ls),
(372,433,o),
(365,439,o),
(354,439,cs),
(350,439,o),
(346,438,o),
(340,436,cs),
(183,380,l),
(247,678,ls),
(249,691,o),
(242,700,o),
(229,700,cs),
(210,700,ls),
(197,700,o),
(186,691,o),
(184,678,cs),
(115,355,l),
(41,329,ls),
(24,323,o),
(17,319,o),
(14,304,cs),
(10,285,ls),
(8,273,o),
(14,267,o),
(25,267,cs),
(29,267,o),
(33,268,o),
(39,270,cs),
(102,292,l),
(44,22,ls),
(41,9,o),
(49,0,o),
(62,0,cs)
);
}
);
width = 548;
},
{
color = 6;
layerId = "A0D8A2CD-35BA-4362-A7DB-C0E331BFD9A3";
shapes = (
{
closed = 1;
nodes = (
(531,0,ls),
(546,0,o),
(560,12,o),
(563,27,cs),
(595,178,ls),
(599,193,o),
(589,205,o),
(574,205,cs),
(297,205,l),
(323,325,l),
(491,386,ls),
(508,392,o),
(516,401,o),
(520,419,cs),
(543,527,ls),
(545,539,o),
(538,548,o),
(526,548,cs),
(524,548,o),
(520,547,o),
(514,545,cs),
(357,488,l),
(397,673,ls),
(400,688,o),
(390,700,o),
(375,700,cs),
(175,700,ls),
(160,700,o),
(146,688,o),
(143,673,cs),
(82,388,l),
(52,377,ls),
(34,371,o),
(26,362,o),
(23,344,cs),
(0,236,ls),
(-3,224,o),
(4,215,o),
(16,215,cs),
(18,215,o),
(22,216,o),
(28,218,cs),
(47,225,l),
(5,27,ls),
(2,12,o),
(12,0,o),
(27,0,cs)
);
}
);
width = 631;
}
);
unicode = 321;
userData = {
com.typemytype.robofont.guides = (
{
angle = 0;
isGlobal = 0;
magnetic = 5;
x = 0;
y = 215;
},
{
angle = 0;
isGlobal = 0;
magnetic = 5;
x = 0;
y = 548;
},
{
angle = 0;
isGlobal = 0;
magnetic = 5;
x = 0;
y = 438;
},
{
angle = 0;
isGlobal = 0;
magnetic = 5;
x = 0;
y = 267;
},
{
angle = 0;
isGlobal = 0;
magnetic = 5;
x = 0;
y = 353;
},
{
angle = 90;
isGlobal = 0;
magnetic = 5;
x = 129;
y = 0;
},
{
angle = 90;
isGlobal = 0;
magnetic = 5;
x = 325;
y = 0;
},
{
angle = 90;
isGlobal = 0;
magnetic = 5;
x = "-5";
y = 0;
}
);
};
},
{
color = 6;
glyphname = M;
kernLeft = I;
kernRight = I;
layers = (
{
anchors = (
{
name = bottom;
pos = (337,0);
},
{
name = top;
pos = (486,700);
}
);
layerId = UUID0;
shapes = (
{
closed = 1;
nodes = (
(74,0,ls),
(87,0,o),
(97,8,o),
(100,22,cs),
(217,574,l),
(333,188,l),
(337,175,o),
(344,168,o),
(360,168,c),
(381,168,l),
(397,168,o),
(407,176,o),
(416,188,cs),
(678,548,l),
(566,22,l),
(563,9,o),
(571,0,o),
(584,0,cs),
(603,0,ls),
(617,0,o),
(627,9,o),
(630,22,cs),
(769,677,ls),
(772,691,o),
(765,700,o),
(751,700,cs),
(726,700,ls),
(713,700,o),
(706,691,o),
(703,687,c),
(381,245,l),
(248,687,ls),
(247,691,o),
(242,700,o),
(229,700,cs),
(203,700,ls),
(189,700,o),
(178,691,o),
(175,677,cs),
(36,22,ls),
(33,9,o),
(41,0,o),
(55,0,cs)
);
}
);
width = 783;
},
{
anchors = (
{
name = bottom;
pos = (373,0);
},
{
name = top;
pos = (522,700);
}
);
color = 6;
layerId = "A0D8A2CD-35BA-4362-A7DB-C0E331BFD9A3";
shapes = (
{
closed = 1;
nodes = (
(200,0,ls),
(215,0,o),
(229,12,o),
(232,27,cs),
(290,301,l),
(334,193,ls),
(338,182,o),
(345,168,o),
(365,168,cs),
(435,168,ls),
(455,168,o),
(468,182,o),
(478,193,cs),
(566,301,l),
(508,27,ls),
(505,12,o),
(515,0,o),
(530,0,cs),
(711,0,ls),
(726,0,o),
(740,12,o),
(743,27,cs),
(881,673,ls),
(884,688,o),
(874,700,o),
(859,700,cs),
(701,700,ls),
(674,700,o),
(658,680,o),
(653,673,cs),
(457,433,l),
(363,673,ls),
(360,680,o),
(352,700,o),
(325,700,cs),
(167,700,ls),
(152,700,o),
(138,688,o),
(135,673,cs),
(-3,27,ls),
(-6,12,o),
(4,0,o),
(19,0,cs)
);
}
);
width = 855;
}
);
unicode = 77;
userData = {
com.typemytype.robofont.guides = (
{
angle = 0;
isGlobal = 0;
magnetic = 5;
x = 0;
y = 168;
},
{
angle = 0;
isGlobal = 0;
magnetic = 5;
x = 0;
y = 9;
},
{
angle = 0;
isGlobal = 0;
magnetic = 5;
x = 0;
y = 691;
},
{
angle = 90;
isGlobal = 0;
magnetic = 5;
x = 126;
y = 0;
},
{
angle = 90;
isGlobal = 0;
magnetic = 5;
x = 636;
y = 0;
}
);
};
},
{
color = 6;
glyphname = N;
kernLeft = I;
kernRight = I;
layers = (
{
anchors = (
{
name = bottom;
pos = (289,0);
},
{
name = top;
pos = (421,700);
}
);
layerId = UUID0;
shapes = (
{
closed = 1;
nodes = (
(73,0,ls),
(87,0,o),
(97,9,o),
(100,22,cs),
(219,581,l),
(469,12,ls),
(471,7,o),
(475,0,o),
(488,0,c),
(508,0,l),
(521,0,o),
(531,9,o),
(534,23,c),
(673,677,l),
(676,691,o),
(669,700,o),
(655,700,c),
(637,700,l),
(624,700,o),
(613,691,o),
(610,677,c),
(491,117,l),
(240,688,ls),
(238,693,o),
(234,700,o),
(221,700,cs),
(201,700,ls),
(188,700,o),
(178,691,o),
(175,677,c),
(36,22,ls),
(33,9,o),
(41,0,o),
(54,0,cs)
);
}
);
width = 687;
},
{
anchors = (
{
name = bottom;
pos = (315,0);
},
{
name = top;
pos = (446,700);
}
);
color = 6;
layerId = "A0D8A2CD-35BA-4362-A7DB-C0E331BFD9A3";
shapes = (
{
closed = 1;
nodes = (
(200,0,ls),
(215,0,o),
(229,12,o),
(232,27,cs),
(286,278,l),
(400,23,ls),
(403,17,o),
(410,0,o),
(437,0,cs),
(595,0,ls),
(610,0,o),
(624,12,o),
(627,27,cs),
(765,673,ls),
(768,688,o),
(758,700,o),
(743,700,cs),
(562,700,ls),
(547,700,o),
(533,688,o),
(530,673,cs),
(472,400,l),
(361,677,ls),
(358,684,o),
(352,700,o),
(325,700,cs),
(167,700,ls),
(152,700,o),
(138,688,o),
(135,673,cs),
(-3,27,ls),
(-6,12,o),
(4,0,o),
(19,0,cs)
);
}
);
width = 739;
}
);
unicode = 78;
userData = {
com.typemytype.robofont.guides = (
{
angle = 0;
isGlobal = 0;
magnetic = 5;
x = 0;
y = 9;
},
{
angle = 0;
isGlobal = 0;
magnetic = 5;
x = 0;
y = 691;
},
{
angle = 90;
isGlobal = 0;
magnetic = 5;
x = 540;
y = 0;
},
{
angle = 90;
isGlobal = 0;
magnetic = 5;
x = 125;
y = 0;
}
);
};
},
{
color = 6;
glyphname = Eng;
kernLeft = I;
kernRight = I;
layers = (
{
layerId = UUID0;
shapes = (
{
closed = 1;
nodes = (
(342,-225,l),
(467,-225,o),
(509,-151,o),
(529,-57,c),
(685,677,l),
(688,691,o),
(681,700,o),
(667,700,c),
(649,700,l),
(636,700,o),
(625,691,o),
(622,677,c),
(505,124,l),
(255,688,l),
(254,691,o),
(250,700,o),
(237,700,c),
(216,700,l),
(203,700,o),
(192,691,o),
(189,677,c),
(50,22,l),
(47,9,o),
(54,0,o),
(67,0,c),
(85,0,l),
(99,0,o),
(110,9,o),
(113,22,c),
(230,574,l),
(480,8,l),
(466,-57,l),
(453,-118,o),
(431,-165,o),
(355,-165,c),
(351,-165,l),
(338,-165,o),
(327,-174,o),
(324,-187,c),
(321,-203,l),
(318,-216,o),
(325,-225,o),
(338,-225,c)
);
}
);
width = 684;
},
{
color = 6;
hints = (
{
horizontal = 1;
place = (0, 0);
type = Tag;
}
);
layerId = "A0D8A2CD-35BA-4362-A7DB-C0E331BFD9A3";
shapes = (
{
closed = 1;
nodes = (
(262,-225,ls),
(444,-225,o),
(605,-145,o),
(642,26,cs),
(779,673,ls),
(782,688,o),
(773,700,o),
(758,700,cs),
(577,700,ls),
(562,700,o),
(547,688,o),
(544,673,cs),
(486,400,l),
(376,677,ls),
(374,684,o),
(367,700,o),
(340,700,cs),
(182,700,ls),
(167,700,o),
(152,688,o),
(149,673,cs),
(12,27,ls),
(9,12,o),
(18,0,o),
(33,0,cs),
(214,0,ls),
(229,0,o),
(244,12,o),
(247,27,cs),
(300,278,l),
(409,38,l),
(409,36,l),
(402,2,o),
(373,-22,o),
(330,-22,cs),
(290,-22,ls),
(275,-22,o),
(260,-34,o),
(257,-49,c),
(225,-198,ls),
(222,-213,o),
(231,-225,o),
(246,-225,cs)
);
}
);
width = 740;
}
);
unicode = 330;
},
{
color = 6;
glyphname = O;
kernLeft = O;
kernRight = O;
layers = (
{
anchors = (
{
name = bottom;
pos = (276,0);
},
{
name = center;
pos = (350,350);
},
{
name = ogonek;
pos = (543,10);
},
{
name = top;
pos = (413,700);
},
{
name = topleft;
pos = (114,700);
},
{
name = topright;
pos = (736,700);
}
);
layerId = UUID0;
shapes = (
{
closed = 1;
nodes = (
(428,-10,o),
(543,77,o),
(588,266,cs),
(603,326,o),
(613,374,o),
(624,434,cs),
(658,620,o),
(568,710,o),
(412,710,cs),
(254,710,o),
(140,620,o),
(96,434,cs),
(81,374,o),
(71,326,o),
(60,266,cs),
(25,77,o),
(116,-10,o),
(272,-10,cs)
);
},
{
closed = 1;
nodes = (
(148,50,o),
(96,115,o),
(124,271,cs),
(135,331,o),
(143,369,o),
(158,429,cs),
(196,585,o),
(291,650,o),
(412,650,cs),
(535,650,o),
(588,585,o),
(560,429,cs),
(549,369,o),
(541,331,o),
(526,271,cs),
(488,115,o),
(391,50,o),
(272,50,cs)
);
}
);
width = 662;
},
{
anchors = (
{
name = bottom;
pos = (316,0);
},
{
name = center;
pos = (390,350);
},
{
name = ogonek;
pos = (615,10);
},
{
name = top;
pos = (453,700);
},
{
name = topleft;
pos = (114,700);
},
{
name = topright;
pos = (816,700);
}
);
color = 6;
layerId = "A0D8A2CD-35BA-4362-A7DB-C0E331BFD9A3";
shapes = (
{
closed = 1;
nodes = (
(542,-10,o),
(652,81,o),
(698,260,cs),
(711,314,o),
(725,379,o),
(735,436,cs),
(765,611,o),
(615,710,o),
(439,710,cs),
(223,710,o),
(111,611,o),
(67,436,cs),
(53,379,o),
(39,314,o),
(30,260,cs),
(0,81,o),
(150,-10,o),
(326,-10,cs)
);
},
{
closed = 1;
nodes = (
(304,185,o),
(281,210,o),
(291,266,cs),
(301,323,o),
(313,379,o),
(327,434,cs),
(341,490,o),
(375,515,o),
(418,515,cs),
(461,515,o),
(485,490,o),
(475,434,cs),
(465,379,o),
(453,323,o),
(439,266,cs),
(425,210,o),
(392,185,o),
(348,185,cs)
);
}
);
width = 742;
}
);
unicode = 79;
userData = {
com.typemytype.robofont.guides = (
{
angle = 0;
isGlobal = 0;
magnetic = 5;
x = 0;
y = "-10";
},
{
angle = 0;
isGlobal = 0;
magnetic = 5;
x = 0;
y = 710;
},
{
angle = 0;
isGlobal = 0;
magnetic = 5;
x = 0;
y = 335;
},
{
angle = 0;
isGlobal = 0;
magnetic = 5;
x = 0;
y = 434;
},
{
angle = 0;
isGlobal = 0;
magnetic = 5;
x = 0;
y = 266;
},
{
angle = 90;
isGlobal = 0;
magnetic = 5;
x = 496;
y = 0;
}
);
};
},
{
color = 6;
glyphname = OE;
kernLeft = O;
kernRight = E;
layers = (
{
anchors = (
{
name = bottom;
pos = (394,0);
},
{
name = top;
pos = (543,700);
}
);
layerId = UUID0;
shapes = (
{
closed = 1;
nodes = (
(759,0,l),
(773,0,o),
(783,9,o),
(786,22,c),
(789,37,l),
(792,51,o),
(785,60,o),
(771,60,c),
(454,60,l),
(511,325,l),
(798,325,l),
(812,325,o),
(822,334,o),
(825,347,c),
(828,362,l),
(831,376,o),
(824,385,o),
(810,385,c),
(523,385,l),
(578,640,l),
(887,640,l),
(901,640,o),
(911,649,o),
(914,662,c),
(917,677,l),
(920,691,o),
(913,700,o),
(899,700,c),
(417,700,l),
(218,700,o),
(140,613,o),
(97,429,cs),
(83,369,o),
(75,330,o),
(63,270,cs),
(29,96,o),
(112,0,o),
(294,0,c)
);
},
{
closed = 1;
nodes = (
(141,60,o),
(99,129,o),
(127,275,cs),
(139,335,o),
(145,364,o),
(159,424,cs),
(195,580,o),
(261,640,o),
(420,640,c),
(515,640,l),
(391,60,l),
(301,60,l)
);
}
);
width = 897;
},
{
anchors = (
{
name = bottom;
pos = (446,0);
},
{
name = top;
pos = (595,700);
}
);
color = 6;
layerId = "A0D8A2CD-35BA-4362-A7DB-C0E331BFD9A3";
shapes = (
{
closed = 1;
nodes = (
(875,0,l),
(890,0,o),
(904,12,o),
(907,27,c),
(937,168,l),
(940,183,o),
(931,195,o),
(916,195,c),
(628,195,l),
(641,258,l),
(899,258,l),
(914,258,o),
(929,270,o),
(932,285,c),
(960,415,l),
(963,430,o),
(953,442,o),
(938,442,c),
(680,442,l),
(694,505,l),
(974,505,l),
(989,505,o),
(1003,517,o),
(1007,532,c),
(1037,673,l),
(1040,688,o),
(1030,700,o),
(1015,700,c),
(435,700,l),
(228,700,o),
(108,604,o),
(63,425,cs),
(49,368,o),
(41,330,o),
(31,276,cs),
(-1,87,o),
(151,0,o),
(322,0,c)
);
},
{
closed = 1;
nodes = (
(304,195,o),
(276,220,o),
(285,276,cs),
(294,333,o),
(302,370,o),
(317,425,cs),
(332,481,o),
(374,505,o),
(419,505,c),
(455,505,l),
(389,195,l),
(348,195,l)
);
}
);
width = 1001;
}
);
unicode = 338;
userData = {
com.typemytype.robofont.guides = (
{
angle = 90;
isGlobal = 0;
magnetic = 5;
x = 842;
y = 0;
},
{
angle = 90;
isGlobal = 0;
magnetic = 5;
x = 66;
y = 0;
},
{
angle = 90;
isGlobal = 0;
magnetic = 5;
x = 439;
y = 0;
},
{
angle = 90;
isGlobal = 0;
magnetic = 5;
x = 502;
y = 0;
}
);
};
},
{
color = 6;
glyphname = P;
kernLeft = I;
layers = (
{
anchors = (
{
name = bottom;
pos = (260,0);
},
{
name = top;
pos = (409,700);
}
);
layerId = UUID0;
shapes = (
{
closed = 1;
nodes = (
(72,0,ls),
(86,0,o),
(96,9,o),
(99,22,cs),
(155,286,l),
(363,286,ls),
(506,286,o),
(602,357,o),
(631,493,cs),
(660,629,o),
(587,700,o),
(440,700,cs),
(202,700,ls),
(189,700,o),
(178,691,o),
(175,677,cs),
(36,22,ls),
(33,9,o),
(41,0,o),
(54,0,cs)
);
},
{
closed = 1;
nodes = (
(231,640,l),
(433,640,ls),
(569,640,o),
(588,588,o),
(568,493,cs),
(548,398,o),
(467,346,o),
(358,346,cs),
(168,346,l)
);
}
);
width = 629;
},
{
anchors = (
{
name = bottom;
pos = (298,0);
},
{
name = top;
pos = (447,700);
}
);
color = 6;
layerId = "A0D8A2CD-35BA-4362-A7DB-C0E331BFD9A3";
shapes = (
{
closed = 1;
nodes = (
(225,0,ls),
(240,0,o),
(254,12,o),
(257,27,cs),
(298,218,l),
(388,218,ls),
(579,218,o),
(684,289,o),
(719,455,cs),
(754,621,o),
(621,700,o),
(450,700,cs),
(167,700,ls),
(152,700,o),
(138,688,o),
(135,673,cs),
(-3,27,ls),
(-6,12,o),
(4,0,o),
(19,0,cs)
);
},
{
closed = 1;
nodes = (
(356,514,l),
(426,514,ls),
(462,514,o),
(465,482,o),
(460,457,cs),
(451,418,o),
(423,403,o),
(402,403,cs),
(332,403,l)
);
}
);
width = 705;
}
);
unicode = 80;
userData = {
com.typemytype.robofont.guides = (
{
angle = 0;
isGlobal = 0;
magnetic = 5;
x = 0;
y = 493;
},
{
angle = 0;
isGlobal = 0;
magnetic = 5;
x = 0;
y = 403;
},
{
angle = 0;
isGlobal = 0;
magnetic = 5;
x = 0;
y = 218;
},
{
angle = 0;
isGlobal = 0;
magnetic = 5;
x = 0;
y = 310;
},
{
angle = 0;
isGlobal = 0;
magnetic = 5;
x = 0;
y = 9;
},
{
angle = 0;
isGlobal = 0;
magnetic = 5;
x = 0;
y = 691;
},
{
angle = 90;
isGlobal = 0;
magnetic = 5;
x = 345;
y = 0;
},
{
angle = 90;
isGlobal = 0;
magnetic = 5;
x = 94;
y = 0;
},
{
angle = 90;
isGlobal = 0;
magnetic = 5;
x = 139;
y = 0;
}
);
};
},
{
color = 6;
glyphname = Thorn;
kernLeft = I;
layers = (
{
anchors = (
{
name = bottom;
pos = (262,0);
},
{
name = top;
pos = (411,700);
}
);
layerId = UUID0;
shapes = (
{
closed = 1;
nodes = (
(72,0,l),
(86,0,o),
(96,9,o),
(99,22,c),
(125,143,l),
(333,143,l),
(476,143,o),
(572,214,o),
(601,350,cs),
(630,486,o),
(557,557,o),
(410,557,c),
(213,557,l),
(239,678,l),
(241,691,o),
(234,700,o),
(221,700,c),
(202,700,l),
(189,700,o),
(178,691,o),
(176,678,c),
(36,22,l),
(33,9,o),
(41,0,o),
(54,0,c)
);
},
{
closed = 1;
nodes = (
(200,497,l),
(403,497,l),
(539,497,o),
(558,445,o),
(538,350,cs),
(518,255,o),
(437,203,o),
(328,203,c),
(138,203,l)
);
}
);
width = 633;
},
{
anchors = (
{
name = bottom;
pos = (297,0);
},
{
name = top;
pos = (446,700);
}
);
color = 6;
layerId = "A0D8A2CD-35BA-4362-A7DB-C0E331BFD9A3";
shapes = (
{
closed = 1;
nodes = (
(225,0,l),
(240,0,o),
(254,12,o),
(257,27,c),
(277,119,l),
(367,119,l),
(558,119,o),
(663,190,o),
(698,356,cs),
(733,522,o),
(600,601,o),
(429,601,c),
(379,601,l),
(395,673,l),
(398,688,o),
(388,700,o),
(373,700,c),
(167,700,l),
(152,700,o),
(138,688,o),
(135,673,c),
(-3,27,l),
(-6,12,o),
(4,0,o),
(19,0,c)
);
},
{
closed = 1;
nodes = (
(335,415,l),
(405,415,l),
(441,415,o),
(444,383,o),
(439,358,cs),
(430,319,o),
(402,304,o),
(381,304,c),
(311,304,l)
);
}
);
width = 704;
}
);
unicode = 222;
userData = {
com.typemytype.robofont.guides = (
{
angle = 0;
isGlobal = 0;
magnetic = 5;
x = 0;
y = 119;
},
{
angle = 0;
isGlobal = 0;
magnetic = 5;
x = 0;
y = 601;
},
{
angle = 0;
isGlobal = 0;
magnetic = 5;
x = 0;
y = 570;
},
{
angle = 0;
isGlobal = 0;
magnetic = 5;
x = 0;
y = 350;
}
);
};
},
{
color = 6;
glyphname = Q;
kernLeft = O;
kernRight = O;
layers = (
{
anchors = (
{
name = bottom;
pos = (276,0);
},
{
name = top;
pos = (425,700);
}
);
layerId = UUID0;
shapes = (
{
closed = 1;
nodes = (
(506,-65,l),
(517,-65,o),
(528,-56,o),
(531,-45,cs),
(532,-39,o),
(531,-36,o),
(530,-34,c),
(485,56,l),
(541,101,o),
(580,171,o),
(603,266,cs),
(618,326,o),
(628,374,o),
(638,434,cs),
(673,620,o),
(589,710,o),
(433,710,cs),
(277,710,o),
(155,620,o),
(110,434,cs),
(96,374,o),
(86,326,o),
(75,266,cs),
(40,77,o),
(114,-10,o),
(280,-10,cs),
(335,-10,o),
(383,0,o),
(426,19,c),
(457,-42,l),
(462,-50,o),
(469,-65,o),
(484,-65,c)
);
},
{
closed = 1;
nodes = (
(179,50,o),
(111,115,o),
(139,271,cs),
(150,331,o),
(158,369,o),
(172,429,cs),
(211,585,o),
(307,650,o),
(420,650,cs),
(533,650,o),
(603,585,o),
(574,429,cs),
(564,369,o),
(556,331,o),
(541,271,cs),
(503,115,o),
(407,50,o),
(293,50,cs)
);
}
);
width = 662;
},
{
anchors = (
{
name = bottom;
pos = (316,0);
},
{
name = top;
pos = (465,700);
}
);
color = 6;
hints = (
{
horizontal = 1;
place = (0, 0);
type = Tag;
}
);
layerId = "A0D8A2CD-35BA-4362-A7DB-C0E331BFD9A3";
shapes = (
{
closed = 1;
nodes = (
(631,-65,l),
(643,-65,o),
(656,-55,o),
(656,-43,cs),
(657,-40,o),
(656,-36,o),
(655,-34,c),
(600,79,l),
(652,123,o),
(690,184,o),
(710,260,cs),
(724,314,o),
(738,379,o),
(748,436,cs),
(778,611,o),
(668,710,o),
(472,710,cs),
(276,710,o),
(124,611,o),
(80,436,cs),
(66,379,o),
(52,314,o),
(42,260,cs),
(12,81,o),
(123,-10,o),
(319,-10,cs),
(339,-10,o),
(359,-9,o),
(378,-7,c),
(398,-42,l),
(403,-50,o),
(410,-65,o),
(435,-65,c)
);
},
{
closed = 1;
nodes = (
(317,185,o),
(294,210,o),
(304,266,cs),
(314,323,o),
(326,379,o),
(339,434,cs),
(353,490,o),
(388,515,o),
(431,515,cs),
(474,515,o),
(497,490,o),
(487,434,cs),
(478,379,o),
(466,323,o),
(452,266,cs),
(438,210,o),
(405,185,o),
(361,185,cs)
);
}
);
width = 742;
}
);
unicode = 81;
userData = {
com.typemytype.robofont.guides = (
{
angle = 0;
isGlobal = 0;
magnetic = 5;
x = 0;
y = 710;
},
{
angle = 0;
isGlobal = 0;
magnetic = 5;
x = 0;
y = "-10";
},
{
angle = 0;
isGlobal = 0;
magnetic = 5;
x = 0;
y = "-56";
},
{
angle = 90;
isGlobal = 0;
magnetic = 5;
x = 82;
y = 0;
},
{
angle = 90;
isGlobal = 0;
magnetic = 5;
x = 750;
y = 0;
},
{
angle = 90;
isGlobal = 0;
magnetic = 5;
x = 580;
y = 0;
}
);
};
},
{
color = 6;
glyphname = R;
kernLeft = I;
kernRight = R;
layers = (
{
anchors = (
{
name = bottom;
pos = (265,0);
},
{
name = top;
pos = (368,700);
}
);
layerId = UUID0;
shapes = (
{
closed = 1;
nodes = (
(85,0,ls),
(99,0,o),
(110,9,o),
(113,22,cs),
(171,296,l),
(377,296,l),
(479,27,ls),
(484,13,o),
(489,0,o),
(511,0,cs),
(523,0,ls),
(534,0,o),
(545,9,o),
(547,20,cs),
(548,24,o),
(548,27,o),
(547,31,cs),
(444,305,l),
(544,327,o),
(613,391,o),
(636,498,cs),
(665,634,o),
(589,700,o),
(449,700,cs),
(216,700,ls),
(203,700,o),
(192,691,o),
(189,677,cs),
(50,22,ls),
(47,9,o),
(54,0,o),
(67,0,cs)
);
},
{
closed = 1;
nodes = (
(244,640,l),
(431,640,ls),
(547,640,o),
(593,593,o),
(573,498,cs),
(553,403,o),
(487,356,o),
(371,356,cs),
(184,356,l)
);
}
);
width = 640;
},
{
anchors = (
{
name = bottom;
pos = (310,0);
},
{
name = top;
pos = (430,700);
}
);
color = 6;
hints = (
{
horizontal = 1;
place = (0, 0);
type = Tag;
}
);
layerId = "A0D8A2CD-35BA-4362-A7DB-C0E331BFD9A3";
shapes = (
{
closed = 1;
nodes = (
(229,0,ls),
(244,0,o),
(259,12,o),
(262,27,cs),
(303,218,l),
(344,218,l),
(389,27,ls),
(391,18,o),
(399,0,o),
(426,0,cs),
(631,0,ls),
(643,0,o),
(655,10,o),
(658,22,cs),
(659,27,o),
(658,29,o),
(657,33,cs),
(583,261,l),
(654,301,o),
(713,367,o),
(732,457,cs),
(764,608,o),
(670,700,o),
(478,700,cs),
(182,700,ls),
(167,700,o),
(152,688,o),
(149,673,cs),
(12,27,ls),
(9,12,o),
(18,0,o),
(33,0,cs)
);
},
{
closed = 1;
nodes = (
(365,514,l),
(438,514,ls),
(471,514,o),
(478,485,o),
(473,459,cs),
(467,432,o),
(447,408,o),
(416,408,cs),
(343,408,l)
);
}
);
width = 722;
}
);
unicode = 82;
userData = {
com.typemytype.robofont.guides = (
{
angle = 0;
isGlobal = 0;
magnetic = 5;
x = 0;
y = 691;
},
{
angle = 0;
isGlobal = 0;
magnetic = 5;
x = 0;
y = 9;
},
{
angle = 90;
isGlobal = 0;
magnetic = 5;
x = 616;
y = 0;
},
{
angle = 90;
isGlobal = 0;
magnetic = 5;
x = 574;
y = 0;
},
{
angle = 90;
isGlobal = 0;
magnetic = 5;
x = 94;
y = 0;
},
{
angle = 90;
isGlobal = 0;
magnetic = 5;
x = 139;
y = 0;
}
);
};
},
{
color = 6;
glyphname = S;
kernLeft = S;
kernRight = S;
layers = (
{
anchors = (
{
name = bottom;
pos = (246,0);
},
{
name = top;
pos = (376,700);
}
);
layerId = UUID0;
shapes = (
{
closed = 1;
nodes = (
(399,-10,o),
(501,52,o),
(527,173,cs),
(550,283,o),
(489,329,o),
(350,377,cs),
(216,423,o),
(162,450,o),
(179,530,cs),
(197,612,o),
(280,650,o),
(379,650,cs),
(467,650,o),
(527,601,o),
(521,535,cs),
(520,519,o),
(532,515,o),
(539,515,cs),
(563,515,ls),
(577,515,o),
(582,525,o),
(584,535,cs),
(598,612,o),
(537,710,o),
(379,710,cs),
(231,710,o),
(141,639,o),
(119,538,cs),
(96,428,o),
(147,379,o),
(280,333,cs),
(419,285,o),
(483,260,o),
(466,181,cs),
(449,101,o),
(374,50,o),
(244,50,cs),
(124,50,o),
(79,114,o),
(83,170,c),
(83,181,o),
(78,190,o),
(65,190,cs),
(41,190,ls),
(29,190,o),
(21,181,o),
(20,170,cs),
(9,75,o),
(82,-10,o),
(244,-10,cs)
);
}
);
width = 602;
},
{
anchors = (
{
name = bottom;
pos = (294,0);
},
{
name = top;
pos = (430,700);
}
);
color = 6;
layerId = "A0D8A2CD-35BA-4362-A7DB-C0E331BFD9A3";
shapes = (
{
closed = 1;
nodes = (
(510,-10,o),
(632,66,o),
(663,212,cs),
(690,342,o),
(629,419,o),
(434,444,cs),
(346,455,o),
(328,468,o),
(332,487,cs),
(336,504,o),
(352,515,o),
(386,515,cs),
(414,515,o),
(429,503,o),
(435,497,cs),
(445,486,o),
(453,481,o),
(472,481,cs),
(672,481,ls),
(683,481,o),
(695,491,o),
(697,503,cs),
(713,590,o),
(587,710,o),
(407,710,cs),
(225,710,o),
(104,630,o),
(76,494,cs),
(47,361,o),
(131,281,o),
(285,260,cs),
(381,247,o),
(409,237,o),
(404,213,cs),
(400,195,o),
(368,185,o),
(323,185,cs),
(290,185,o),
(270,193,o),
(254,208,cs),
(242,219,o),
(235,225,o),
(214,225,cs),
(24,225,ls),
(12,225,o),
(0,215,o),
(-2,203,cs),
(-23,92,o),
(80,-10,o),
(301,-10,cs)
);
}
);
width = 698;
}
);
unicode = 83;
userData = {
com.typemytype.robofont.guides = (
{
angle = 0;
isGlobal = 0;
magnetic = 5;
x = 0;
y = 355;
},
{
angle = 90;
isGlobal = 0;
magnetic = 5;
x = 306;
y = 0;
}
);
};
},
{
color = 6;
glyphname = Scedilla;
kernLeft = S;
kernRight = S;
layers = (
{
layerId = UUID0;
shapes = (
{
closed = 1;
nodes = (
(293,-221,o),
(333,-180,o),
(343,-132,cs),
(353,-84,o),
(329,-50,o),
(285,-50,cs),
(270,-50,o),
(254,-53,o),
(245,-58,c),
(279,-8,l),
(412,3,o),
(506,71,o),
(530,181,cs),
(553,291,o),
(490,329,o),
(350,377,cs),
(217,423,o),
(163,450,o),
(180,530,cs),
(197,612,o),
(274,650,o),
(373,650,cs),
(471,650,o),
(528,601,o),
(522,535,cs),
(521,519,o),
(533,515,o),
(540,515,cs),
(560,515,ls),
(574,515,o),
(583,525,o),
(585,535,cs),
(598,612,o),
(544,710,o),
(386,710,cs),
(238,710,o),
(138,631,o),
(117,530,cs),
(93,420,o),
(148,379,o),
(281,333,cs),
(420,285,o),
(483,260,o),
(467,181,cs),
(450,101,o),
(381,50,o),
(251,50,cs),
(121,50,o),
(79,114,o),
(83,170,cs),
(84,181,o),
(79,190,o),
(66,190,cs),
(46,190,ls),
(34,190,o),
(23,181,o),
(20,170,cs),
(4,85,o),
(66,2,o),
(222,-10,c),
(195,-53,ls),
(189,-63,o),
(178,-75,o),
(184,-83,cs),
(196,-100,ls),
(208,-116,o),
(225,-96,o),
(257,-96,cs),
(280,-96,o),
(297,-110,o),
(292,-134,cs),
(286,-159,o),
(263,-174,o),
(240,-174,cs),
(196,-174,o),
(196,-140,o),
(176,-156,cs),
(159,-169,ls),
(140,-184,o),
(174,-219,o),
(230,-220,cs)
);
}
);
width = 604;
},
{
color = 6;
hints = (
{
horizontal = 1;
place = (0, 0);
type = Tag;
}
);
layerId = "A0D8A2CD-35BA-4362-A7DB-C0E331BFD9A3";
shapes = (
{
closed = 1;
nodes = (
(295,-220,o),
(342,-183,o),
(354,-130,cs),
(365,-77,o),
(343,-40,o),
(292,-40,cs),
(288,-40,o),
(269,-42,o),
(261,-45,c),
(286,-10,l),
(474,-8,o),
(633,81,o),
(664,226,cs),
(692,356,o),
(629,419,o),
(435,444,cs),
(347,455,o),
(329,468,o),
(333,487,cs),
(336,504,o),
(353,515,o),
(387,515,cs),
(415,515,o),
(430,503,o),
(436,497,cs),
(446,486,o),
(453,481,o),
(472,481,c),
(672,481,l),
(683,481,o),
(696,491,o),
(698,503,cs),
(714,590,o),
(628,710,o),
(428,710,cs),
(246,710,o),
(103,616,o),
(74,480,cs),
(46,347,o),
(132,281,o),
(285,260,cs),
(382,247,o),
(410,237,o),
(404,213,cs),
(401,195,o),
(369,185,o),
(324,185,cs),
(291,185,o),
(270,193,o),
(254,208,cs),
(243,219,o),
(236,225,o),
(215,225,c),
(25,225,l),
(13,225,o),
(1,215,o),
(-2,203,cs),
(-21,102,o),
(46,9,o),
(224,-7,c),
(194,-52,l),
(181,-71,o),
(182,-76,o),
(189,-85,c),
(206,-106,l),
(216,-119,o),
(242,-106,o),
(260,-106,cs),
(280,-106,o),
(285,-118,o),
(283,-130,cs),
(280,-142,o),
(268,-154,o),
(249,-154,cs),
(215,-154,o),
(214,-136,o),
(194,-151,c),
(169,-169,l),
(142,-189,o),
(182,-220,o),
(235,-220,cs)
);
}
);
width = 696;
}
);
metricLeft = S;
metricRight = S;
unicode = 350;
userData = {
com.typemytype.robofont.guides = (
{
angle = 90;
isGlobal = 0;
magnetic = 5;
x = 306;
y = 0;
}
);
};
},
{
color = 6;
glyphname = Germandbls;
kernLeft = S;
kernRight = S;
layers = (
{
anchors = (
{
name = bottom;
pos = (222,0);
}
);
background = {
shapes = (
{
pos = (-8,0);
ref = H;
}
);
};
layerId = UUID0;
shapes = (
{
closed = 1;
nodes = (
(60,0,ls),
(72,0,o),
(84,8,o),
(87,22,cs),
(180,457,ls),
(210,597,o),
(288,651,o),
(399,651,cs),
(479,651,o),
(537,619,o),
(537,590,cs),
(537,576,o),
(524,563,o),
(508,550,cs),
(313,390,ls),
(297,377,o),
(295,372,o),
(292,361,cs),
(289,349,ls),
(286,335,o),
(295,327,o),
(307,327,cs),
(352,327,ls),
(451,327,o),
(500,291,o),
(500,222,cs),
(500,123,o),
(419,59,o),
(291,59,cs),
(177,59,ls),
(164,59,o),
(153,51,o),
(150,37,cs),
(147,22,ls),
(144,9,o),
(152,0,o),
(164,0,cs),
(289,0,ls),
(444,0,o),
(565,100,o),
(565,232,cs),
(565,330,o),
(490,386,o),
(355,386,c),
(345,345,l),
(559,522,ls),
(578,538,o),
(606,562,o),
(606,601,cs),
(606,660,o),
(515,710,o),
(409,710,cs),
(266,710,o),
(153,634,o),
(117,462,cs),
(24,22,ls),
(21,9,o),
(29,0,o),
(41,0,cs)
);
}
);
width = 624;
},
{
anchors = (
{
name = bottom;
pos = (283,0);
}
);
background = {
shapes = (
{
pos = (-60,0);
ref = H;
}
);
};
layerId = "A0D8A2CD-35BA-4362-A7DB-C0E331BFD9A3";
shapes = (
{
closed = 1;
nodes = (
(198,0,ls),
(214,0,o),
(229,13,o),
(232,27,c),
(323,459,ls),
(334,509,o),
(354,531,o),
(397,531,cs),
(418,531,o),
(433,525,o),
(433,514,cs),
(433,508,o),
(429,505,o),
(426,502,cs),
(358,436,ls),
(340,419,o),
(335,412,o),
(331,394,cs),
(308,294,ls),
(304,278,o),
(311,266,o),
(332,266,cs),
(372,266,ls),
(420,266,o),
(439,251,o),
(439,229,cs),
(439,195,o),
(411,178,o),
(358,178,cs),
(327,178,ls),
(306,178,o),
(291,166,o),
(287,150,cs),
(259,27,ls),
(255,9,o),
(269,0,o),
(287,0,c),
(380,0,ls),
(562,0,o),
(701,108,o),
(701,248,cs),
(701,328,o),
(643,372,o),
(542,372,c),
(501,285,l),
(698,464,ls),
(729,492,o),
(740,510,o),
(740,540,cs),
(740,622,o),
(625,710,o),
(452,710,cs),
(233,710,o),
(110,615,o),
(75,451,cs),
(-15,27,ls),
(-18,14,o),
(-10,0,o),
(7,0,cs)
);
}
);
width = 740;
}
);
unicode = 7838;
},
{
color = 6;
glyphname = T;
kernLeft = T;
kernRight = T;
layers = (
{
anchors = (
{
name = bottom;
pos = (209,0);
},
{
name = center;
pos = (295,350);
},
{
name = top;
pos = (362,700);
}
);
layerId = UUID0;
shapes = (
{
closed = 1;
nodes = (
(221,0,ls),
(235,0,o),
(245,9,o),
(248,22,c),
(380,640,l),
(577,640,l),
(591,640,o),
(601,649,o),
(604,662,c),
(607,677,ls),
(610,691,o),
(603,700,o),
(589,700,cs),
(131,700,ls),
(118,700,o),
(107,691,o),
(104,677,cs),
(101,662,ls),
(98,649,o),
(106,640,o),
(119,640,cs),
(317,640,l),
(185,22,l),
(182,9,o),
(190,0,o),
(203,0,cs)
);
}
);
width = 551;
},
{
anchors = (
{
name = bottom;
pos = (282,0);
},
{
name = center;
pos = (356,350);
},
{
name = top;
pos = (431,700);
}
);
color = 6;
layerId = "A0D8A2CD-35BA-4362-A7DB-C0E331BFD9A3";
shapes = (
{
closed = 1;
nodes = (
(374,0,ls),
(389,0,o),
(403,12,o),
(406,27,cs),
(504,485,l),
(670,485,ls),
(685,485,o),
(699,497,o),
(702,512,cs),
(737,673,ls),
(740,688,o),
(730,700,o),
(715,700,cs),
(129,700,ls),
(114,700,o),
(100,688,o),
(97,673,cs),
(62,512,ls),
(59,497,o),
(69,485,o),
(84,485,cs),
(250,485,l),
(152,27,ls),
(149,12,o),
(159,0,o),
(174,0,cs)
);
}
);
width = 673;
}
);
unicode = 84;
userData = {
com.typemytype.robofont.guides = (
{
angle = 0;
isGlobal = 0;
magnetic = 5;
x = 0;
y = 495;
},
{
angle = 0;
isGlobal = 0;
magnetic = 5;
x = 0;
y = 9;
},
{
angle = 0;
isGlobal = 0;
magnetic = 5;
x = 0;
y = 691;
},
{
angle = 0;
isGlobal = 0;
magnetic = 5;
x = 0;
y = 649;
},
{
angle = 90;
isGlobal = 0;
magnetic = 5;
x = 279;
y = 0;
},
{
angle = 90;
isGlobal = 0;
magnetic = 5;
x = 324;
y = 0;
},
{
angle = 90;
isGlobal = 0;
magnetic = 5;
x = 59;
y = 0;
},
{
angle = 90;
isGlobal = 0;
magnetic = 5;
x = 544;
y = 0;
}
);
};
},
{
color = 6;
glyphname = Tbar;
kernLeft = T;
kernRight = T;
layers = (
{
layerId = UUID0;
shapes = (
{
closed = 1;
nodes = (
(227,0,ls),
(241,0,o),
(251,9,o),
(254,22,cs),
(324,350,l),
(441,350,l),
(455,350,o),
(466,359,o),
(469,372,cs),
(472,387,ls),
(475,401,o),
(468,410,o),
(454,410,cs),
(337,410,l),
(386,640,l),
(583,640,ls),
(597,640,o),
(607,649,o),
(610,662,cs),
(613,677,ls),
(616,691,o),
(609,700,o),
(595,700,cs),
(137,700,ls),
(124,700,o),
(113,691,o),
(110,677,cs),
(107,662,ls),
(104,649,o),
(112,640,o),
(125,640,cs),
(323,640,l),
(274,410,l),
(156,410,ls),
(143,410,o),
(132,401,o),
(129,387,c),
(126,372,l),
(123,359,o),
(130,350,o),
(143,350,c),
(261,350,l),
(191,22,ls),
(188,9,o),
(196,0,o),
(209,0,cs)
);
}
);
width = 564;
},
{
color = 6;
layerId = "A0D8A2CD-35BA-4362-A7DB-C0E331BFD9A3";
shapes = (
{
closed = 1;
nodes = (
(377,0,ls),
(392,0,o),
(406,12,o),
(409,27,cs),
(458,258,l),
(548,258,ls),
(563,258,o),
(578,270,o),
(581,285,cs),
(596,356,ls),
(599,371,o),
(590,383,o),
(575,383,cs),
(485,383,l),
(507,485,l),
(673,485,ls),
(688,485,o),
(702,497,o),
(705,512,cs),
(740,673,ls),
(743,688,o),
(733,700,o),
(718,700,cs),
(132,700,ls),
(117,700,o),
(103,688,o),
(100,673,cs),
(65,512,ls),
(62,497,o),
(72,485,o),
(87,485,cs),
(253,485,l),
(231,383,l),
(141,383,ls),
(126,383,o),
(111,371,o),
(108,356,cs),
(93,285,ls),
(90,270,o),
(99,258,o),
(114,258,cs),
(204,258,l),
(155,27,ls),
(152,12,o),
(162,0,o),
(177,0,cs)
);
}
);
width = 680;
}
);
unicode = 358;
userData = {
com.typemytype.robofont.guides = (
{
angle = 0;
isGlobal = 0;
magnetic = 5;
x = 0;
y = 380;
},
{
angle = 90;
isGlobal = 0;
magnetic = 5;
x = 301;
y = 0;
},
{
angle = 90;
isGlobal = 0;
magnetic = 5;
x = 50;
y = 0;
}
);
};
},
{
color = 6;
glyphname = U;
kernLeft = U;
kernRight = U;
layers = (
{
anchors = (
{
name = bottom;
pos = (291,0);
},
{
name = ogonek;
pos = (363,50);
},
{
name = top;
pos = (420,700);
},
{
name = topright;
pos = (765,700);
}
);
layerId = UUID0;
shapes = (
{
closed = 1;
nodes = (
(459,-10,o),
(557,77,o),
(598,271,cs),
(684,677,ls),
(687,691,o),
(680,700,o),
(667,700,cs),
(649,700,ls),
(635,700,o),
(624,691,o),
(621,677,cs),
(534,268,ls),
(502,118,o),
(415,50,o),
(286,50,cs),
(151,50,o),
(113,118,o),
(145,268,cs),
(232,677,ls),
(235,691,o),
(228,700,o),
(214,700,cs),
(196,700,ls),
(183,700,o),
(172,691,o),
(169,677,cs),
(83,271,l),
(42,77,o),
(114,-10,o),
(286,-10,cs)
);
}
);
width = 691;
},
{
anchors = (
{
name = bottom;
pos = (318,0);
},
{
name = ogonek;
pos = (439,115);
},
{
name = top;
pos = (454,700);
},
{
name = topright;
pos = (819,700);
}
);
color = 6;
layerId = "A0D8A2CD-35BA-4362-A7DB-C0E331BFD9A3";
shapes = (
{
closed = 1;
nodes = (
(537,-10,o),
(649,75,o),
(689,264,cs),
(776,673,ls),
(779,688,o),
(769,700,o),
(754,700,cs),
(558,700,ls),
(543,700,o),
(529,688,o),
(526,673,cs),
(439,268,ls),
(428,218,o),
(398,191,o),
(349,191,cs),
(300,191,o),
(280,218,o),
(291,268,cs),
(378,673,ls),
(381,688,o),
(371,700,o),
(356,700,cs),
(160,700,ls),
(145,700,o),
(131,688,o),
(128,673,cs),
(41,264,ls),
(1,75,o),
(155,-10,o),
(327,-10,cs)
);
}
);
width = 745;
}
);
unicode = 85;
userData = {
com.typemytype.robofont.guides = (
{
angle = 0;
isGlobal = 0;
magnetic = 5;
x = 0;
y = 267;
},
{
angle = 90;
isGlobal = 0;
magnetic = 5;
x = 333;
y = 0;
},
{
angle = 90;
isGlobal = 0;
magnetic = 5;
x = 535;
y = 0;
},
{
angle = 90;
isGlobal = 0;
magnetic = 5;
x = 580;
y = 0;
},
{
angle = 90;
isGlobal = 0;
magnetic = 5;
x = 84;
y = 0;
},
{
angle = 90;
isGlobal = 0;
magnetic = 5;
x = 129;
y = 0;
}
);
};
},
{
color = 6;
glyphname = Uogonek;
kernLeft = U;
kernRight = U;
layers = (
{
layerId = UUID0;
shapes = (
{
closed = 1;
nodes = (
(318,-220,l),
(332,-220,o),
(338,-216,o),
(342,-203,c),
(347,-185,l),
(350,-172,o),
(343,-163,o),
(330,-163,c),
(312,-163,l),
(278,-163,o),
(245,-133,o),
(256,-82,cs),
(266,-36,o),
(301,-9,o),
(335,-7,c),
(458,1,o),
(565,76,o),
(598,271,c),
(684,677,l),
(687,691,o),
(680,700,o),
(667,700,c),
(649,700,l),
(635,700,o),
(624,691,o),
(621,677,c),
(534,268,l),
(502,118,o),
(415,50,o),
(286,50,cs),
(151,50,o),
(113,118,o),
(145,268,c),
(232,677,l),
(235,691,o),
(228,700,o),
(214,700,c),
(196,700,l),
(183,700,o),
(172,691,o),
(169,677,c),
(83,271,l),
(47,100,o),
(98,12,o),
(229,-6,c),
(213,-26,o),
(201,-50,o),
(196,-82,cs),
(181,-167,o),
(241,-220,o),
(312,-220,c)
);
}
);
width = 692;
},
{
color = 6;
layerId = "A0D8A2CD-35BA-4362-A7DB-C0E331BFD9A3";
shapes = (
{
closed = 1;
nodes = (
(361,-220,l),
(376,-220,o),
(390,-208,o),
(393,-193,c),
(408,-125,l),
(411,-110,o),
(402,-98,o),
(387,-98,c),
(377,-98,l),
(338,-98,o),
(333,-70,o),
(337,-49,cs),
(342,-28,o),
(356,-11,o),
(395,-7,cs),
(561,10,o),
(652,96,o),
(689,264,c),
(776,673,l),
(779,688,o),
(769,700,o),
(754,700,c),
(558,700,l),
(543,700,o),
(529,688,o),
(526,673,c),
(439,268,l),
(429,218,o),
(398,191,o),
(349,191,cs),
(300,191,o),
(281,218,o),
(291,268,c),
(378,673,l),
(381,688,o),
(371,700,o),
(356,700,c),
(160,700,l),
(145,700,o),
(131,688,o),
(128,673,c),
(41,264,l),
(8,114,o),
(98,30,o),
(222,1,c),
(218,-11,o),
(214,-25,o),
(211,-39,cs),
(191,-134,o),
(236,-220,o),
(357,-220,c)
);
}
);
width = 744;
}
);
unicode = 370;
userData = {
com.typemytype.robofont.guides = (
{
angle = 0;
isGlobal = 0;
magnetic = 5;
x = 0;
y = "-187";
},
{
angle = 90;
isGlobal = 0;
magnetic = 5;
x = 332;
y = 0;
}
);
};
},
{
color = 6;
glyphname = V;
layers = (
{
anchors = (
{
name = bottom;
pos = (265,0);
},
{
name = top;
pos = (414,700);
}
);
layerId = UUID0;
shapes = (
{
closed = 1;
nodes = (
(272,0,ls),
(290,0,o),
(301,8,o),
(311,24,c),
(679,668,ls),
(687,682,o),
(683,700,o),
(667,700,cs),
(637,700,ls),
(624,700,o),
(619,691,o),
(616,685,c),
(267,73,l),
(178,685,l),
(177,693,o),
(172,700,o),
(159,700,cs),
(137,700,l),
(124,700,o),
(115,692,o),
(117,676,c),
(212,24,ls),
(214,8,o),
(223,0,o),
(241,0,cs)
);
}
);
width = 639;
},
{
anchors = (
{
name = bottom;
pos = (308,0);
},
{
name = top;
pos = (457,700);
}
);
color = 6;
layerId = "A0D8A2CD-35BA-4362-A7DB-C0E331BFD9A3";
shapes = (
{
closed = 1;
nodes = (
(416,0,ls),
(443,0,o),
(460,18,o),
(468,33,cs),
(791,671,ls),
(798,685,o),
(792,700,o),
(776,700,cs),
(580,700,ls),
(553,700,o),
(535,682,o),
(528,667,c),
(354,295,l),
(338,667,ls),
(337,682,o),
(327,700,o),
(300,700,cs),
(121,700,ls),
(106,700,o),
(93,689,o),
(94,671,cs),
(147,33,ls),
(147,18,o),
(158,0,o),
(185,0,cs)
);
}
);
width = 726;
}
);
unicode = 86;
userData = {
com.typemytype.robofont.guides = (
{
angle = 0;
isGlobal = 0;
magnetic = 5;
x = 0;
y = 24;
}
);
};
},
{
color = 6;
glyphname = W;
kernLeft = W;
kernRight = W;
layers = (
{
anchors = (
{
name = bottom;
pos = (333,0);
},
{
name = top;
pos = (462,700);
}
);
layerId = UUID0;
shapes = (
{
closed = 1;
nodes = (
(164,0,ls),
(180,0,o),
(192,8,o),
(200,24,cs),
(419,444,l),
(462,24,l),
(463,8,o),
(472,0,o),
(488,0,cs),
(509,0,ls),
(525,0,o),
(534,7,o),
(542,24,c),
(814,674,ls),
(820,688,o),
(819,700,o),
(800,700,cs),
(778,700,ls),
(765,700,o),
(757,695,o),
(753,685,cs),
(515,116,l),
(473,522,ls),
(472,534,o),
(465,545,o),
(447,545,cs),
(426,545,ls),
(408,545,o),
(396,534,o),
(390,522,cs),
(183,126,l),
(183,680,ls),
(183,690,o),
(176,700,o),
(163,700,cs),
(144,700,ls),
(131,700,o),
(123,691,o),
(123,680,cs),
(123,24,ls),
(123,7,o),
(130,0,o),
(146,0,cs)
);
}
);
width = 776;
},
{
anchors = (
{
name = bottom;
pos = (373,0);
},
{
name = top;
pos = (504,700);
}
);
color = 6;
layerId = "A0D8A2CD-35BA-4362-A7DB-C0E331BFD9A3";
shapes = (
{
closed = 1;
nodes = (
(247,0,ls),
(274,0,o),
(289,19,o),
(293,27,cs),
(404,232,l),
(457,27,ls),
(459,19,o),
(466,0,o),
(493,0,cs),
(636,0,ls),
(663,0,o),
(684,20,o),
(690,38,c),
(907,675,ls),
(911,687,o),
(904,700,o),
(891,700,cs),
(700,700,ls),
(677,700,o),
(665,693,o),
(658,673,cs),
(564,392,l),
(549,516,ls),
(548,525,o),
(545,545,o),
(521,545,cs),
(419,545,ls),
(395,545,o),
(384,525,o),
(379,516,cs),
(312,391,l),
(338,673,ls),
(340,693,o),
(331,700,o),
(308,700,cs),
(127,700,ls),
(114,700,o),
(100,688,o),
(99,675,cs),
(66,38,l),
(64,20,o),
(77,0,o),
(104,0,cs)
);
}
);
width = 855;
}
);
unicode = 87;
userData = {
com.typemytype.robofont.guides = (
{
angle = 0;
isGlobal = 0;
magnetic = 5;
x = 0;
y = 545;
},
{
angle = 0;
isGlobal = 0;
magnetic = 5;
x = 0;
y = 670;
},
{
angle = 0;
isGlobal = 0;
magnetic = 5;
x = 0;
y = 24;
}
);
};
},
{
color = 6;
glyphname = X;
layers = (
{
anchors = (
{
name = bottom;
pos = (250,0);
},
{
name = top;
pos = (399,700);
}
);
layerId = UUID0;
shapes = (
{
closed = 1;
nodes = (
(8,0,ls),
(29,0,o),
(35,9,o),
(41,15,cs),
(310,302,l),
(457,15,ls),
(460,9,o),
(465,0,o),
(485,0,cs),
(501,0,ls),
(515,0,o),
(526,15,o),
(519,29,cs),
(356,347,l),
(649,667,ls),
(661,681,o),
(650,700,o),
(634,700,cs),
(617,700,ls),
(594,700,o),
(589,691,o),
(583,685,cs),
(327,405,l),
(185,685,ls),
(182,691,o),
(178,700,o),
(157,700,cs),
(141,700,ls),
(126,700,o),
(116,684,o),
(124,669,cs),
(280,360,l),
(-25,33,ls),
(-37,20,o),
(-26,0,o),
(-10,0,cs)
);
}
);
width = 610;
},
{
anchors = (
{
name = bottom;
pos = (314,0);
},
{
name = top;
pos = (463,700);
}
);
color = 6;
layerId = "A0D8A2CD-35BA-4362-A7DB-C0E331BFD9A3";
shapes = (
{
closed = 1;
nodes = (
(199,0,l),
(225,0,o),
(240,18,o),
(244,23,c),
(353,144,l),
(414,23,l),
(416,18,o),
(425,0,o),
(451,0,c),
(647,0,l),
(670,0,o),
(680,18,o),
(673,33,c),
(525,331,l),
(806,667,l),
(817,679,o),
(813,700,o),
(794,700,c),
(577,700,l),
(551,700,o),
(536,682,o),
(530,675,c),
(419,543,l),
(354,675,l),
(351,682,o),
(343,700,o),
(317,700,c),
(120,700,l),
(98,700,o),
(87,682,o),
(94,667,c),
(246,361,l),
(-51,33,l),
(-63,20,o),
(-56,0,o),
(-39,0,c)
);
}
);
width = 738;
}
);
unicode = 88;
userData = {
com.typemytype.robofont.guides = (
{
angle = 0;
isGlobal = 0;
magnetic = 5;
x = 0;
y = 350;
},
{
angle = 90;
isGlobal = 0;
magnetic = 5;
x = 28;
y = 0;
},
{
angle = 90;
isGlobal = 0;
magnetic = 5;
x = 580;
y = 0;
}
);
};
},
{
color = 6;
glyphname = Y;
kernLeft = Y;
kernRight = Y;
layers = (
{
anchors = (
{
name = bottom;
pos = (260,0);
},
{
name = top;
pos = (371,700);
},
{
name = topleft;
pos = (114,700);
}
);
layerId = UUID0;
shapes = (
{
closed = 1;
nodes = (
(259,0,ls),
(273,0,o),
(283,9,o),
(286,22,cs),
(339,267,l),
(668,667,l),
(680,681,o),
(682,700,o),
(659,700,cs),
(628,700,ls),
(619,700,o),
(610,695,o),
(602,685,cs),
(315,335,l),
(176,685,ls),
(172,695,o),
(165,700,o),
(156,700,cs),
(139,700,l),
(121,700,o),
(110,681,o),
(116,667,c),
(275,267,l),
(224,22,ls),
(221,9,o),
(229,0,o),
(242,0,cs)
);
}
);
width = 629;
},
{
anchors = (
{
name = bottom;
pos = (300,0);
},
{
name = top;
pos = (430,700);
},
{
name = topleft;
pos = (114,700);
}
);
color = 6;
layerId = "A0D8A2CD-35BA-4362-A7DB-C0E331BFD9A3";
shapes = (
{
closed = 1;
nodes = (
(390,0,ls),
(405,0,o),
(419,12,o),
(422,27,cs),
(464,224,l),
(784,669,ls),
(793,681,o),
(788,700,o),
(770,700,cs),
(572,700,ls),
(545,700,o),
(529,681,o),
(525,675,cs),
(382,474,l),
(325,675,ls),
(323,681,o),
(315,700,o),
(288,700,cs),
(110,700,ls),
(92,700,o),
(79,685,o),
(84,669,cs),
(214,224,l),
(172,27,ls),
(169,12,o),
(179,0,o),
(194,0,cs)
);
}
);
width = 709;
}
);
unicode = 89;
userData = {
com.typemytype.robofont.guides = (
{
angle = 90;
isGlobal = 0;
magnetic = 5;
x = 310;
y = 0;
}
);
};
},
{
color = 6;
glyphname = Z;
kernLeft = Z;
kernRight = Z;
layers = (
{
anchors = (
{
name = bottom;
pos = (232,0);
},
{
name = center;
pos = (306,350);
},
{
name = top;
pos = (371,700);
}
);
layerId = UUID0;
shapes = (
{
closed = 1;
nodes = (
(450,0,ls),
(464,0,o),
(474,9,o),
(477,22,cs),
(480,37,ls),
(483,51,o),
(476,60,o),
(462,60,cs),
(74,60,l),
(581,621,ls),
(589,630,o),
(599,640,o),
(602,657,cs),
(606,677,ls),
(609,691,o),
(602,700,o),
(588,700,cs),
(157,700,ls),
(144,700,o),
(133,691,o),
(130,677,cs),
(127,662,ls),
(124,649,o),
(132,640,o),
(145,640,cs),
(515,640,l),
(9,80,ls),
(3,74,o),
(-8,63,o),
(-13,43,cs),
(-18,23,ls),
(-21,9,o),
(-13,0,o),
(0,0,cs)
);
}
);
width = 574;
},
{
anchors = (
{
name = bottom;
pos = (291,0);
},
{
name = center;
pos = (365,350);
},
{
name = top;
pos = (440,700);
}
);
color = 6;
layerId = "A0D8A2CD-35BA-4362-A7DB-C0E331BFD9A3";
shapes = (
{
closed = 1;
nodes = (
(570,0,ls),
(585,0,o),
(599,12,o),
(602,27,cs),
(634,178,l),
(638,193,o),
(628,205,o),
(613,205,cs),
(359,205,l),
(676,498,ls),
(685,507,o),
(693,517,o),
(696,531,cs),
(727,673,ls),
(730,688,o),
(720,700,o),
(705,700,cs),
(157,700,ls),
(142,700,o),
(128,688,o),
(125,673,cs),
(93,524,ls),
(90,509,o),
(99,497,o),
(114,497,cs),
(362,497,l),
(30,206,ls),
(24,201,o),
(12,190,o),
(8,171,cs),
(-23,27,ls),
(-26,12,o),
(-16,0,o),
(-1,0,cs)
);
}
);
width = 692;
}
);
unicode = 90;
userData = {
com.typemytype.robofont.guides = (
{
angle = 0;
isGlobal = 0;
magnetic = 5;
x = 0;
y = 51;
},
{
angle = 0;
isGlobal = 0;
magnetic = 5;
x = 0;
y = 9;
},
{
angle = 0;
isGlobal = 0;
magnetic = 5;
x = 0;
y = 691;
},
{
angle = 0;
isGlobal = 0;
magnetic = 5;
x = 0;
y = 649;
},
{
angle = 90;
isGlobal = 0;
magnetic = 5;
x = 189;
y = 0;
},
{
angle = 90;
isGlobal = 0;
magnetic = 5;
x = 815;
y = 0;
},
{
angle = 90;
isGlobal = 0;
magnetic = 5;
x = 732;
y = 0;
},
{
angle = 90;
isGlobal = 0;
magnetic = 5;
x = "-431";
y = 0;
},
{
angle = 90;
isGlobal = 0;
magnetic = 5;
x = 74;
y = 0;
},
{
angle = 90;
isGlobal = 0;
magnetic = 5;
x = 541;
y = 0;
}
);
};
},
{
color = 6;
glyphname = a;
kernLeft = a;
kernRight = a;
layers = (
{
anchors = (
{
name = bottom;
pos = (230,0);
},
{
name = ogonek;
pos = (436,58);
},
{
name = top;
pos = (318,520);
}
);
layerId = UUID0;
shapes = (
{
closed = 1;
nodes = (
(295,-10,o),
(336,24,o),
(378,69,c),
(368,22,ls),
(365,9,o),
(373,0,o),
(386,0,cs),
(403,0,ls),
(416,0,o),
(426,9,o),
(429,22,cs),
(530,498,ls),
(533,511,o),
(525,520,o),
(512,520,cs),
(495,520,ls),
(482,520,o),
(472,511,o),
(469,498,cs),
(459,451,l),
(436,495,o),
(398,530,o),
(310,530,cs),
(149,530,o),
(83,404,o),
(53,288,cs),
(48,268,o),
(44,252,o),
(41,232,cs),
(23,115,o),
(52,-10,o),
(207,-10,cs)
);
},
{
closed = 1;
nodes = (
(98,48,o),
(88,136,o),
(103,232,cs),
(106,252,o),
(109,268,o),
(115,288,cs),
(143,383,o),
(201,472,o),
(310,472,cs),
(421,472,o),
(443,382,o),
(428,302,cs),
(424,282,o),
(416,244,o),
(411,224,cs),
(391,142,o),
(321,48,o),
(207,48,cs)
);
}
);
width = 569;
},
{
anchors = (
{
name = bottom;
pos = (275,0);
},
{
name = ogonek;
pos = (577,122);
},
{
name = top;
pos = (376,520);
}
);
color = 6;
layerId = "A0D8A2CD-35BA-4362-A7DB-C0E331BFD9A3";
shapes = (
{
closed = 1;
nodes = (
(257,-10,o),
(299,14,o),
(339,50,c),
(334,27,ls),
(331,12,o),
(341,0,o),
(356,0,cs),
(526,0,ls),
(541,0,o),
(555,12,o),
(558,27,cs),
(657,493,ls),
(660,508,o),
(650,520,o),
(635,520,cs),
(466,520,ls),
(451,520,o),
(437,508,o),
(434,493,cs),
(431,480,l),
(405,509,o),
(369,530,o),
(293,530,cs),
(167,530,o),
(72,457,o),
(32,300,cs),
(25,270,o),
(21,251,o),
(15,221,c),
(-13,54,o),
(72,-10,o),
(188,-10,cs)
);
},
{
closed = 1;
nodes = (
(262,169,o),
(258,191,o),
(262,227,cs),
(264,247,o),
(270,273,o),
(276,293,cs),
(287,329,o),
(301,351,o),
(338,351,cs),
(372,351,o),
(382,333,o),
(377,301,cs),
(373,271,o),
(370,257,o),
(362,227,cs),
(352,191,o),
(336,169,o),
(299,169,cs)
);
}
);
width = 660;
}
);
unicode = 97;
},
{
color = 6;
glyphname = aogonek;
kernLeft = a;
kernRight = a;
layers = (
{
layerId = UUID0;
shapes = (
{
closed = 1;
nodes = (
(364,-220,ls),
(377,-220,o),
(388,-211,o),
(391,-198,cs),
(394,-185,ls),
(397,-172,o),
(390,-163,o),
(377,-163,cs),
(372,-163,ls),
(345,-163,o),
(328,-149,o),
(328,-117,cs),
(328,-61,o),
(367,-25,o),
(409,-8,cs),
(414,-6,ls),
(423,-2,o),
(427,9,o),
(429,18,cs),
(530,498,ls),
(533,511,o),
(525,520,o),
(512,520,cs),
(495,520,ls),
(482,520,o),
(472,511,o),
(469,498,cs),
(459,451,l),
(436,495,o),
(398,530,o),
(310,530,cs),
(149,530,o),
(83,404,o),
(53,288,cs),
(48,268,o),
(44,252,o),
(41,232,cs),
(24,121,o),
(47,-10,o),
(207,-10,cs),
(295,-10,o),
(336,24,o),
(378,69,c),
(368,19,ls),
(365,4,o),
(376,0,o),
(384,0,c),
(400,0,l),
(408,55,l),
(305,7,o),
(267,-58,o),
(267,-123,cs),
(267,-180,o),
(304,-220,o),
(355,-220,cs)
);
},
{
closed = 1;
nodes = (
(93,48,o),
(91,144,o),
(103,232,cs),
(106,252,o),
(109,268,o),
(115,288,cs),
(143,383,o),
(201,472,o),
(310,472,cs),
(425,472,o),
(443,371,o),
(428,302,cs),
(424,282,o),
(416,244,o),
(411,224,cs),
(391,142,o),
(321,48,o),
(207,48,cs)
);
}
);
width = 568;
},
{
color = 6;
hints = (
{
horizontal = 1;
place = (0, 0);
type = Tag;
},
{
horizontal = 1;
place = (0, 0);
type = Tag;
},
{
horizontal = 1;
place = (0, 0);
type = Tag;
},
{
horizontal = 1;
place = (0, 0);
type = Tag;
}
);
layerId = "A0D8A2CD-35BA-4362-A7DB-C0E331BFD9A3";
shapes = (
{
closed = 1;
nodes = (
(489,-220,ls),
(504,-220,o),
(519,-208,o),
(522,-193,cs),
(537,-125,ls),
(540,-110,o),
(530,-98,o),
(515,-98,cs),
(505,-98,ls),
(474,-98,o),
(464,-80,o),
(464,-62,cs),
(464,-31,o),
(487,0,o),
(520,0,cs),
(526,0,ls),
(541,0,o),
(555,12,o),
(558,27,cs),
(657,493,ls),
(660,508,o),
(650,520,o),
(635,520,cs),
(466,520,ls),
(451,520,o),
(437,508,o),
(434,493,cs),
(431,480,l),
(405,509,o),
(369,530,o),
(293,530,cs),
(167,530,o),
(72,457,o),
(32,300,cs),
(25,270,o),
(21,251,o),
(15,221,cs),
(-13,54,o),
(72,-10,o),
(188,-10,cs),
(257,-10,o),
(299,14,o),
(339,50,c),
(335,33,ls),
(330,10,o),
(340,0,o),
(360,0,cs),
(382,0,l),
(377,28,l),
(356,6,o),
(335,-59,o),
(335,-97,cs),
(335,-168,o),
(375,-220,o),
(475,-220,cs)
);
},
{
closed = 1;
nodes = (
(262,169,o),
(258,191,o),
(262,227,cs),
(264,247,o),
(270,273,o),
(276,293,cs),
(287,329,o),
(301,351,o),
(338,351,cs),
(372,351,o),
(382,333,o),
(377,301,cs),
(373,271,o),
(370,257,o),
(362,227,cs),
(352,191,o),
(336,169,o),
(299,169,cs)
);
}
);
width = 661;
}
);
metricLeft = a;
unicode = 261;
userData = {
com.typemytype.robofont.guides = (
{
angle = 0;
isGlobal = 0;
magnetic = 5;
x = 0;
y = 22;
},
{
angle = 0;
isGlobal = 0;
magnetic = 5;
x = 0;
y = "-220";
},
{
angle = 90;
isGlobal = 0;
magnetic = 5;
x = 472;
y = 0;
}
);
};
},
{
color = 6;
glyphname = ae;
kernLeft = a;
kernRight = e;
layers = (
{
anchors = (
{
name = bottom;
pos = (386,0);
},
{
name = top;
pos = (504,520);
}
);
layerId = UUID0;
shapes = (
{
closed = 1;
nodes = (
(269,-10,o),
(345,26,o),
(399,100,c),
(417,36,o),
(465,-10,o),
(563,-10,cs),
(698,-10,o),
(784,81,o),
(791,111,cs),
(793,123,o),
(786,131,o),
(774,131,c),
(762,131,l),
(747,131,o),
(743,129,o),
(728,113,cs),
(686,67,o),
(627,48,o),
(575,48,cs),
(506,48,o),
(436,95,o),
(460,225,c),
(462,235,l),
(808,235,l),
(821,235,o),
(833,244,o),
(836,257,c),
(839,272,l),
(860,373,o),
(865,530,o),
(679,530,cs),
(595,530,o),
(531,494,o),
(486,442,c),
(473,491,o),
(428,530,o),
(327,530,cs),
(194,530,o),
(122,442,o),
(114,405,cs),
(112,393,o),
(120,383,o),
(132,383,c),
(146,383,l),
(158,383,o),
(166,388,o),
(174,404,cs),
(192,437,o),
(241,472,o),
(315,472,cs),
(409,472,o),
(441,429,o),
(426,358,c),
(420,326,l),
(257,304,l),
(136,288,o),
(43,229,o),
(24,139,cs),
(6,55,o),
(65,-10,o),
(171,-10,cs)
);
},
{
closed = 1;
nodes = (
(131,48,o),
(72,78,o),
(86,144,cs),
(97,198,o),
(162,235,o),
(274,250,c),
(407,268,l),
(400,234,l),
(373,108,o),
(285,48,o),
(193,48,cs)
);
},
{
closed = 1;
nodes = (
(475,295,l),
(505,416,o),
(591,472,o),
(667,472,cs),
(772,472,o),
(804,396,o),
(783,295,c),
(782,291,l),
(474,291,l)
);
}
);
width = 881;
},
{
anchors = (
{
name = bottom;
pos = (413,0);
},
{
name = top;
pos = (526,520);
}
);
color = 6;
layerId = "A0D8A2CD-35BA-4362-A7DB-C0E331BFD9A3";
shapes = (
{
closed = 1;
nodes = (
(239,-10,o),
(318,-1,o),
(390,51,c),
(430,11,o),
(493,-10,o),
(574,-10,cs),
(759,-10,o),
(867,94,o),
(878,145,cs),
(881,158,o),
(874,167,o),
(861,167,cs),
(672,167,ls),
(656,167,o),
(650,165,o),
(636,153,cs),
(622,142,o),
(615,135,o),
(603,135,cs),
(574,135,o),
(569,156,o),
(577,196,cs),
(578,201,l),
(876,201,ls),
(891,201,o),
(906,213,o),
(909,228,cs),
(915,258,ls),
(944,405,o),
(884,530,o),
(688,530,cs),
(629,530,o),
(575,516,o),
(527,493,c),
(499,517,o),
(452,530,o),
(378,530,cs),
(191,530,o),
(94,431,o),
(83,380,cs),
(80,367,o),
(87,358,o),
(100,358,cs),
(267,358,l),
(268,358,o),
(269,358,o),
(270,358,cs),
(302,358,o),
(312,390,o),
(346,390,cs),
(373,390,o),
(373,376,o),
(366,342,c),
(365,339,l),
(256,322,l),
(118,299,o),
(20,246,o),
(0,149,cs),
(-19,59,o),
(44,-10,o),
(180,-10,cs)
);
},
{
closed = 1;
nodes = (
(236,138,o),
(225,151,o),
(228,166,cs),
(231,180,o),
(244,195,o),
(280,203,cs),
(342,216,l),
(342,215,l),
(331,162,o),
(300,138,o),
(261,138,cs)
);
},
{
closed = 1;
nodes = (
(605,330,ls),
(605,372,o),
(632,390,o),
(658,390,cs),
(683,390,o),
(685,372,o),
(685,330,cs),
(685,326,l),
(605,326,l)
);
}
);
width = 935;
}
);
unicode = 230;
userData = {
com.typemytype.robofont.guides = (
{
angle = 0;
isGlobal = 0;
magnetic = 5;
x = 0;
y = "-10";
},
{
angle = 0;
isGlobal = 0;
magnetic = 5;
x = 0;
y = 530;
},
{
angle = 90;
isGlobal = 0;
magnetic = 5;
x = 473;
y = 0;
},
{
angle = 90;
isGlobal = 0;
magnetic = 5;
x = "-379";
y = 0;
},
{
angle = 90;
isGlobal = 0;
magnetic = 5;
x = 453;
y = 0;
}
);
};
},
{
color = 6;
glyphname = b;
kernLeft = h;
kernRight = b;
layers = (
{
anchors = (
{
name = bottom;
pos = (235,0);
},
{
name = top;
pos = (394,750);
}
);
layerId = UUID0;
shapes = (
{
closed = 1;
nodes = (
(405,-10,o),
(481,110,o),
(510,227,cs),
(515,247,o),
(521,273,o),
(524,293,cs),
(542,410,o),
(507,530,o),
(351,530,cs),
(268,530,o),
(218,495,o),
(176,451,c),
(226,688,ls),
(229,701,o),
(222,710,o),
(209,710,cs),
(192,710,ls),
(179,710,o),
(168,701,o),
(165,688,cs),
(24,22,ls),
(21,9,o),
(28,0,o),
(41,0,cs),
(58,0,ls),
(71,0,o),
(82,9,o),
(85,22,cs),
(95,69,l),
(118,24,o),
(166,-10,o),
(249,-10,cs)
);
},
{
closed = 1;
nodes = (
(135,48,o),
(113,142,o),
(128,224,cs),
(131,244,o),
(139,282,o),
(144,302,cs),
(163,382,o),
(240,472,o),
(351,472,cs),
(468,472,o),
(477,384,o),
(462,288,cs),
(459,268,o),
(456,252,o),
(450,232,cs),
(422,137,o),
(363,48,o),
(249,48,cs)
);
}
);
width = 580;
},
{
anchors = (
{
name = bottom;
pos = (275,0);
},
{
name = top;
pos = (434,750);
}
);
color = 6;
layerId = "A0D8A2CD-35BA-4362-A7DB-C0E331BFD9A3";
shapes = (
{
closed = 1;
nodes = (
(478,-10,o),
(571,54,o),
(613,221,cs),
(621,251,o),
(625,270,o),
(630,300,cs),
(658,457,o),
(573,530,o),
(457,530,cs),
(401,530,o),
(362,512,o),
(324,483,c),
(367,683,ls),
(370,698,o),
(360,710,o),
(345,710,cs),
(160,710,ls),
(145,710,o),
(131,698,o),
(128,683,cs),
(-12,27,ls),
(-15,12,o),
(-5,0,o),
(10,0,cs),
(180,0,ls),
(195,0,o),
(209,12,o),
(212,27,cs),
(217,50,l),
(241,14,o),
(293,-10,o),
(362,-10,cs)
);
},
{
closed = 1;
nodes = (
(270,169,o),
(264,191,o),
(270,227,cs),
(274,257,o),
(277,271,o),
(285,301,cs),
(294,333,o),
(312,351,o),
(346,351,cs),
(383,351,o),
(387,329,o),
(384,293,cs),
(382,273,o),
(376,247,o),
(370,227,cs),
(358,191,o),
(344,169,o),
(307,169,cs)
);
}
);
width = 660;
}
);
unicode = 98;
userData = {
com.typemytype.robofont.guides = (
{
angle = 0;
isGlobal = 0;
magnetic = 5;
x = 0;
y = 530;
},
{
angle = 0;
isGlobal = 0;
magnetic = 5;
x = 0;
y = "-10";
},
{
angle = 0;
isGlobal = 0;
magnetic = 5;
x = 0;
y = 710;
},
{
angle = 0;
isGlobal = 0;
magnetic = 5;
x = 0;
y = 288;
},
{
angle = 0;
isGlobal = 0;
magnetic = 5;
x = 0;
y = 232;
},
{
angle = 0;
isGlobal = 0;
magnetic = 5;
x = 0;
y = 451;
},
{
angle = 0;
isGlobal = 0;
magnetic = 5;
x = 0;
y = 69;
},
{
angle = 90;
isGlobal = 0;
magnetic = 5;
x = 121;
y = 0;
},
{
angle = 90;
isGlobal = 0;
magnetic = 5;
x = 79;
y = 0;
}
);
};
},
{
color = 6;
glyphname = c;
kernLeft = o;
kernRight = c;
layers = (
{
anchors = (
{
name = bottom;
pos = (213,0);
},
{
name = top;
pos = (322,520);
}
);
layerId = UUID0;
shapes = (
{
closed = 1;
nodes = (
(359,-10,o),
(432,77,o),
(453,149,cs),
(457,162,o),
(450,171,o),
(438,171,cs),
(420,171,ls),
(406,171,o),
(402,167,o),
(393,150,cs),
(354,74,o),
(288,48,o),
(218,48,cs),
(127,48,o),
(80,100,o),
(102,225,cs),
(106,245,o),
(112,275,o),
(117,295,cs),
(148,420,o),
(230,472,o),
(321,472,cs),
(396,472,o),
(443,441,o),
(440,365,cs),
(439,349,o),
(446,344,o),
(460,344,cs),
(479,344,ls),
(491,344,o),
(499,353,o),
(500,366,cs),
(508,438,o),
(467,530,o),
(321,530,cs),
(180,530,o),
(92,443,o),
(57,300,cs),
(52,280,o),
(44,240,o),
(40,220,cs),
(14,77,o),
(87,-10,o),
(218,-10,cs)
);
}
);
width = 535;
},
{
anchors = (
{
name = bottom;
pos = (256,0);
},
{
name = top;
pos = (351,520);
}
);
color = 6;
layerId = "A0D8A2CD-35BA-4362-A7DB-C0E331BFD9A3";
shapes = (
{
closed = 1;
nodes = (
(484,-10,o),
(565,141,o),
(578,184,cs),
(582,199,o),
(571,211,o),
(556,211,cs),
(361,211,ls),
(346,211,o),
(336,203,o),
(328,191,cs),
(316,172,o),
(309,161,o),
(285,161,cs),
(254,161,o),
(251,181,o),
(258,224,cs),
(261,243,o),
(266,266,o),
(273,295,cs),
(283,335,o),
(296,359,o),
(327,359,cs),
(347,359,o),
(352,348,o),
(357,329,cs),
(361,317,o),
(367,309,o),
(382,309,cs),
(577,309,ls),
(592,309,o),
(608,321,o),
(610,336,cs),
(618,389,o),
(549,530,o),
(348,530,cs),
(185,530,o),
(68,448,o),
(29,300,cs),
(23,277,o),
(16,240,o),
(12,219,cs),
(-11,71,o),
(110,-10,o),
(253,-10,cs)
);
}
);
width = 621;
}
);
unicode = 99;
userData = {
com.typemytype.robofont.guides = (
{
angle = 0;
isGlobal = 0;
magnetic = 5;
x = 0;
y = "-10";
},
{
angle = 0;
isGlobal = 0;
magnetic = 5;
x = 0;
y = 295;
},
{
angle = 0;
isGlobal = 0;
magnetic = 5;
x = 0;
y = 225;
},
{
angle = 90;
isGlobal = 0;
magnetic = 5;
x = 445;
y = 0;
},
{
angle = 90;
isGlobal = 0;
magnetic = 5;
x = 484;
y = 0;
},
{
angle = 90;
isGlobal = 0;
magnetic = 5;
x = 137;
y = 0;
},
{
angle = 90;
isGlobal = 0;
magnetic = 5;
x = 270;
y = 0;
}
);
};
},
{
color = 6;
glyphname = ccedilla;
kernLeft = o;
kernRight = c;
layers = (
{
layerId = UUID0;
shapes = (
{
closed = 1;
nodes = (
(239,-220,o),
(272,-183,o),
(282,-135,cs),
(293,-87,o),
(264,-50,o),
(225,-50,cs),
(210,-50,o),
(194,-52,o),
(185,-57,c),
(219,-10,l),
(359,-9,o),
(432,77,o),
(453,149,cs),
(457,162,o),
(450,171,o),
(438,171,c),
(420,171,l),
(406,171,o),
(402,167,o),
(393,150,cs),
(354,74,o),
(288,48,o),
(218,48,cs),
(127,48,o),
(80,100,o),
(102,225,cs),
(106,245,o),
(112,275,o),
(117,295,cs),
(148,420,o),
(230,472,o),
(321,472,cs),
(396,472,o),
(443,441,o),
(440,365,cs),
(439,349,o),
(446,344,o),
(460,344,c),
(479,344,l),
(491,344,o),
(499,353,o),
(500,366,cs),
(508,438,o),
(467,530,o),
(321,530,cs),
(180,530,o),
(92,443,o),
(57,300,cs),
(52,280,o),
(44,240,o),
(40,220,cs),
(17,97,o),
(68,15,o),
(166,-5,c),
(135,-53,l),
(129,-63,o),
(119,-75,o),
(124,-83,c),
(136,-100,l),
(148,-116,o),
(165,-96,o),
(197,-96,cs),
(220,-96,o),
(237,-110,o),
(232,-134,cs),
(227,-159,o),
(204,-174,o),
(181,-174,cs),
(134,-174,o),
(133,-142,o),
(116,-156,c),
(100,-169,l),
(80,-184,o),
(124,-220,o),
(181,-220,cs)
);
}
);
width = 535;
},
{
color = 6;
layerId = "A0D8A2CD-35BA-4362-A7DB-C0E331BFD9A3";
shapes = (
{
closed = 1;
nodes = (
(276,-220,o),
(312,-188,o),
(323,-135,cs),
(334,-82,o),
(313,-40,o),
(262,-40,cs),
(258,-40,o),
(240,-42,o),
(231,-45,c),
(256,-10,l),
(485,-8,o),
(565,141,o),
(578,184,cs),
(582,199,o),
(571,211,o),
(556,211,c),
(361,211,l),
(346,211,o),
(336,203,o),
(328,191,cs),
(316,172,o),
(309,161,o),
(285,161,cs),
(254,161,o),
(251,181,o),
(258,224,cs),
(261,243,o),
(266,266,o),
(273,295,cs),
(283,335,o),
(296,359,o),
(327,359,cs),
(347,359,o),
(352,348,o),
(357,329,cs),
(361,317,o),
(367,309,o),
(382,309,c),
(577,309,l),
(592,309,o),
(608,321,o),
(610,336,cs),
(618,389,o),
(549,530,o),
(348,530,cs),
(185,530,o),
(68,448,o),
(29,300,cs),
(23,277,o),
(16,240,o),
(12,219,cs),
(-8,94,o),
(75,18,o),
(186,-3,c),
(161,-42,l),
(148,-61,o),
(148,-69,o),
(155,-78,c),
(176,-106,l),
(186,-119,o),
(212,-106,o),
(230,-106,cs),
(250,-106,o),
(255,-118,o),
(253,-130,cs),
(250,-142,o),
(239,-154,o),
(220,-154,cs),
(186,-154,o),
(185,-136,o),
(164,-151,c),
(140,-169,l),
(112,-189,o),
(163,-220,o),
(216,-220,cs)
);
}
);
width = 621;
}
);
unicode = 231;
},
{
color = 6;
glyphname = d;
kernLeft = d;
kernRight = d;
layers = (
{
anchors = (
{
name = bottom;
pos = (235,0);
},
{
name = center;
pos = (508,615);
},
{
name = top;
pos = (394,750);
},
{
name = topright;
pos = (641,710);
}
);
layerId = UUID0;
shapes = (
{
closed = 1;
nodes = (
(299,-10,o),
(345,24,o),
(387,69,c),
(377,22,ls),
(374,9,o),
(382,0,o),
(395,0,cs),
(412,0,ls),
(425,0,o),
(435,9,o),
(438,22,cs),
(580,688,ls),
(583,701,o),
(575,710,o),
(562,710,cs),
(545,710,ls),
(532,710,o),
(522,701,o),
(519,688,cs),
(468,451,l),
(445,495,o),
(402,530,o),
(314,530,cs),
(153,530,o),
(82,404,o),
(52,288,cs),
(47,268,o),
(43,252,o),
(40,232,cs),
(22,115,o),
(56,-10,o),
(211,-10,cs)
);
},
{
closed = 1;
nodes = (
(102,48,o),
(87,136,o),
(102,232,cs),
(105,252,o),
(108,268,o),
(114,288,cs),
(142,383,o),
(205,472,o),
(314,472,cs),
(425,472,o),
(452,382,o),
(437,302,cs),
(433,282,o),
(425,244,o),
(420,224,cs),
(400,142,o),
(325,48,o),
(211,48,cs)
);
}
);
width = 579;
},
{
anchors = (
{
name = bottom;
pos = (276,0);
},
{
name = center;
pos = (546,612);
},
{
name = top;
pos = (435,750);
},
{
name = topright;
pos = (762,710);
}
);
color = 6;
layerId = "A0D8A2CD-35BA-4362-A7DB-C0E331BFD9A3";
shapes = (
{
closed = 1;
nodes = (
(257,-10,o),
(299,14,o),
(339,50,c),
(334,27,ls),
(331,12,o),
(341,0,o),
(356,0,cs),
(526,0,ls),
(541,0,o),
(555,12,o),
(558,27,cs),
(698,683,ls),
(701,698,o),
(691,710,o),
(676,710,cs),
(491,710,ls),
(476,710,o),
(462,698,o),
(459,683,cs),
(417,483,l),
(391,512,o),
(339,530,o),
(283,530,cs),
(167,530,o),
(72,457,o),
(32,300,cs),
(25,270,o),
(21,251,o),
(15,221,cs),
(-13,54,o),
(72,-10,o),
(188,-10,cs)
);
},
{
closed = 1;
nodes = (
(262,169,o),
(258,191,o),
(262,227,cs),
(264,247,o),
(270,273,o),
(276,293,cs),
(287,329,o),
(301,351,o),
(338,351,cs),
(372,351,o),
(382,333,o),
(377,301,cs),
(373,271,o),
(370,257,o),
(362,227,cs),
(352,191,o),
(336,169,o),
(299,169,cs)
);
}
);
width = 661;
}
);
unicode = 100;
userData = {
com.typemytype.robofont.guides = (
{
angle = 0;
isGlobal = 0;
magnetic = 5;
x = 0;
y = 650;
},
{
angle = 0;
isGlobal = 0;
magnetic = 5;
x = 0;
y = 530;
},
{
angle = 90;
isGlobal = 0;
magnetic = 5;
x = 438;
y = 0;
},
{
angle = 90;
isGlobal = 0;
magnetic = 5;
x = 499;
y = 0;
}
);
};
},
{
color = 6;
glyphname = eth;
layers = (
{
layerId = UUID0;
shapes = (
{
closed = 1;
nodes = (
(365,-10,o),
(463,92,o),
(492,229,cs),
(492,230,o),
(492,231,o),
(493,232,cs),
(527,402,o),
(513,501,o),
(471,575,c),
(539,599,l),
(556,605,o),
(563,609,o),
(566,624,c),
(570,643,l),
(572,655,o),
(566,661,o),
(555,661,cs),
(551,661,o),
(546,660,o),
(541,658,c),
(440,622,l),
(424,644,o),
(406,665,o),
(385,687,cs),
(377,695,o),
(368,700,o),
(352,700,c),
(332,700,l),
(320,700,o),
(310,692,o),
(308,680,cs),
(307,675,o),
(308,669,o),
(320,658,cs),
(340,638,o),
(359,618,o),
(375,599,c),
(307,575,l),
(290,569,o),
(283,565,o),
(280,550,c),
(276,531,l),
(274,519,o),
(280,513,o),
(291,513,cs),
(295,513,o),
(299,514,o),
(305,516,c),
(409,553,l),
(429,518,o),
(442,479,o),
(448,431,c),
(419,456,o),
(377,470,o),
(324,470,cs),
(180,470,o),
(82,368,o),
(54,231,c),
(24,94,o),
(78,-10,o),
(222,-10,cs)
);
},
{
closed = 1;
nodes = (
(131,48,o),
(95,127,o),
(114,226,cs),
(114,227,o),
(115,229,o),
(116,232,cs),
(137,332,o),
(207,412,o),
(312,412,cs),
(417,412,o),
(453,332,o),
(432,232,cs),
(431,230,o),
(431,229,o),
(431,228,cs),
(408,128,o),
(338,48,o),
(234,48,cs)
);
}
);
width = 550;
},
{
color = 6;
hints = (
{
horizontal = 1;
place = (0, 0);
type = Tag;
}
);
layerId = "A0D8A2CD-35BA-4362-A7DB-C0E331BFD9A3";
shapes = (
{
closed = 1;
nodes = (
(438,-10,o),
(563,68,o),
(605,225,cs),
(610,245,o),
(615,268,o),
(618,288,cs),
(640,424,o),
(623,524,o),
(577,601,c),
(621,617,l),
(639,623,o),
(647,632,o),
(650,650,c),
(656,678,l),
(659,690,o),
(652,699,o),
(640,699,cs),
(638,699,o),
(634,698,o),
(628,696,c),
(531,661,l),
(523,670,o),
(512,678,o),
(503,687,cs),
(495,694,o),
(480,700,o),
(453,700,c),
(265,700,l),
(253,700,o),
(241,690,o),
(238,678,cs),
(237,673,o),
(240,665,o),
(247,659,cs),
(275,637,o),
(301,613,o),
(322,586,c),
(242,557,l),
(224,551,o),
(216,542,o),
(213,524,c),
(207,496,l),
(204,484,o),
(211,475,o),
(223,475,cs),
(225,475,o),
(229,476,o),
(235,478,c),
(363,524,l),
(371,506,o),
(377,488,o),
(381,470,c),
(376,470,o),
(372,470,o),
(367,470,c),
(204,470,o),
(61,392,o),
(26,230,cs),
(-8,68,o),
(91,-10,o),
(265,-10,cs)
);
},
{
closed = 1;
nodes = (
(262,150,o),
(260,171,o),
(266,204,cs),
(269,224,o),
(271,236,o),
(277,256,cs),
(285,288,o),
(296,310,o),
(333,310,cs),
(370,310,o),
(371,288,o),
(367,256,cs),
(363,236,o),
(361,223,o),
(355,203,cs),
(348,171,o),
(333,150,o),
(299,150,cs)
);
}
);
width = 638;
}
);
unicode = 240;
userData = {
com.typemytype.robofont.guides = (
{
angle = 0;
isGlobal = 0;
magnetic = 5;
x = 0;
y = 512;
},
{
angle = 90;
isGlobal = 0;
magnetic = 5;
x = 214;
y = 0;
},
{
angle = 90;
isGlobal = 0;
magnetic = 5;
x = 484;
y = 0;
}
);
};
},
{
color = 6;
glyphname = dcroat;
kernLeft = d;
kernRight = d;
layers = (
{
layerId = UUID0;
shapes = (
{
closed = 1;
nodes = (
(287,-10,o),
(347,24,o),
(389,69,c),
(379,22,ls),
(376,9,o),
(384,0,o),
(397,0,cs),
(414,0,ls),
(427,0,o),
(437,9,o),
(440,22,cs),
(557,571,l),
(615,571,ls),
(628,571,o),
(639,580,o),
(642,593,cs),
(645,607,ls),
(647,620,o),
(640,629,o),
(627,629,cs),
(569,629,l),
(582,688,ls),
(585,701,o),
(577,710,o),
(564,710,cs),
(547,710,ls),
(534,710,o),
(524,701,o),
(521,688,cs),
(508,629,l),
(450,629,ls),
(437,629,o),
(426,620,o),
(424,607,cs),
(421,593,ls),
(418,580,o),
(425,571,o),
(438,571,cs),
(496,571,l),
(470,451,l),
(447,495,o),
(402,530,o),
(319,530,cs),
(143,530,o),
(77,385,o),
(54,288,cs),
(48,268,o),
(45,252,o),
(42,232,cs),
(24,135,o),
(28,-10,o),
(204,-10,cs)
);
},
{
closed = 1;
nodes = (
(106,48,o),
(85,136,o),
(103,232,cs),
(106,252,o),
(109,268,o),
(115,288,cs),
(138,384,o),
(196,472,o),
(313,472,cs),
(424,472,o),
(454,382,o),
(439,302,cs),
(435,282,o),
(427,244,o),
(422,224,cs),
(402,142,o),
(337,48,o),
(223,48,cs)
);
}
);
width = 580;
},
{
color = 6;
layerId = "A0D8A2CD-35BA-4362-A7DB-C0E331BFD9A3";
shapes = (
{
closed = 1;
nodes = (
(246,-10,o),
(301,18,o),
(340,57,c),
(333,27,ls),
(330,12,o),
(340,0,o),
(355,0,cs),
(525,0,ls),
(540,0,o),
(554,12,o),
(557,27,cs),
(668,548,l),
(698,548,ls),
(713,548,o),
(728,560,o),
(731,575,cs),
(742,626,ls),
(745,641,o),
(735,653,o),
(720,653,cs),
(690,653,l),
(697,683,ls),
(700,698,o),
(690,710,o),
(675,710,cs),
(490,710,ls),
(475,710,o),
(461,698,o),
(458,683,cs),
(451,653,l),
(421,653,ls),
(406,653,o),
(392,641,o),
(389,626,cs),
(378,575,ls),
(375,560,o),
(384,548,o),
(399,548,cs),
(429,548,l),
(415,483,l),
(389,512,o),
(348,530,o),
(292,530,cs),
(176,530,o),
(71,457,o),
(31,300,cs),
(24,270,o),
(20,251,o),
(14,221,cs),
(-14,54,o),
(61,-10,o),
(177,-10,cs)
);
},
{
closed = 1;
nodes = (
(261,169,o),
(257,191,o),
(261,227,cs),
(263,247,o),
(269,273,o),
(275,293,cs),
(286,329,o),
(300,351,o),
(337,351,cs),
(371,351,o),
(381,333,o),
(376,301,cs),
(372,271,o),
(369,257,o),
(361,227,cs),
(351,191,o),
(335,169,o),
(298,169,cs)
);
}
);
width = 661;
}
);
unicode = 273;
userData = {
com.typemytype.robofont.guides = (
{
angle = 0;
isGlobal = 0;
magnetic = 5;
x = 0;
y = 600;
}
);
};
},
{
color = 6;
glyphname = e;
kernLeft = o;
kernRight = e;
layers = (
{
anchors = (
{
name = bottom;
pos = (217,0);
},
{
name = ogonek;
pos = (437,10);
},
{
name = top;
pos = (336,520);
}
);
layerId = UUID0;
shapes = (
{
closed = 1;
nodes = (
(349,-10,o),
(445,73,o),
(455,111,cs),
(458,123,o),
(450,131,o),
(438,131,cs),
(422,131,ls),
(407,131,o),
(404,130,o),
(388,113,cs),
(374,97,o),
(320,48,o),
(235,48,cs),
(138,48,o),
(100,134,o),
(115,225,cs),
(116,228,o),
(117,235,o),
(117,235,c),
(473,235,ls),
(486,235,o),
(498,244,o),
(501,257,cs),
(504,272,ls),
(536,432,o),
(477,530,o),
(338,530,cs),
(208,530,o),
(109,436,o),
(70,300,cs),
(65,280,o),
(56,240,o),
(53,220,cs),
(34,83,o),
(94,-10,o),
(223,-10,cs)
);
},
{
closed = 1;
nodes = (
(130,295,ls),
(155,394,o),
(226,472,o),
(326,472,cs),
(426,472,o),
(473,394,o),
(448,295,cs),
(447,291,l),
(129,291,l)
);
}
);
width = 544;
},
{
anchors = (
{
name = bottom;
pos = (256,0);
},
{
name = ogonek;
pos = (403,119);
},
{
name = top;
pos = (366,520);
}
);
color = 6;
layerId = "A0D8A2CD-35BA-4362-A7DB-C0E331BFD9A3";
shapes = (
{
closed = 1;
nodes = (
(448,-10,o),
(553,94,o),
(567,145,cs),
(571,158,o),
(563,167,o),
(550,167,cs),
(361,167,ls),
(345,167,o),
(339,165,o),
(325,153,cs),
(311,142,o),
(304,135,o),
(292,135,cs),
(263,135,o),
(257,156,o),
(266,196,cs),
(266,198,o),
(267,199,o),
(267,201,c),
(565,201,ls),
(580,201,o),
(595,213,o),
(598,228,cs),
(604,258,ls),
(633,405,o),
(573,530,o),
(377,530,cs),
(206,530,o),
(75,438,o),
(36,266,cs),
(35,264,o),
(35,261,o),
(34,259,cs),
(-5,72,o),
(88,-10,o),
(263,-10,cs)
);
},
{
closed = 1;
nodes = (
(294,327,l),
(303,371,o),
(321,390,o),
(347,390,cs),
(373,390,o),
(383,371,o),
(374,327,c),
(374,326,l),
(294,326,l)
);
}
);
width = 621;
}
);
unicode = 101;
userData = {
com.typemytype.robofont.guides = (
{
angle = 0;
isGlobal = 0;
magnetic = 5;
x = 0;
y = "-10";
},
{
angle = 90;
isGlobal = 0;
magnetic = 5;
x = 275;
y = 0;
},
{
angle = 90;
isGlobal = 0;
magnetic = 5;
x = 496;
y = 0;
},
{
angle = 90;
isGlobal = 0;
magnetic = 5;
x = 61;
y = 0;
},
{
angle = 90;
isGlobal = 0;
magnetic = 5;
x = 122;
y = 0;
},
{
angle = 90;
isGlobal = 0;
magnetic = 5;
x = 430;
y = 0;
}
);
};
},
{
color = 6;
glyphname = eogonek;
kernLeft = o;
kernRight = e;
layers = (
{
anchors = (
{
name = top;
pos = (329,520);
}
);
hints = (
{
horizontal = 1;
place = (150, 0);
type = Tag;
}
);
layerId = UUID0;
shapes = (
{
closed = 1;
nodes = (
(249,-220,l),
(262,-220,o),
(273,-211,o),
(276,-198,c),
(279,-185,l),
(282,-172,o),
(275,-163,o),
(262,-163,c),
(247,-163,l),
(203,-163,o),
(177,-133,o),
(188,-82,cs),
(198,-35,o),
(228,-14,o),
(270,-6,cs),
(372,14,o),
(447,77,o),
(456,111,cs),
(459,123,o),
(451,131,o),
(439,131,cs),
(423,131,ls),
(408,131,o),
(405,130,o),
(389,113,cs),
(375,97,o),
(321,48,o),
(236,48,cs),
(139,48,o),
(101,134,o),
(116,225,cs),
(118,235,l),
(474,235,ls),
(487,235,o),
(499,244,o),
(502,257,cs),
(505,272,ls),
(539,432,o),
(478,530,o),
(339,530,cs),
(209,530,o),
(110,436,o),
(71,300,cs),
(66,280,o),
(57,240,o),
(54,220,cs),
(38,106,o),
(76,23,o),
(164,-2,c),
(146,-23,o),
(134,-51,o),
(128,-82,cs),
(110,-167,o),
(149,-220,o),
(230,-220,c)
);
},
{
closed = 1;
nodes = (
(130,295,ls),
(151,395,o),
(226,472,o),
(326,472,cs),
(426,472,o),
(469,395,o),
(448,295,cs),
(447,291,l),
(129,291,l)
);
}
);
width = 547;
},
{
anchors = (
{
name = top;
pos = (367,520);
}
);
color = 6;
layerId = "A0D8A2CD-35BA-4362-A7DB-C0E331BFD9A3";
shapes = (
{
closed = 1;
nodes = (
(286,-220,l),
(301,-220,o),
(316,-208,o),
(319,-193,c),
(334,-125,l),
(337,-110,o),
(327,-98,o),
(312,-98,c),
(302,-98,l),
(263,-98,o),
(258,-70,o),
(263,-49,cs),
(267,-28,o),
(287,-12,o),
(330,-5,c),
(473,15,o),
(554,100,o),
(567,145,cs),
(571,158,o),
(563,167,o),
(550,167,c),
(361,167,l),
(345,167,o),
(339,165,o),
(325,153,cs),
(311,142,o),
(304,135,o),
(292,135,cs),
(263,135,o),
(257,156,o),
(266,196,c),
(267,201,l),
(565,201,l),
(580,201,o),
(594,213,o),
(598,228,c),
(604,258,l),
(635,405,o),
(573,530,o),
(377,530,cs),
(206,530,o),
(74,437,o),
(35,264,cs),
(35,262,o),
(35,261,o),
(34,259,cs),
(4,116,o),
(51,34,o),
(154,3,c),
(146,-13,o),
(141,-30,o),
(137,-49,cs),
(117,-144,o),
(151,-220,o),
(272,-220,cs)
);
},
{
closed = 1;
nodes = (
(294,327,l),
(303,371,o),
(321,390,o),
(347,390,cs),
(373,390,o),
(383,371,o),
(374,327,c),
(374,326,l),
(294,326,l)
);
}
);
width = 623;
}
);
unicode = 281;
userData = {
com.typemytype.robofont.guides = (
{
angle = 0;
isGlobal = 0;
magnetic = 5;
x = 0;
y = 259;
},
{
angle = 0;
isGlobal = 0;
magnetic = 5;
x = 0;
y = "-220";
},
{
angle = 90;
isGlobal = 0;
magnetic = 5;
x = 339;
y = 0;
}
);
};
},
{
color = 6;
glyphname = f;
kernLeft = f;
kernRight = f;
layers = (
{
anchors = (
{
name = bottom;
pos = (123,0);
},
{
name = top;
pos = (282,750);
}
);
layerId = UUID0;
shapes = (
{
closed = 1;
nodes = (
(104,0,ls),
(117,0,o),
(127,9,o),
(130,22,cs),
(224,462,l),
(356,462,ls),
(369,462,o),
(380,471,o),
(382,484,cs),
(385,498,ls),
(388,511,o),
(381,520,o),
(368,520,cs),
(236,520,l),
(247,572,ls),
(262,643,o),
(297,682,o),
(367,682,cs),
(412,682,ls),
(425,682,o),
(436,691,o),
(439,704,cs),
(442,718,ls),
(445,731,o),
(438,740,o),
(425,740,cs),
(367,740,ls),
(263,740,o),
(206,666,o),
(187,577,cs),
(175,520,l),
(86,520,ls),
(73,520,o),
(62,511,o),
(59,498,cs),
(56,484,ls),
(54,471,o),
(61,462,o),
(74,462,cs),
(163,462,l),
(69,22,ls),
(66,9,o),
(74,0,o),
(87,0,cs)
);
}
);
width = 356;
},
{
anchors = (
{
name = bottom;
pos = (191,0);
},
{
name = top;
pos = (350,750);
}
);
color = 6;
layerId = "A0D8A2CD-35BA-4362-A7DB-C0E331BFD9A3";
shapes = (
{
closed = 1;
nodes = (
(251,0,ls),
(266,0,o),
(280,12,o),
(283,27,cs),
(351,345,l),
(465,345,ls),
(480,345,o),
(494,357,o),
(498,372,cs),
(523,493,ls),
(526,508,o),
(517,520,o),
(502,520,cs),
(388,520,l),
(391,532,ls),
(395,553,o),
(411,565,o),
(441,565,cs),
(522,565,ls),
(537,565,o),
(551,577,o),
(554,592,cs),
(580,713,ls),
(583,728,o),
(574,740,o),
(559,740,cs),
(446,740,ls),
(301,740,o),
(198,701,o),
(163,537,cs),
(159,520,l),
(90,520,ls),
(75,520,o),
(60,508,o),
(57,493,cs),
(32,372,ls),
(28,357,o),
(38,345,o),
(53,345,cs),
(122,345,l),
(54,27,ls),
(51,12,o),
(61,0,o),
(76,0,cs)
);
}
);
width = 491;
}
);
unicode = 102;
userData = {
com.typemytype.robofont.guides = (
{
angle = 0;
isGlobal = 0;
magnetic = 5;
x = 0;
y = 345;
},
{
angle = 0;
isGlobal = 0;
magnetic = 5;
x = 0;
y = 9;
},
{
angle = 0;
isGlobal = 0;
magnetic = 5;
x = 0;
y = 740;
},
{
angle = 90;
isGlobal = 0;
magnetic = 5;
x = 297;
y = 0;
},
{
angle = 90;
isGlobal = 0;
magnetic = 5;
x = 371;
y = 0;
}
);
};
},
{
color = 6;
glyphname = g;
kernLeft = g;
kernRight = u;
layers = (
{
anchors = (
{
name = bottom;
pos = (187,-225);
},
{
name = top;
pos = (329,520);
}
);
layerId = UUID0;
shapes = (
{
closed = 1;
nodes = (
(359,-220,o),
(409,-118,o),
(436,10,cs),
(539,497,ls),
(542,510,o),
(534,520,o),
(521,520,cs),
(505,520,ls),
(492,520,o),
(481,510,o),
(478,497,cs),
(468,451,l),
(445,495,o),
(396,530,o),
(314,530,cs),
(155,530,o),
(83,404,o),
(52,288,cs),
(47,268,o),
(43,252,o),
(40,232,cs),
(20,115,o),
(52,-10,o),
(212,-10,cs),
(294,-10,o),
(345,24,o),
(387,69,c),
(373,0,ls),
(347,-127,o),
(260,-162,o),
(166,-162,cs),
(62,-162,o),
(46,-103,o),
(45,-71,cs),
(44,-53,o),
(36,-50,o),
(26,-50,cs),
(7,-50,ls),
(-5,-50,o),
(-13,-60,o),
(-15,-73,cs),
(-22,-113,o),
(1,-220,o),
(166,-220,cs)
);
},
{
closed = 1;
nodes = (
(98,48,o),
(85,136,o),
(101,232,cs),
(104,252,o),
(108,268,o),
(113,288,cs),
(139,383,o),
(205,472,o),
(314,472,cs),
(428,472,o),
(449,378,o),
(435,296,cs),
(432,276,o),
(425,244,o),
(420,224,cs),
(399,142,o),
(324,48,o),
(212,48,cs)
);
}
);
width = 579;
},
{
anchors = (
{
name = bottom;
pos = (230,-225);
},
{
name = top;
pos = (363,520);
}
);
color = 6;
layerId = "A0D8A2CD-35BA-4362-A7DB-C0E331BFD9A3";
shapes = (
{
closed = 1;
nodes = (
(406,-220,o),
(525,-151,o),
(561,17,c),
(661,493,l),
(664,508,o),
(655,520,o),
(640,520,c),
(465,520,l),
(450,520,o),
(435,508,o),
(432,493,c),
(425,462,l),
(401,502,o),
(347,530,o),
(282,530,cs),
(156,530,o),
(73,457,o),
(31,300,c),
(26,280,o),
(24,269,o),
(20,249,c),
(-6,82,o),
(68,23,o),
(194,23,cs),
(252,23,o),
(290,39,o),
(327,66,c),
(313,0,l),
(304,-40,o),
(286,-59,o),
(257,-59,cs),
(233,-59,o),
(226,-51,o),
(220,-34,cs),
(217,-22,o),
(212,-14,o),
(197,-14,c),
(2,-14,l),
(-13,-14,o),
(-29,-26,o),
(-31,-41,cs),
(-37,-84,o),
(22,-220,o),
(238,-220,cs)
);
},
{
closed = 1;
nodes = (
(267,197,o),
(262,219,o),
(267,255,cs),
(268,265,o),
(272,283,o),
(275,293,c),
(285,329,o),
(300,351,o),
(337,351,cs),
(371,351,o),
(380,333,o),
(376,301,cs),
(375,291,o),
(368,257,o),
(365,247,cs),
(355,215,o),
(338,197,o),
(304,197,cs)
);
}
);
width = 665;
}
);
unicode = 103;
userData = {
com.typemytype.robofont.guides = (
{
angle = 0;
isGlobal = 0;
magnetic = 5;
x = 0;
y = 530;
},
{
angle = 0;
isGlobal = 0;
magnetic = 5;
x = 0;
y = "-220";
},
{
angle = 0;
isGlobal = 0;
magnetic = 5;
x = 0;
y = 288;
},
{
angle = 0;
isGlobal = 0;
magnetic = 5;
x = 0;
y = 232;
},
{
angle = 90;
isGlobal = 0;
magnetic = 5;
x = 56;
y = 0;
},
{
angle = 90;
isGlobal = 0;
magnetic = 5;
x = 270;
y = 0;
}
);
};
},
{
color = 6;
glyphname = h;
kernLeft = h;
kernRight = n;
layers = (
{
anchors = (
{
name = bottom;
pos = (241,0);
},
{
name = center;
pos = (213,597);
},
{
name = top;
pos = (350,675);
}
);
layerId = UUID0;
shapes = (
{
closed = 1;
nodes = (
(58,0,ls),
(71,0,o),
(81,9,o),
(84,22,cs),
(143,301,ls),
(166,408,o),
(254,472,o),
(349,472,cs),
(449,472,o),
(476,407,o),
(454,301,cs),
(395,22,ls),
(392,9,o),
(400,0,o),
(413,0,cs),
(430,0,ls),
(443,0,o),
(453,9,o),
(456,22,cs),
(517,306,ls),
(544,433,o),
(490,530,o),
(349,530,cs),
(266,530,o),
(216,498,o),
(175,451,c),
(226,688,ls),
(229,701,o),
(221,710,o),
(208,710,cs),
(191,710,ls),
(178,710,o),
(168,701,o),
(165,688,cs),
(23,22,ls),
(20,9,o),
(28,0,o),
(41,0,cs)
);
}
);
width = 591;
},
{
anchors = (
{
name = bottom;
pos = (288,0);
},
{
name = center;
pos = (257,606);
},
{
name = top;
pos = (394,677);
}
);
color = 6;
layerId = "A0D8A2CD-35BA-4362-A7DB-C0E331BFD9A3";
shapes = (
{
closed = 1;
nodes = (
(205,0,ls),
(220,0,o),
(234,12,o),
(237,27,cs),
(294,296,ls),
(302,332,o),
(325,351,o),
(357,351,cs),
(389,351,o),
(403,332,o),
(395,296,cs),
(338,27,ls),
(335,12,o),
(345,0,o),
(360,0,cs),
(556,0,ls),
(571,0,o),
(585,12,o),
(588,27,cs),
(647,303,ls),
(681,461,o),
(597,530,o),
(486,530,cs),
(424,530,o),
(374,506,o),
(331,468,c),
(377,683,ls),
(380,698,o),
(370,710,o),
(355,710,cs),
(160,710,ls),
(145,710,o),
(131,698,o),
(128,683,cs),
(-12,27,ls),
(-15,12,o),
(-5,0,o),
(10,0,cs)
);
}
);
width = 685;
}
);
unicode = 104;
userData = {
com.typemytype.robofont.guides = (
{
angle = 0;
isGlobal = 0;
magnetic = 5;
x = 0;
y = 9;
},
{
angle = 0;
isGlobal = 0;
magnetic = 5;
x = 0;
y = 301;
},
{
angle = 0;
isGlobal = 0;
magnetic = 5;
x = 0;
y = 414;
},
{
angle = 0;
isGlobal = 0;
magnetic = 5;
x = 0;
y = 710;
},
{
angle = 90;
isGlobal = 0;
magnetic = 5;
x = 79;
y = 0;
},
{
angle = 90;
isGlobal = 0;
magnetic = 5;
x = 291;
y = 0;
}
);
};
},
{
color = 3;
glyphname = hbar;
kernLeft = h;
kernRight = n;
layers = (
{
layerId = UUID0;
shapes = (
{
closed = 1;
nodes = (
(259,571,ls),
(272,571,o),
(283,580,o),
(286,593,cs),
(289,607,ls),
(291,620,o),
(284,629,o),
(271,629,cs),
(94,629,ls),
(81,629,o),
(70,620,o),
(68,607,cs),
(65,593,ls),
(62,580,o),
(69,571,o),
(82,571,cs)
);
},
{
ref = h;
}
);
width = 591;
},
{
color = 3;
layerId = "A0D8A2CD-35BA-4362-A7DB-C0E331BFD9A3";
shapes = (
{
closed = 1;
nodes = (
(370,538,ls),
(385,538,o),
(399,550,o),
(403,565,cs),
(413,616,ls),
(417,631,o),
(407,643,o),
(392,643,cs),
(93,643,ls),
(78,643,o),
(64,631,o),
(60,616,cs),
(50,565,ls),
(46,550,o),
(56,538,o),
(71,538,cs)
);
},
{
ref = h;
}
);
width = 685;
}
);
metricRight = h;
unicode = 295;
userData = {
com.typemytype.robofont.guides = (
{
angle = 90;
isGlobal = 0;
magnetic = 5;
x = 189;
y = 0;
},
{
angle = 90;
isGlobal = 0;
magnetic = 5;
x = 110;
y = 0;
}
);
};
},
{
color = 6;
glyphname = i;
kernLeft = i;
kernRight = i;
layers = (
{
anchors = (
{
name = bottom;
pos = (57,0);
},
{
name = top;
pos = (198,710);
}
);
layerId = UUID0;
shapes = (
{
closed = 1;
nodes = (
(58,0,ls),
(71,0,o),
(81,9,o),
(84,22,cs),
(185,498,ls),
(188,511,o),
(181,520,o),
(168,520,cs),
(151,520,ls),
(138,520,o),
(127,511,o),
(124,498,cs),
(23,22,ls),
(20,9,o),
(28,0,o),
(41,0,cs)
);
},
{
closed = 1;
nodes = (
(201,627,ls),
(214,627,o),
(226,636,o),
(228,649,c),
(237,687,l),
(239,700,o),
(231,710,o),
(218,710,cs),
(180,710,ls),
(167,710,o),
(156,700,o),
(154,687,c),
(145,649,l),
(143,636,o),
(150,627,o),
(163,627,cs)
);
}
);
width = 224;
},
{
anchors = (
{
name = bottom;
pos = (107,0);
},
{
name = top;
pos = (257,772);
}
);
color = 6;
layerId = "A0D8A2CD-35BA-4362-A7DB-C0E331BFD9A3";
shapes = (
{
closed = 1;
nodes = (
(189,0,ls),
(204,0,o),
(218,12,o),
(221,27,cs),
(320,493,ls),
(323,508,o),
(314,520,o),
(299,520,cs),
(120,520,ls),
(105,520,o),
(90,508,o),
(87,493,cs),
(-12,27,ls),
(-15,12,o),
(-5,0,o),
(10,0,cs)
);
},
{
closed = 1;
nodes = (
(306,575,ls),
(321,575,o),
(335,587,o),
(338,602,cs),
(364,723,ls),
(367,738,o),
(358,750,o),
(343,750,cs),
(174,750,ls),
(159,750,o),
(144,738,o),
(141,723,cs),
(115,602,ls),
(112,587,o),
(122,575,o),
(137,575,cs)
);
}
);
width = 323;
}
);
unicode = 105;
userData = {
com.typemytype.robofont.guides = (
{
angle = 0;
isGlobal = 0;
magnetic = 5;
x = 0;
y = 510;
},
{
angle = 0;
isGlobal = 0;
magnetic = 5;
x = 0;
y = 22;
},
{
angle = 0;
isGlobal = 0;
magnetic = 5;
x = 0;
y = 627;
},
{
angle = 90;
isGlobal = 0;
magnetic = 5;
x = 79;
y = 0;
},
{
angle = 90;
isGlobal = 0;
magnetic = 5;
x = 121;
y = 0;
},
{
angle = 90;
isGlobal = 0;
magnetic = 5;
x = 70;
y = 0;
},
{
angle = 90;
isGlobal = 0;
magnetic = 5;
x = 131;
y = 0;
}
);
};
},
{
color = 6;
glyphname = idotless;
kernLeft = i;
kernRight = i;
layers = (
{
anchors = (
{
name = bottom;
pos = (57,0);
},
{
name = ogonek;
pos = (91,58);
},
{
name = top;
pos = (160,520);
}
);
layerId = UUID0;
shapes = (
{
closed = 1;
nodes = (
(58,0,ls),
(71,0,o),
(81,9,o),
(84,22,cs),
(185,498,ls),
(188,511,o),
(181,520,o),
(168,520,cs),
(151,520,ls),
(138,520,o),
(127,511,o),
(124,498,cs),
(23,22,ls),
(20,9,o),
(28,0,o),
(41,0,cs)
);
}
);
width = 224;
},
{
anchors = (
{
name = bottom;
pos = (107,0);
},
{
name = ogonek;
pos = (238,123);
},
{
name = top;
pos = (210,520);
}
);
color = 6;
layerId = "A0D8A2CD-35BA-4362-A7DB-C0E331BFD9A3";
shapes = (
{
closed = 1;
nodes = (
(189,0,l),
(204,0,o),
(218,12,o),
(221,27,cs),
(320,493,ls),
(323,508,o),
(314,520,o),
(299,520,cs),
(120,520,ls),
(105,520,o),
(90,508,o),
(87,493,cs),
(-12,27,ls),
(-15,12,o),
(-5,0,o),
(10,0,cs)
);
}
);
width = 323;
}
);
unicode = 305;
},
{
color = 6;
glyphname = iogonek;
kernLeft = i;
kernRight = i;
layers = (
{
layerId = UUID0;
shapes = (
{
closed = 1;
nodes = (
(55,-220,l),
(68,-220,o),
(79,-211,o),
(82,-198,c),
(85,-185,l),
(88,-172,o),
(81,-163,o),
(68,-163,c),
(53,-163,l),
(9,-163,o),
(-17,-133,o),
(-6,-82,cs),
(5,-31,o),
(43,0,o),
(87,0,c),
(92,0,l),
(105,0,o),
(116,9,o),
(119,22,c),
(220,498,l),
(223,511,o),
(216,520,o),
(203,520,c),
(186,520,l),
(173,520,o),
(162,511,o),
(159,498,c),
(67,64,l),
(66,62,o),
(66,60,o),
(66,58,c),
(65,54,l),
(-1,42,o),
(-50,-8,o),
(-66,-82,cs),
(-84,-167,o),
(-45,-220,o),
(36,-220,c)
);
},
{
closed = 1;
nodes = (
(235,627,l),
(248,627,o),
(260,636,o),
(263,649,c),
(271,687,l),
(274,700,o),
(266,710,o),
(253,710,c),
(215,710,l),
(202,710,o),
(191,700,o),
(188,687,c),
(180,649,l),
(177,636,o),
(184,627,o),
(197,627,c)
);
}
);
width = 244;
},
{
color = 6;
hints = (
{
horizontal = 1;
place = (0, 0);
type = Tag;
},
{
horizontal = 1;
place = (0, 0);
type = Tag;
}
);
layerId = "A0D8A2CD-35BA-4362-A7DB-C0E331BFD9A3";
shapes = (
{
closed = 1;
nodes = (
(161,-192,ls),
(176,-192,o),
(191,-180,o),
(194,-165,cs),
(206,-107,ls),
(210,-92,o),
(200,-80,o),
(185,-80,c),
(175,-80,ls),
(136,-80,o),
(129,-61,o),
(134,-40,cs),
(138,-19,o),
(153,0,o),
(192,0,cs),
(202,0,ls),
(217,0,o),
(232,12,o),
(235,27,cs),
(334,493,ls),
(337,508,o),
(328,520,o),
(313,520,cs),
(134,520,ls),
(119,520,o),
(104,508,o),
(101,493,cs),
(2,27,ls),
(-1,12,o),
(8,0,o),
(23,0,cs),
(30,0,l),
(25,-12,o),
(21,-26,o),
(18,-40,cs),
(0,-125,o),
(36,-192,o),
(147,-192,cs)
);
},
{
closed = 1;
nodes = (
(319,575,ls),
(334,575,o),
(349,587,o),
(352,602,cs),
(378,723,ls),
(381,738,o),
(372,750,o),
(357,750,cs),
(188,750,ls),
(173,750,o),
(158,738,o),
(155,723,cs),
(129,602,ls),
(126,587,o),
(135,575,o),
(150,575,cs)
);
}
);
width = 323;
}
);
unicode = 303;
userData = {
com.typemytype.robofont.guides = (
{
angle = 0;
isGlobal = 0;
magnetic = 5;
x = 0;
y = 22;
},
{
angle = 90;
isGlobal = 0;
magnetic = 5;
x = 131;
y = 0;
}
);
};
},
{
color = 6;
glyphname = j;
kernRight = i;
layers = (
{
anchors = (
{
name = top;
pos = (207,710);
}
);
layerId = UUID0;
shapes = (
{
closed = 1;
nodes = (
(-97,-190,ls),
(24,-190,o),
(64,-116,o),
(84,-22,cs),
(194,498,ls),
(197,511,o),
(190,520,o),
(177,520,cs),
(160,520,ls),
(147,520,o),
(136,511,o),
(133,498,cs),
(23,-22,ls),
(10,-83,o),
(-20,-132,o),
(-85,-132,cs),
(-94,-132,ls),
(-107,-132,o),
(-117,-141,o),
(-120,-154,cs),
(-123,-168,ls),
(-126,-181,o),
(-119,-190,o),
(-106,-190,cs)
);
},
{
closed = 1;
nodes = (
(210,627,ls),
(223,627,o),
(235,636,o),
(237,649,c),
(246,687,l),
(248,700,o),
(240,710,o),
(227,710,cs),
(189,710,ls),
(176,710,o),
(165,700,o),
(163,687,c),
(154,649,l),
(152,636,o),
(159,627,o),
(172,627,cs)
);
}
);
width = 234;
},
{
anchors = (
{
name = top;
pos = (277,772);
}
);
color = 6;
layerId = "A0D8A2CD-35BA-4362-A7DB-C0E331BFD9A3";
shapes = (
{
closed = 1;
nodes = (
(-49,-190,ls),
(106,-190,o),
(211,-121,o),
(243,29,cs),
(341,493,ls),
(344,508,o),
(335,520,o),
(320,520,cs),
(132,520,ls),
(117,520,o),
(102,508,o),
(99,493,cs),
(2,35,ls),
(-5,4,o),
(-22,-15,o),
(-52,-15,cs),
(-109,-15,ls),
(-124,-15,o),
(-138,-27,o),
(-141,-42,cs),
(-167,-163,ls),
(-170,-178,o),
(-161,-190,o),
(-146,-190,cs)
);
},
{
closed = 1;
nodes = (
(327,575,ls),
(342,575,o),
(356,587,o),
(359,602,cs),
(385,723,ls),
(388,738,o),
(379,750,o),
(364,750,cs),
(186,750,ls),
(171,750,o),
(156,738,o),
(153,723,cs),
(127,602,ls),
(124,587,o),
(134,575,o),
(149,575,cs)
);
}
);
width = 345;
}
);
unicode = 106;
userData = {
com.typemytype.robofont.guides = (
{
angle = 0;
isGlobal = 0;
magnetic = 5;
x = 0;
y = 740;
},
{
angle = 0;
isGlobal = 0;
magnetic = 5;
x = 0;
y = "-190";
},
{
angle = 90;
isGlobal = 0;
magnetic = 5;
x = "-46";
y = 0;
}
);
};
},
{
color = 6;
glyphname = jdotless;
kernLeft = dotlessj;
kernRight = i;
layers = (
{
anchors = (
{
name = bottom;
pos = (30,-225);
},
{
name = top;
pos = (149,520);
}
);
layerId = UUID0;
shapes = (
{
closed = 1;
nodes = (
(-72,-190,ls),
(50,-190,o),
(95,-116,o),
(115,-22,cs),
(225,498,ls),
(228,511,o),
(221,520,o),
(208,520,cs),
(85,520,ls),
(72,520,o),
(61,511,o),
(58,498,cs),
(55,484,ls),
(52,471,o),
(60,462,o),
(73,462,cs),
(157,462,l),
(54,-22,ls),
(41,-83,o),
(21,-132,o),
(-60,-132,cs),
(-64,-132,ls),
(-77,-132,o),
(-86,-141,o),
(-89,-154,cs),
(-92,-168,ls),
(-95,-181,o),
(-88,-190,o),
(-76,-190,cs)
);
}
);
width = 265;
},
{
anchors = (
{
name = bottom;
pos = (138,-225);
},
{
name = top;
pos = (277,520);
}
);
color = 6;
layerId = "A0D8A2CD-35BA-4362-A7DB-C0E331BFD9A3";
shapes = (
{
closed = 1;
nodes = (
(78,-190,l),
(223,-190,o),
(353,-94,o),
(388,70,cs),
(478,493,ls),
(481,508,o),
(472,520,o),
(457,520,cs),
(99,520,ls),
(84,520,o),
(69,508,o),
(66,493,cs),
(39,364,ls),
(36,349,o),
(45,337,o),
(60,337,cs),
(201,337,l),
(144,70,ls),
(137,39,o),
(121,20,o),
(91,20,cs),
(-10,20,ls),
(-25,20,o),
(-40,8,o),
(-43,-7,cs),
(-75,-163,ls),
(-78,-178,o),
(-69,-190,o),
(-55,-190,cs)
);
}
);
width = 481;
}
);
unicode = 567;
userData = {
com.typemytype.robofont.guides = (
{
angle = 0;
isGlobal = 0;
magnetic = 5;
x = 0;
y = "-190";
},
{
angle = 90;
isGlobal = 0;
magnetic = 5;
x = 45;
y = 0;
}
);
};
},
{
color = 6;
glyphname = k;
kernLeft = h;
kernRight = k;
layers = (
{
anchors = (
{
name = bottom;
pos = (188,0);
},
{
name = top;
pos = (347,750);
}
);
layerId = UUID0;
shapes = (
{
closed = 1;
nodes = (
(58,0,l),
(71,0,o),
(81,9,o),
(84,22,c),
(133,248,l),
(346,15,l),
(352,9,o),
(358,0,o),
(379,0,cs),
(395,0,l),
(412,0,o),
(422,20,o),
(409,34,cs),
(179,288,l),
(473,480,ls),
(498,496,o),
(493,520,o),
(474,520,cs),
(447,520,l),
(427,520,o),
(423,517,o),
(401,503,c),
(152,341,l),
(226,688,l),
(229,701,o),
(221,710,o),
(208,710,c),
(191,710,l),
(178,710,o),
(168,701,o),
(165,688,c),
(23,22,l),
(20,9,o),
(28,0,o),
(41,0,c)
);
}
);
width = 485;
},
{
anchors = (
{
name = bottom;
pos = (270,0);
},
{
name = top;
pos = (429,750);
}
);
color = 6;
layerId = "A0D8A2CD-35BA-4362-A7DB-C0E331BFD9A3";
shapes = (
{
closed = 1;
nodes = (
(185,0,ls),
(200,0,o),
(214,12,o),
(217,27,cs),
(253,203,l),
(327,17,ls),
(331,7,o),
(340,0,o),
(355,0,cs),
(555,0,ls),
(579,0,o),
(590,19,o),
(582,37,cs),
(484,268,l),
(662,481,l),
(677,497,o),
(676,520,o),
(651,520,cs),
(439,520,ls),
(421,520,o),
(410,508,o),
(406,503,cs),
(288,359,l),
(357,683,ls),
(360,698,o),
(350,710,o),
(335,710,cs),
(160,710,ls),
(145,710,o),
(131,698,o),
(128,683,cs),
(-12,27,ls),
(-15,12,o),
(-5,0,o),
(10,0,cs)
);
}
);
width = 650;
}
);
unicode = 107;
userData = {
com.typemytype.robofont.guides = (
{
angle = 0;
isGlobal = 0;
magnetic = 5;
x = 0;
y = 520;
},
{
angle = 0;
isGlobal = 0;
magnetic = 5;
x = 0;
y = 710;
},
{
angle = 0;
isGlobal = 0;
magnetic = 5;
x = 0;
y = 260;
},
{
angle = 90;
isGlobal = 0;
magnetic = 5;
x = 460;
y = 0;
},
{
angle = 90;
isGlobal = 0;
magnetic = 5;
x = 430;
y = 0;
}
);
};
},
{
color = 6;
glyphname = kgreenlandic;
kernLeft = n;
kernRight = k;
layers = (
{
anchors = (
{
name = bottom;
pos = (189,0);
},
{
name = top;
pos = (299,520);
}
);
layerId = UUID0;
shapes = (
{
closed = 1;
nodes = (
(71,0,ls),
(84,0,o),
(95,9,o),
(98,22,cs),
(138,212,l),
(346,17,l),
(360,4,o),
(364,0,o),
(384,0,cs),
(402,0,ls),
(414,0,o),
(424,8,o),
(426,20,cs),
(428,25,o),
(425,33,o),
(418,40,cs),
(184,260,l),
(491,480,l),
(503,487,o),
(507,495,o),
(508,500,cs),
(511,512,o),
(505,520,o),
(493,520,cs),
(477,520,ls),
(457,520,o),
(453,517,o),
(431,503,c),
(159,308,l),
(199,498,ls),
(202,511,o),
(195,520,o),
(182,520,cs),
(165,520,ls),
(152,520,o),
(141,511,o),
(138,498,cs),
(37,22,ls),
(34,9,o),
(41,0,o),
(54,0,cs)
);
}
);
width = 488;
},
{
anchors = (
{
name = bottom;
pos = (267,0);
},
{
name = top;
pos = (377,520);
}
);
color = 6;
hints = (
{
horizontal = 1;
place = (0, 0);
type = Tag;
}
);
layerId = "A0D8A2CD-35BA-4362-A7DB-C0E331BFD9A3";
shapes = (
{
closed = 1;
nodes = (
(198,0,ls),
(213,0,o),
(228,12,o),
(231,27,cs),
(265,187,l),
(331,17,ls),
(332,14,o),
(338,0,o),
(358,0,cs),
(568,0,ls),
(581,0,o),
(595,11,o),
(597,24,cs),
(599,30,o),
(597,34,o),
(596,37,cs),
(493,266,l),
(665,481,ls),
(668,484,o),
(672,490,o),
(674,496,cs),
(676,509,o),
(668,520,o),
(655,520,cs),
(463,520,ls),
(445,520,o),
(434,508,o),
(430,503,cs),
(295,329,l),
(330,493,ls),
(333,508,o),
(324,520,o),
(309,520,cs),
(134,520,ls),
(119,520,o),
(104,508,o),
(101,493,cs),
(2,27,ls),
(-1,12,o),
(8,0,o),
(23,0,cs)
);
}
);
width = 643;
}
);
unicode = 312;
userData = {
com.typemytype.robofont.guides = (
{
angle = 0;
isGlobal = 0;
magnetic = 5;
x = 0;
y = 520;
},
{
angle = 0;
isGlobal = 0;
magnetic = 5;
x = 0;
y = 260;
}
);
};
},
{
color = 6;
glyphname = l;
kernLeft = l;
kernRight = l;
layers = (
{
anchors = (
{
name = bottom;
pos = (50,0);
},
{
name = center;
pos = (137,375);
},
{
name = top;
pos = (205,675);
},
{
name = topright;
pos = (287,710);
}
);
layerId = UUID0;
shapes = (
{
closed = 1;
nodes = (
(58,0,ls),
(71,0,o),
(81,9,o),
(84,22,cs),
(226,688,ls),
(229,701,o),
(221,710,o),
(208,710,cs),
(191,710,ls),
(178,710,o),
(168,701,o),
(165,688,cs),
(23,22,ls),
(20,9,o),
(28,0,o),
(41,0,cs)
);
}
);
width = 225;
},
{
anchors = (
{
name = bottom;
pos = (104,0);
},
{
name = center;
pos = (186,375);
},
{
name = top;
pos = (252,675);
},
{
name = topright;
pos = (426,710);
}
);
color = 6;
layerId = "A0D8A2CD-35BA-4362-A7DB-C0E331BFD9A3";
shapes = (
{
closed = 1;
nodes = (
(189,0,ls),
(204,0,o),
(218,12,o),
(221,27,cs),
(361,683,ls),
(364,698,o),
(354,710,o),
(339,710,cs),
(160,710,ls),
(145,710,o),
(131,698,o),
(128,683,cs),
(-12,27,ls),
(-15,12,o),
(-5,0,o),
(10,0,cs)
);
}
);
width = 324;
}
);
unicode = 108;
userData = {
com.typemytype.robofont.guides = (
{
angle = 0;
isGlobal = 0;
magnetic = 5;
x = 0;
y = 9;
},
{
angle = 0;
isGlobal = 0;
magnetic = 5;
x = 0;
y = 710;
}
);
};
},
{
color = 6;
glyphname = lslash;
kernLeft = l;
kernRight = l;
layers = (
{
layerId = UUID0;
shapes = (
{
closed = 1;
nodes = (
(84,0,ls),
(97,0,o),
(108,9,o),
(111,22,cs),
(179,341,l),
(231,360,ls),
(248,366,o),
(255,370,o),
(258,385,cs),
(262,404,ls),
(265,416,o),
(258,422,o),
(247,422,cs),
(243,422,o),
(239,421,o),
(233,419,cs),
(192,404,l),
(252,688,ls),
(255,701,o),
(248,710,o),
(235,710,cs),
(218,710,ls),
(205,710,o),
(194,701,o),
(191,688,cs),
(126,381,l),
(74,363,ls),
(57,357,o),
(50,353,o),
(47,338,cs),
(43,319,ls),
(40,307,o),
(47,301,o),
(58,301,cs),
(62,301,o),
(66,302,o),
(72,304,cs),
(113,318,l),
(50,22,ls),
(47,9,o),
(54,0,o),
(67,0,cs)
);
}
);
width = 247;
},
{
color = 6;
hints = (
{
horizontal = 1;
place = (0, 0);
type = Tag;
}
);
layerId = "A0D8A2CD-35BA-4362-A7DB-C0E331BFD9A3";
shapes = (
{
closed = 1;
nodes = (
(241,0,ls),
(256,0,o),
(271,12,o),
(274,27,cs),
(336,319,l),
(377,334,ls),
(394,340,o),
(402,349,o),
(406,367,cs),
(429,475,ls),
(432,487,o),
(425,496,o),
(413,496,cs),
(411,496,o),
(406,495,o),
(401,493,cs),
(371,482,l),
(413,683,ls),
(417,698,o),
(407,710,o),
(392,710,cs),
(213,710,ls),
(198,710,o),
(184,698,o),
(180,683,cs),
(118,391,l),
(77,377,ls),
(60,371,o),
(52,362,o),
(48,344,cs),
(25,236,ls),
(23,224,o),
(30,215,o),
(42,215,cs),
(44,215,o),
(48,216,o),
(54,218,cs),
(84,229,l),
(41,27,ls),
(38,12,o),
(47,0,o),
(62,0,cs)
);
}
);
width = 400;
}
);
unicode = 322;
userData = {
com.typemytype.robofont.guides = (
{
angle = 0;
isGlobal = 0;
magnetic = 5;
x = 0;
y = 355;
},
{
angle = 90;
isGlobal = 0;
magnetic = 5;
x = 231;
y = 0;
},
{
angle = 90;
isGlobal = 0;
magnetic = 5;
x = 100;
y = 0;
},
{
angle = 90;
isGlobal = 0;
magnetic = 5;
x = 30;
y = 0;
}
);
};
},
{
color = 6;
glyphname = m;
kernLeft = n;
kernRight = n;
layers = (
{
anchors = (
{
name = bottom;
pos = (385,0);
},
{
name = top;
pos = (495,520);
}
);
layerId = UUID0;
shapes = (
{
closed = 1;
nodes = (
(58,0,ls),
(71,0,o),
(81,9,o),
(84,22,cs),
(144,304,ls),
(172,434,o),
(262,472,o),
(323,472,cs),
(390,472,o),
(441,434,o),
(413,303,cs),
(353,22,ls),
(350,9,o),
(358,0,o),
(371,0,cs),
(388,0,ls),
(401,0,o),
(411,9,o),
(414,22,cs),
(474,303,ls),
(502,434,o),
(592,472,o),
(653,472,cs),
(725,472,o),
(771,434,o),
(743,303,cs),
(683,22,ls),
(680,9,o),
(688,0,o),
(701,0,cs),
(718,0,ls),
(731,0,o),
(741,9,o),
(744,22,cs),
(806,313,ls),
(836,456,o),
(761,530,o),
(655,530,cs),
(578,530,o),
(518,493,o),
(475,436,c),
(457,497,o),
(400,530,o),
(325,530,cs),
(259,530,o),
(220,506,o),
(178,463,c),
(185,498,ls),
(188,511,o),
(181,520,o),
(168,520,cs),
(151,520,ls),
(138,520,o),
(127,511,o),
(124,498,cs),
(23,22,ls),
(20,9,o),
(28,0,o),
(41,0,cs)
);
}
);
width = 879;
},
{
anchors = (
{
name = bottom;
pos = (414,0);
},
{
name = top;
pos = (524,520);
}
);
color = 6;
layerId = "A0D8A2CD-35BA-4362-A7DB-C0E331BFD9A3";
shapes = (
{
closed = 1;
nodes = (
(190,0,ls),
(205,0,o),
(219,12,o),
(222,27,cs),
(281,302,ls),
(287,333,o),
(306,351,o),
(331,351,cs),
(356,351,o),
(367,334,o),
(361,302,c),
(302,27,ls),
(299,12,o),
(309,0,o),
(324,0,cs),
(500,0,ls),
(515,0,o),
(529,12,o),
(532,27,cs),
(591,302,l),
(597,334,o),
(615,351,o),
(640,351,cs),
(665,351,o),
(676,334,o),
(670,302,c),
(611,27,ls),
(608,12,o),
(618,0,o),
(633,0,cs),
(809,0,ls),
(824,0,o),
(838,12,o),
(841,27,cs),
(901,307,ls),
(934,465,o),
(865,530,o),
(754,530,cs),
(683,530,o),
(635,494,o),
(594,448,c),
(575,497,o),
(533,530,o),
(453,530,cs),
(371,530,o),
(329,490,o),
(299,460,c),
(306,493,ls),
(309,508,o),
(300,520,o),
(285,520,cs),
(120,520,ls),
(105,520,o),
(90,508,o),
(87,493,cs),
(-12,27,ls),
(-15,12,o),
(-5,0,o),
(10,0,cs)
);
}
);
width = 938;
}
);
unicode = 109;
},
{
color = 6;
glyphname = n;
kernLeft = n;
kernRight = n;
layers = (
{
anchors = (
{
name = bottom;
pos = (237,0);
},
{
name = top;
pos = (344,520);
}
);
layerId = UUID0;
shapes = (
{
closed = 1;
nodes = (
(58,0,ls),
(71,0,o),
(81,9,o),
(84,22,cs),
(143,301,ls),
(166,408,o),
(246,472,o),
(351,472,cs),
(460,472,o),
(477,414,o),
(453,301,cs),
(394,22,ls),
(391,9,o),
(399,0,o),
(412,0,cs),
(429,0,ls),
(442,0,o),
(452,9,o),
(455,22,cs),
(516,306,ls),
(543,433,o),
(503,530,o),
(351,530,cs),
(275,530,o),
(216,497,o),
(175,451,c),
(185,498,ls),
(188,511,o),
(181,520,o),
(168,520,cs),
(151,520,ls),
(138,520,o),
(127,511,o),
(124,498,cs),
(23,22,ls),
(20,9,o),
(28,0,o),
(41,0,cs)
);
}
);
width = 590;
},
{
anchors = (
{
name = bottom;
pos = (282,0);
},
{
name = top;
pos = (379,520);
}
);
color = 6;
layerId = "A0D8A2CD-35BA-4362-A7DB-C0E331BFD9A3";
shapes = (
{
closed = 1;
nodes = (
(200,0,ls),
(215,0,o),
(229,12,o),
(232,27,cs),
(289,296,ls),
(297,332,o),
(319,351,o),
(351,351,cs),
(383,351,o),
(397,332,o),
(389,296,cs),
(332,27,ls),
(329,12,o),
(339,0,o),
(354,0,cs),
(545,0,ls),
(560,0,o),
(574,12,o),
(577,27,cs),
(636,303,ls),
(670,461,o),
(591,530,o),
(480,530,cs),
(409,530,o),
(351,499,o),
(309,460,c),
(316,493,ls),
(319,508,o),
(310,520,o),
(295,520,cs),
(120,520,ls),
(105,520,o),
(90,508,o),
(87,493,cs),
(-12,27,ls),
(-15,12,o),
(-5,0,o),
(10,0,cs)
);
}
);
width = 674;
}
);
unicode = 110;
userData = {
com.typemytype.robofont.guides = (
{
angle = 0;
isGlobal = 0;
magnetic = 5;
x = 0;
y = 530;
},
{
angle = 0;
isGlobal = 0;
magnetic = 5;
x = 0;
y = 301;
},
{
angle = 0;
isGlobal = 0;
magnetic = 5;
x = 0;
y = 650;
},
{
angle = 0;
isGlobal = 0;
magnetic = 5;
x = 0;
y = 407;
},
{
angle = 0;
isGlobal = 0;
magnetic = 5;
x = 0;
y = 451;
},
{
angle = 90;
isGlobal = 0;
magnetic = 5;
x = 291;
y = 0;
},
{
angle = 90;
isGlobal = 0;
magnetic = 5;
x = 131;
y = 0;
}
);
};
},
{
color = 3;
glyphname = napostrophe;
kernLeft = n;
kernRight = n;
layers = (
{
layerId = UUID0;
shapes = (
{
closed = 1;
nodes = (
(65,570,ls),
(80,570,o),
(86,578,o),
(95,591,c),
(157,696,ls),
(161,703,o),
(164,709,o),
(165,714,cs),
(167,722,o),
(163,730,o),
(154,730,cs),
(109,730,ls),
(93,730,o),
(84,719,o),
(78,703,cs),
(37,591,ls),
(33,579,o),
(36,570,o),
(47,570,cs)
);
},
{
ref = n;
}
);
width = 590;
},
{
color = 3;
layerId = "A0D8A2CD-35BA-4362-A7DB-C0E331BFD9A3";
shapes = (
{
closed = 1;
nodes = (
(62,550,ls),
(88,550,o),
(104,569,o),
(112,582,cs),
(196,721,ls),
(198,724,o),
(198,726,o),
(199,728,cs),
(201,740,o),
(194,750,o),
(182,750,cs),
(42,750,ls),
(15,750,o),
(-3,729,o),
(-10,711,c),
(-60,572,l),
(-63,560,o),
(-55,550,o),
(-43,550,cs)
);
},
{
ref = n;
}
);
width = 674;
}
);
metricRight = n;
unicode = 329;
userData = {
com.typemytype.robofont.guides = (
{
angle = 0;
isGlobal = 0;
magnetic = 5;
x = 0;
y = 575;
},
{
angle = 90;
isGlobal = 0;
magnetic = 5;
x = 286;
y = 0;
}
);
};
},
{
color = 6;
glyphname = eng;
kernLeft = n;
kernRight = n;
layers = (
{
layerId = UUID0;
shapes = (
{
closed = 1;
nodes = (
(252,-225,l),
(389,-225,o),
(418,-151,o),
(438,-57,c),
(516,306,l),
(543,433,o),
(503,530,o),
(351,530,cs),
(275,530,o),
(216,497,o),
(175,451,c),
(185,498,l),
(188,511,o),
(181,520,o),
(168,520,c),
(151,520,l),
(138,520,o),
(127,511,o),
(124,498,c),
(23,22,ls),
(20,9,o),
(28,0,o),
(41,0,cs),
(58,0,l),
(71,0,o),
(81,9,o),
(84,22,c),
(143,301,l),
(166,408,o),
(246,472,o),
(351,472,cs),
(460,472,o),
(477,414,o),
(453,301,c),
(377,-57,l),
(364,-118,o),
(342,-167,o),
(264,-167,c),
(260,-167,l),
(247,-167,o),
(236,-176,o),
(233,-189,c),
(230,-203,l),
(227,-216,o),
(235,-225,o),
(248,-225,c)
);
}
);
width = 590;
},
{
color = 6;
layerId = "A0D8A2CD-35BA-4362-A7DB-C0E331BFD9A3";
shapes = (
{
closed = 1;
nodes = (
(212,-225,ls),
(404,-225,o),
(541,-142,o),
(582,48,cs),
(636,303,ls),
(669,461,o),
(591,530,o),
(480,530,cs),
(409,530,o),
(351,499,o),
(309,460,c),
(316,493,ls),
(319,508,o),
(310,520,o),
(295,520,cs),
(120,520,ls),
(105,520,o),
(90,508,o),
(87,493,cs),
(-12,27,ls),
(-15,12,o),
(-5,0,o),
(10,0,cs),
(200,0,ls),
(215,0,o),
(229,12,o),
(232,27,cs),
(289,296,ls),
(297,332,o),
(319,351,o),
(351,351,cs),
(383,351,o),
(397,332,o),
(389,296,cs),
(339,59,ls),
(326,-2,o),
(298,-22,o),
(255,-22,cs),
(216,-22,ls),
(201,-22,o),
(186,-34,o),
(183,-49,c),
(151,-198,ls),
(148,-213,o),
(158,-225,o),
(173,-225,cs)
);
}
);
width = 674;
}
);
unicode = 331;
userData = {
com.typemytype.robofont.guides = (
{
angle = 0;
isGlobal = 0;
magnetic = 5;
x = 0;
y = "-300";
},
{
angle = 90;
isGlobal = 0;
magnetic = 5;
x = 225;
y = 0;
}
);
};
},
{
color = 6;
glyphname = o;
kernLeft = o;
kernRight = o;
layers = (
{
anchors = (
{
name = bottom;
pos = (223,0);
},
{
name = center;
pos = (278,260);
},
{
name = ogonek;
pos = (447,10);
},
{
name = top;
pos = (327,520);
},
{
name = topright;
pos = (591,520);
}
);
layerId = UUID0;
shapes = (
{
closed = 1;
nodes = (
(363,-10,o),
(451,89,o),
(483,218,cs),
(488,238,o),
(497,282,o),
(501,302,cs),
(524,431,o),
(464,530,o),
(321,530,cs),
(176,530,o),
(88,431,o),
(57,302,c),
(51,282,o),
(42,238,o),
(39,218,c),
(15,89,o),
(79,-10,o),
(218,-10,cs)
);
},
{
closed = 1;
nodes = (
(122,48,o),
(81,109,o),
(101,223,cs),
(104,243,o),
(111,277,o),
(117,297,c),
(145,411,o),
(227,472,o),
(321,472,cs),
(416,472,o),
(459,411,o),
(439,297,cs),
(435,277,o),
(428,243,o),
(423,223,cs),
(395,109,o),
(312,48,o),
(218,48,cs)
);
}
);
width = 556;
},
{
anchors = (
{
name = bottom;
pos = (266,0);
},
{
name = center;
pos = (321,260);
},
{
name = ogonek;
pos = (524,10);
},
{
name = top;
pos = (362,520);
},
{
name = topright;
pos = (676,520);
}
);
color = 6;
layerId = "A0D8A2CD-35BA-4362-A7DB-C0E331BFD9A3";
shapes = (
{
closed = 1;
nodes = (
(459,-10,o),
(552,66,o),
(593,213,cs),
(601,243,o),
(608,277,o),
(613,307,cs),
(634,454,o),
(523,530,o),
(360,530,cs),
(177,530,o),
(74,454,o),
(33,307,cs),
(24,277,o),
(17,243,o),
(13,213,cs),
(-8,66,o),
(91,-10,o),
(265,-10,cs)
);
},
{
closed = 1;
nodes = (
(251,150,o),
(252,171,o),
(259,218,cs),
(262,238,o),
(271,282,o),
(277,302,cs),
(289,346,o),
(298,370,o),
(336,370,cs),
(374,370,o),
(374,346,o),
(367,302,cs),
(364,282,o),
(354,238,o),
(349,218,cs),
(336,171,o),
(327,150,o),
(289,150,cs)
);
}
);
width = 641;
}
);
unicode = 111;
userData = {
com.typemytype.robofont.guides = (
{
angle = 0;
isGlobal = 0;
magnetic = 5;
x = 0;
y = 302;
},
{
angle = 0;
isGlobal = 0;
magnetic = 5;
x = 0;
y = 218;
},
{
angle = 0;
isGlobal = 0;
magnetic = 5;
x = 0;
y = 411;
},
{
angle = 0;
isGlobal = 0;
magnetic = 5;
x = 0;
y = 109;
},
{
angle = 90;
isGlobal = 0;
magnetic = 5;
x = 278;
y = 0;
},
{
angle = 90;
isGlobal = 0;
magnetic = 5;
x = 56;
y = 0;
},
{
angle = 90;
isGlobal = 0;
magnetic = 5;
x = 500;
y = 0;
}
);
};
},
{
color = 6;
glyphname = oe;
kernLeft = o;
kernRight = e;
layers = (
{
anchors = (
{
name = bottom;
pos = (411,0);
},
{
name = top;
pos = (521,520);
}
);
layerId = UUID0;
shapes = (
{
closed = 1;
nodes = (
(325,-10,o),
(398,33,o),
(447,101,c),
(468,32,o),
(524,-10,o),
(611,-10,cs),
(732,-10,o),
(828,73,o),
(838,111,cs),
(841,123,o),
(833,131,o),
(821,131,cs),
(805,131,ls),
(790,131,o),
(787,130,o),
(771,113,cs),
(757,97,o),
(703,48,o),
(623,48,cs),
(526,48,o),
(488,134,o),
(503,225,cs),
(505,235,l),
(861,235,ls),
(874,235,o),
(886,244,o),
(889,257,cs),
(892,272,ls),
(926,432,o),
(865,530,o),
(726,530,cs),
(638,530,o),
(565,487,o),
(514,418,c),
(495,486,o),
(440,530,o),
(344,530,cs),
(200,530,o),
(105,431,o),
(73,302,cs),
(68,282,o),
(59,238,o),
(56,218,cs),
(32,89,o),
(85,-10,o),
(229,-10,cs)
);
},
{
closed = 1;
nodes = (
(148,48,o),
(97,109,o),
(118,223,cs),
(121,243,o),
(128,277,o),
(133,297,cs),
(162,411,o),
(239,472,o),
(332,472,cs),
(425,472,o),
(476,411,o),
(455,297,cs),
(452,277,o),
(445,243,o),
(440,223,cs),
(411,109,o),
(334,48,o),
(241,48,cs)
);
},
{
closed = 1;
nodes = (
(518,295,ls),
(539,395,o),
(614,472,o),
(714,472,cs),
(814,472,o),
(857,395,o),
(836,295,cs),
(835,291,l),
(517,291,l)
);
}
);
width = 931;
},
{
anchors = (
{
name = bottom;
pos = (427,0);
},
{
name = top;
pos = (537,520);
}
);
color = 6;
hints = (
{
horizontal = 1;
place = (0, 0);
type = Tag;
},
{
horizontal = 1;
place = (0, 0);
type = Tag;
},
{
horizontal = 1;
place = (0, 0);
type = Tag;
},
{
horizontal = 1;
place = (0, 0);
type = Tag;
}
);
layerId = "A0D8A2CD-35BA-4362-A7DB-C0E331BFD9A3";
shapes = (
{
closed = 1;
nodes = (
(340,-10,o),
(399,1,o),
(448,22,c),
(487,0,o),
(540,-10,o),
(603,-10,cs),
(788,-10,o),
(893,94,o),
(907,145,cs),
(911,158,o),
(903,167,o),
(890,167,c),
(701,167,l),
(685,167,o),
(679,165,o),
(665,153,cs),
(651,142,o),
(644,135,o),
(632,135,cs),
(603,135,o),
(597,156,o),
(606,196,c),
(607,201,l),
(905,201,l),
(920,201,o),
(934,213,o),
(938,228,c),
(944,258,l),
(975,405,o),
(913,530,o),
(717,530,cs),
(655,530,o),
(599,518,o),
(550,494,c),
(509,518,o),
(453,530,o),
(385,530,cs),
(212,530,o),
(89,454,o),
(47,307,cs),
(39,277,o),
(32,243,o),
(27,213,cs),
(6,66,o),
(86,-10,o),
(270,-10,cs)
);
},
{
closed = 1;
nodes = (
(266,150,o),
(267,171,o),
(274,218,cs),
(277,238,o),
(286,282,o),
(291,302,cs),
(304,346,o),
(313,370,o),
(351,370,cs),
(389,370,o),
(388,346,o),
(381,302,cs),
(378,282,o),
(369,238,o),
(364,218,cs),
(351,171,o),
(342,150,o),
(304,150,cs)
);
},
{
closed = 1;
nodes = (
(634,327,l),
(643,371,o),
(661,390,o),
(687,390,cs),
(713,390,o),
(723,371,o),
(714,327,c),
(714,326,l),
(634,326,l)
);
}
);
width = 963;
}
);
unicode = 339;
userData = {
com.typemytype.robofont.guides = (
{
angle = 90;
isGlobal = 0;
magnetic = 5;
x = 51;
y = 0;
},
{
angle = 90;
isGlobal = 0;
magnetic = 5;
x = 495;
y = 0;
}
);
};
},
{
color = 6;
glyphname = p;
kernLeft = n;
kernRight = b;
layers = (
{
anchors = (
{
name = bottom;
pos = (235,0);
},
{
name = top;
pos = (345,520);
}
);
layerId = UUID0;
shapes = (
{
closed = 1;
nodes = (
(18,-190,ls),
(31,-190,o),
(41,-181,o),
(44,-168,cs),
(95,69,l),
(118,25,o),
(161,-10,o),
(249,-10,c),
(410,-10,o),
(481,116,o),
(511,232,cs),
(516,252,o),
(520,268,o),
(523,288,cs),
(541,405,o),
(507,530,o),
(352,530,cs),
(264,530,o),
(218,496,o),
(176,451,c),
(186,498,ls),
(189,511,o),
(181,520,o),
(168,520,cs),
(151,520,ls),
(138,520,o),
(128,511,o),
(125,498,cs),
(-17,-168,ls),
(-20,-181,o),
(-12,-190,o),
(1,-190,cs)
);
},
{
closed = 1;
nodes = (
(138,48,o),
(111,138,o),
(126,218,cs),
(130,238,o),
(138,276,o),
(143,296,cs),
(163,378,o),
(238,472,o),
(352,472,cs),
(461,472,o),
(476,384,o),
(461,288,cs),
(458,268,o),
(455,252,o),
(449,232,cs),
(421,137,o),
(358,48,o),
(249,48,cs)
);
}
);
width = 579;
},
{
anchors = (
{
name = bottom;
pos = (276,0);
},
{
name = top;
pos = (386,520);
}
);
color = 6;
layerId = "A0D8A2CD-35BA-4362-A7DB-C0E331BFD9A3";
shapes = (
{
closed = 1;
nodes = (
(154,-190,ls),
(169,-190,o),
(184,-178,o),
(187,-163,cs),
(232,50,l),
(253,7,o),
(306,-10,o),
(362,-10,cs),
(478,-10,o),
(574,63,o),
(613,220,cs),
(621,250,o),
(625,269,o),
(630,299,cs),
(659,466,o),
(573,530,o),
(457,530,cs),
(388,530,o),
(343,502,o),
(305,463,c),
(311,493,ls),
(314,508,o),
(305,520,o),
(290,520,cs),
(120,520,ls),
(105,520,o),
(90,508,o),
(87,493,cs),
(-52,-163,ls),
(-55,-178,o),
(-46,-190,o),
(-31,-190,cs)
);
},
{
closed = 1;
nodes = (
(273,169,o),
(263,187,o),
(268,219,cs),
(272,249,o),
(275,263,o),
(284,293,cs),
(293,329,o),
(309,351,o),
(346,351,cs),
(383,351,o),
(387,329,o),
(384,293,cs),
(382,273,o),
(376,247,o),
(370,227,cs),
(358,191,o),
(344,169,o),
(307,169,cs)
);
}
);
width = 661;
}
);
unicode = 112;
userData = {
com.typemytype.robofont.guides = (
{
angle = 0;
isGlobal = 0;
magnetic = 5;
x = 0;
y = 530;
},
{
angle = 0;
isGlobal = 0;
magnetic = 5;
x = 0;
y = "-10";
},
{
angle = 0;
isGlobal = 0;
magnetic = 5;
x = 0;
y = 422;
},
{
angle = 0;
isGlobal = 0;
magnetic = 5;
x = 0;
y = "-190";
},
{
angle = 90;
isGlobal = 0;
magnetic = 5;
x = 419;
y = 0;
},
{
angle = 90;
isGlobal = 0;
magnetic = 5;
x = "-609";
y = 0;
},
{
angle = 90;
isGlobal = 0;
magnetic = 5;
x = 79;
y = 0;
},
{
angle = 90;
isGlobal = 0;
magnetic = 5;
x = 122;
y = 0;
},
{
angle = 90;
isGlobal = 0;
magnetic = 5;
x = 291;
y = 0;
}
);
};
},
{
color = 6;
glyphname = thorn;
kernLeft = h;
kernRight = b;
layers = (
{
anchors = (
{
name = bottom;
pos = (235,0);
},
{
name = top;
pos = (345,520);
}
);
layerId = UUID0;
shapes = (
{
closed = 1;
nodes = (
(18,-190,l),
(31,-190,o),
(41,-181,o),
(44,-168,cs),
(95,69,l),
(118,25,o),
(161,-10,o),
(249,-10,cs),
(410,-10,o),
(481,116,o),
(511,232,cs),
(516,252,o),
(520,268,o),
(523,288,cs),
(541,405,o),
(507,530,o),
(352,530,cs),
(264,530,o),
(214,494,o),
(176,451,c),
(227,688,l),
(230,702,o),
(222,710,o),
(209,710,c),
(192,710,l),
(179,710,o),
(169,701,o),
(166,688,c),
(-17,-168,l),
(-20,-181,o),
(-12,-190,o),
(1,-190,c)
);
},
{
closed = 1;
nodes = (
(138,48,o),
(111,138,o),
(126,218,cs),
(130,238,o),
(138,276,o),
(143,296,cs),
(163,378,o),
(238,472,o),
(352,472,cs),
(461,472,o),
(476,384,o),
(461,288,cs),
(458,268,o),
(455,252,o),
(449,232,cs),
(421,137,o),
(358,48,o),
(249,48,cs)
);
}
);
width = 579;
},
{
anchors = (
{
name = bottom;
pos = (276,0);
},
{
name = top;
pos = (386,520);
}
);
color = 6;
layerId = "A0D8A2CD-35BA-4362-A7DB-C0E331BFD9A3";
shapes = (
{
closed = 1;
nodes = (
(154,-190,ls),
(169,-190,o),
(184,-178,o),
(187,-163,cs),
(232,50,l),
(253,10,o),
(306,-10,o),
(362,-10,cs),
(478,-10,o),
(574,63,o),
(613,220,cs),
(621,250,o),
(625,269,o),
(630,299,cs),
(659,466,o),
(573,530,o),
(457,530,cs),
(388,530,o),
(351,504,o),
(322,473,c),
(367,683,ls),
(370,698,o),
(360,710,o),
(345,710,cs),
(160,710,ls),
(145,710,o),
(131,698,o),
(128,683,cs),
(-52,-163,ls),
(-55,-178,o),
(-46,-190,o),
(-31,-190,cs)
);
},
{
closed = 1;
nodes = (
(273,169,o),
(263,187,o),
(268,219,cs),
(272,249,o),
(275,263,o),
(284,293,cs),
(293,329,o),
(309,351,o),
(346,351,cs),
(383,351,o),
(387,329,o),
(384,293,cs),
(382,273,o),
(376,247,o),
(370,227,cs),
(358,191,o),
(344,169,o),
(307,169,cs)
);
}
);
width = 661;
}
);
unicode = 254;
userData = {
com.typemytype.robofont.guides = (
{
angle = 0;
isGlobal = 0;
magnetic = 5;
x = 0;
y = 710;
}
);
};
},
{
color = 6;
glyphname = q;
kernLeft = d;
kernRight = u;
layers = (
{
anchors = (
{
name = bottom;
pos = (235,0);
},
{
name = top;
pos = (345,520);
}
);
layerId = UUID0;
shapes = (
{
closed = 1;
nodes = (
(372,-190,ls),
(385,-190,o),
(396,-181,o),
(399,-168,cs),
(540,498,ls),
(543,511,o),
(536,520,o),
(523,520,cs),
(506,520,ls),
(493,520,o),
(482,511,o),
(479,498,cs),
(469,451,l),
(446,496,o),
(398,530,o),
(315,530,cs),
(159,530,o),
(83,410,o),
(54,293,cs),
(49,273,o),
(43,247,o),
(40,227,cs),
(22,110,o),
(57,-10,o),
(213,-10,cs),
(296,-10,o),
(346,25,o),
(388,69,c),
(338,-168,ls),
(335,-181,o),
(342,-190,o),
(355,-190,cs)
);
},
{
closed = 1;
nodes = (
(96,48,o),
(87,136,o),
(102,232,cs),
(105,252,o),
(108,268,o),
(114,288,cs),
(142,383,o),
(204,472,o),
(315,472,cs),
(429,472,o),
(451,378,o),
(436,296,cs),
(433,276,o),
(425,238,o),
(420,218,cs),
(401,138,o),
(324,48,o),
(213,48,cs)
);
}
);
width = 580;
},
{
anchors = (
{
name = bottom;
pos = (276,0);
},
{
name = top;
pos = (386,520);
}
);
color = 6;
layerId = "A0D8A2CD-35BA-4362-A7DB-C0E331BFD9A3";
shapes = (
{
closed = 1;
nodes = (
(486,-190,ls),
(501,-190,o),
(516,-178,o),
(519,-163,cs),
(658,493,ls),
(661,508,o),
(652,520,o),
(637,520,cs),
(467,520,ls),
(452,520,o),
(437,508,o),
(434,493,cs),
(428,463,l),
(406,502,o),
(353,530,o),
(284,530,cs),
(168,530,o),
(76,466,o),
(33,299,cs),
(26,269,o),
(22,250,o),
(16,220,c),
(-11,63,o),
(73,-10,o),
(189,-10,cs),
(245,-10,o),
(286,7,o),
(325,50,c),
(280,-163,ls),
(277,-178,o),
(286,-190,o),
(301,-190,cs)
);
},
{
closed = 1;
nodes = (
(263,169,o),
(259,191,o),
(263,227,cs),
(265,247,o),
(271,273,o),
(277,293,cs),
(288,329,o),
(302,351,o),
(339,351,cs),
(376,351,o),
(382,329,o),
(377,293,cs),
(372,263,o),
(369,249,o),
(361,219,cs),
(352,187,o),
(334,169,o),
(300,169,cs)
);
}
);
width = 661;
}
);
unicode = 113;
userData = {
com.typemytype.robofont.guides = (
{
angle = 0;
isGlobal = 0;
magnetic = 5;
x = 0;
y = 530;
},
{
angle = 0;
isGlobal = 0;
magnetic = 5;
x = 0;
y = "-10";
},
{
angle = 0;
isGlobal = 0;
magnetic = 5;
x = 0;
y = "-190";
}
);
};
},
{
color = 6;
glyphname = r;
kernLeft = n;
kernRight = r;
layers = (
{
anchors = (
{
name = bottom;
pos = (47,0);
},
{
name = top;
pos = (245,520);
}
);
layerId = UUID0;
shapes = (
{
closed = 1;
nodes = (
(57,0,ls),
(70,0,o),
(81,9,o),
(84,22,cs),
(150,332,ls),
(167,412,o),
(228,462,o),
(308,462,cs),
(351,462,ls),
(364,462,o),
(374,471,o),
(377,484,cs),
(380,498,ls),
(383,511,o),
(376,520,o),
(363,520,cs),
(326,520,ls),
(259,520,o),
(206,497,o),
(175,451,c),
(185,497,ls),
(188,510,o),
(180,520,o),
(167,520,cs),
(151,520,ls),
(138,520,o),
(127,510,o),
(124,497,cs),
(23,22,ls),
(20,9,o),
(28,0,o),
(41,0,cs)
);
}
);
width = 350;
},
{
anchors = (
{
name = bottom;
pos = (114,0);
},
{
name = top;
pos = (317,520);
}
);
color = 6;
layerId = "A0D8A2CD-35BA-4362-A7DB-C0E331BFD9A3";
shapes = (
{
closed = 1;
nodes = (
(200,0,ls),
(215,0,o),
(229,12,o),
(232,27,cs),
(280,250,ls),
(289,290,o),
(312,310,o),
(352,310,cs),
(481,310,ls),
(496,310,o),
(511,322,o),
(514,337,cs),
(547,493,ls),
(550,508,o),
(541,520,o),
(526,520,cs),
(458,520,ls),
(383,520,o),
(342,494,o),
(309,458,c),
(316,493,ls),
(319,508,o),
(310,520,o),
(295,520,cs),
(120,520,ls),
(105,520,o),
(90,508,o),
(87,493,cs),
(-12,27,ls),
(-15,12,o),
(-5,0,o),
(10,0,cs)
);
}
);
width = 519;
}
);
unicode = 114;
userData = {
com.typemytype.robofont.guides = (
{
angle = 0;
isGlobal = 0;
magnetic = 5;
x = 0;
y = 462;
}
);
};
},
{
color = 6;
glyphname = s;
kernLeft = s;
kernRight = s;
layers = (
{
anchors = (
{
name = bottom;
pos = (211,0);
},
{
name = top;
pos = (290,520);
}
);
layerId = UUID0;
shapes = (
{
closed = 1;
nodes = (
(325,-10,o),
(409,59,o),
(426,139,cs),
(442,214,o),
(410,259,o),
(288,288,cs),
(168,317,o),
(146,340,o),
(156,385,cs),
(167,435,o),
(213,472,o),
(293,472,cs),
(373,472,o),
(390,443,o),
(405,411,cs),
(408,403,o),
(413,398,o),
(424,398,cs),
(439,398,ls),
(451,398,o),
(464,407,o),
(465,420,cs),
(470,449,o),
(435,530,o),
(305,530,cs),
(185,530,o),
(110,455,o),
(95,385,cs),
(81,320,o),
(98,270,o),
(218,241,cs),
(338,212,o),
(376,194,o),
(365,139,cs),
(352,79,o),
(287,48,o),
(207,48,cs),
(127,48,o),
(99,79,o),
(81,114,cs),
(75,126,o),
(70,127,o),
(62,127,cs),
(47,127,ls),
(38,127,o),
(23,120,o),
(21,105,cs),
(17,78,o),
(55,-10,o),
(195,-10,cs)
);
}
);
width = 492;
},
{
anchors = (
{
name = bottom;
pos = (240,0);
},
{
name = top;
pos = (330,520);
}
);
color = 6;
hints = (
{
horizontal = 1;
place = (0, 0);
type = Tag;
},
{
horizontal = 1;
place = (0, 0);
type = Tag;
}
);
layerId = "A0D8A2CD-35BA-4362-A7DB-C0E331BFD9A3";
shapes = (
{
closed = 1;
nodes = (
(418,-10,o),
(532,55,o),
(555,162,cs),
(569,230,o),
(535,309,o),
(395,330,cs),
(295,345,o),
(291,357,o),
(295,374,cs),
(297,383,o),
(308,390,o),
(318,390,cs),
(347,390,o),
(356,360,o),
(385,360,cs),
(388,360,o),
(392,360,o),
(395,360,c),
(553,360,ls),
(565,360,o),
(578,372,o),
(580,387,cs),
(590,444,o),
(514,530,o),
(349,530,cs),
(184,530,o),
(78,445,o),
(60,359,cs),
(37,254,o),
(118,209,o),
(207,192,cs),
(302,174,o),
(305,162,o),
(301,145,cs),
(299,135,o),
(286,130,o),
(275,130,cs),
(244,130,o),
(235,157,o),
(209,160,cs),
(208,160,o),
(206,160,o),
(205,160,cs),
(31,160,ls),
(17,160,o),
(4,148,o),
(1,133,cs),
(-7,80,o),
(46,-10,o),
(238,-10,cs)
);
}
);
width = 590;
}
);
unicode = 115;
userData = {
com.typemytype.robofont.guides = (
{
angle = 0;
isGlobal = 0;
magnetic = 5;
x = 0;
y = 265;
},
{
angle = 0;
isGlobal = 0;
magnetic = 5;
x = 0;
y = 139;
},
{
angle = 90;
isGlobal = 0;
magnetic = 5;
x = 250;
y = 0;
}
);
};
},
{
color = 6;
glyphname = scedilla;
kernLeft = s;
kernRight = s;
layers = (
{
layerId = UUID0;
shapes = (
{
closed = 1;
nodes = (
(233,-221,o),
(273,-180,o),
(283,-132,cs),
(293,-84,o),
(269,-50,o),
(225,-50,cs),
(215,-50,o),
(205,-52,o),
(196,-54,c),
(219,-10,l),
(335,-2,o),
(410,63,o),
(426,139,cs),
(442,214,o),
(410,259,o),
(288,288,cs),
(168,317,o),
(146,340,o),
(156,385,cs),
(167,435,o),
(213,472,o),
(293,472,cs),
(373,472,o),
(390,443,o),
(405,411,cs),
(408,403,o),
(413,398,o),
(424,398,cs),
(439,398,ls),
(451,398,o),
(464,407,o),
(465,420,cs),
(470,449,o),
(435,530,o),
(305,530,cs),
(185,530,o),
(110,455,o),
(95,385,cs),
(81,320,o),
(98,270,o),
(218,241,cs),
(338,212,o),
(376,194,o),
(365,139,cs),
(352,79,o),
(287,48,o),
(207,48,cs),
(127,48,o),
(99,79,o),
(81,114,cs),
(75,126,o),
(70,127,o),
(62,127,cs),
(47,127,ls),
(38,127,o),
(23,120,o),
(21,105,cs),
(16,79,o),
(49,3,o),
(168,-8,c),
(143,-52,ls),
(137,-62,o),
(131,-75,o),
(137,-83,cs),
(149,-100,ls),
(161,-116,o),
(178,-96,o),
(197,-96,cs),
(220,-96,o),
(237,-110,o),
(232,-134,cs),
(226,-159,o),
(203,-174,o),
(180,-174,cs),
(136,-174,o),
(136,-140,o),
(116,-156,cs),
(99,-169,ls),
(80,-184,o),
(114,-219,o),
(170,-220,cs)
);
}
);
width = 492;
},
{
color = 6;
hints = (
{
horizontal = 1;
place = (0, 0);
type = Tag;
}
);
layerId = "A0D8A2CD-35BA-4362-A7DB-C0E331BFD9A3";
shapes = (
{
closed = 1;
nodes = (
(283,-220,o),
(330,-183,o),
(342,-130,cs),
(353,-77,o),
(331,-40,o),
(280,-40,cs),
(276,-40,o),
(257,-42,o),
(249,-45,c),
(274,-9,l),
(434,0,o),
(533,63,o),
(555,162,cs),
(569,230,o),
(535,309,o),
(395,330,cs),
(295,345,o),
(291,357,o),
(295,374,cs),
(297,383,o),
(308,390,o),
(318,390,cs),
(347,390,o),
(356,360,o),
(385,360,cs),
(388,360,o),
(390,360,o),
(393,360,cs),
(553,360,ls),
(565,360,o),
(578,372,o),
(580,387,cs),
(590,444,o),
(514,530,o),
(349,530,cs),
(184,530,o),
(78,445,o),
(60,359,cs),
(37,254,o),
(118,209,o),
(207,192,cs),
(302,174,o),
(305,162,o),
(301,145,cs),
(299,135,o),
(286,130,o),
(275,130,cs),
(242,130,o),
(234,160,o),
(205,160,cs),
(202,160,o),
(200,160,o),
(197,160,cs),
(31,160,ls),
(17,160,o),
(4,148,o),
(1,133,cs),
(-7,82,o),
(40,5,o),
(211,-9,c),
(182,-52,ls),
(169,-71,o),
(170,-76,o),
(177,-85,cs),
(194,-106,ls),
(204,-119,o),
(230,-106,o),
(248,-106,cs),
(268,-106,o),
(273,-118,o),
(271,-130,cs),
(268,-142,o),
(256,-154,o),
(237,-154,cs),
(203,-154,o),
(202,-136,o),
(182,-151,cs),
(157,-169,ls),
(130,-189,o),
(170,-220,o),
(223,-220,cs)
);
}
);
width = 590;
}
);
unicode = 351;
},
{
color = 6;
glyphname = germandbls;
kernLeft = h;
layers = (
{
anchors = (
{
name = bottom;
pos = (229,0);
},
{
name = top;
pos = (339,520);
}
);
layerId = UUID0;
shapes = (
{
closed = 1;
nodes = (
(72,0,ls),
(85,0,o),
(96,9,o),
(99,22,cs),
(200,497,ls),
(222,601,o),
(289,652,o),
(374,652,cs),
(459,652,o),
(505,600,o),
(489,528,cs),
(473,449,o),
(417,406,o),
(317,405,cs),
(262,405,ls),
(249,405,o),
(238,396,o),
(236,383,cs),
(233,369,ls),
(230,356,o),
(237,347,o),
(250,347,cs),
(315,347,ls),
(424,347,o),
(466,283,o),
(449,202,cs),
(432,122,o),
(363,58,o),
(254,58,c),
(189,58,ls),
(176,58,o),
(165,49,o),
(162,36,cs),
(159,22,ls),
(156,9,o),
(163,0,o),
(176,0,cs),
(251,0,ls),
(407,0,o),
(491,113,o),
(510,202,cs),
(525,272,o),
(517,347,o),
(428,377,c),
(472,395,o),
(532,442,o),
(550,528,cs),
(569,613,o),
(531,710,o),
(386,710,cs),
(241,710,o),
(163,611,o),
(140,502,cs),
(38,22,ls),
(35,9,o),
(42,0,o),
(55,0,cs)
);
}
);
width = 568;
},
{
anchors = (
{
name = bottom;
pos = (286,0);
},
{
name = top;
pos = (396,520);
}
);
color = 6;
hints = (
{
horizontal = 1;
place = (0, 0);
type = Tag;
}
);
layerId = "A0D8A2CD-35BA-4362-A7DB-C0E331BFD9A3";
shapes = (
{
closed = 1;
nodes = (
(201,0,ls),
(216,0,o),
(231,12,o),
(234,27,c),
(326,459,ls),
(338,518,o),
(367,541,o),
(406,541,c),
(445,541,o),
(464,518,o),
(458,489,cs),
(452,460,o),
(421,439,o),
(383,438,c),
(380,438,l),
(355,438,o),
(349,426,o),
(346,411,cs),
(325,313,ls),
(322,298,o),
(327,286,o),
(348,286,c),
(350,286,l),
(396,286,o),
(416,262,o),
(408,227,cs),
(401,191,o),
(367,168,o),
(329,168,c),
(327,168,l),
(306,169,o),
(291,156,o),
(288,141,cs),
(264,27,ls),
(261,12,o),
(270,0,o),
(291,0,c),
(326,0,l),
(520,0,o),
(630,113,o),
(652,216,cs),
(671,303,o),
(645,348,o),
(597,375,c),
(645,407,o),
(671,447,o),
(683,502,cs),
(705,608,o),
(648,709,o),
(442,710,c),
(236,709,o),
(123,598,o),
(92,452,cs),
(2,27,ls),
(-1,12,o),
(8,0,o),
(23,0,cs)
);
}
);
width = 682;
}
);
unicode = 223;
userData = {
com.typemytype.robofont.guides = (
{
angle = 0;
isGlobal = 0;
magnetic = 5;
x = 0;
y = 527;
},
{
angle = 0;
isGlobal = 0;
magnetic = 5;
x = 0;
y = 601;
},
{
angle = 90;
isGlobal = 0;
magnetic = 5;
x = 267;
y = 0;
},
{
angle = 90;
isGlobal = 0;
magnetic = 5;
x = 499;
y = 0;
}
);
};
},
{
color = 6;
glyphname = longs;
layers = (
{
anchors = (
{
name = bottom;
pos = (80,0);
},
{
name = top;
pos = (190,520);
}
);
layerId = UUID0;
shapes = (
{
closed = 1;
nodes = (
(102,0,ls),
(115,0,o),
(125,9,o),
(128,22,c),
(245,572,ls),
(260,643,o),
(295,682,o),
(365,682,cs),
(410,682,ls),
(423,682,o),
(434,691,o),
(437,704,cs),
(440,718,ls),
(443,731,o),
(436,740,o),
(423,740,cs),
(365,740,ls),
(261,740,o),
(204,666,o),
(185,577,cs),
(173,520,l),
(84,520,l),
(71,520,o),
(60,511,o),
(57,498,c),
(54,484,ls),
(51,471,o),
(59,462,o),
(72,462,cs),
(161,462,l),
(67,22,ls),
(64,9,o),
(72,0,o),
(85,0,cs)
);
}
);
width = 269;
},
{
anchors = (
{
name = bottom;
pos = (138,0);
},
{
name = top;
pos = (248,520);
}
);
color = 6;
layerId = "A0D8A2CD-35BA-4362-A7DB-C0E331BFD9A3";
shapes = (
{
closed = 1;
nodes = (
(251,0,ls),
(266,0,o),
(280,12,o),
(283,27,cs),
(391,532,ls),
(395,553,o),
(411,565,o),
(441,565,cs),
(522,565,ls),
(537,565,o),
(551,577,o),
(554,592,cs),
(580,713,ls),
(583,728,o),
(574,740,o),
(559,740,cs),
(446,740,ls),
(301,740,o),
(198,701,o),
(163,537,cs),
(159,520,l),
(90,520,ls),
(75,520,o),
(60,508,o),
(57,493,cs),
(32,372,l),
(28,357,o),
(38,345,o),
(53,345,cs),
(122,345,l),
(54,27,ls),
(51,12,o),
(61,0,o),
(76,0,cs)
);
}
);
width = 386;
}
);
unicode = 383;
},
{
color = 6;
glyphname = t;
kernLeft = t;
kernRight = t;
layers = (
{
anchors = (
{
name = bottom;
pos = (161,0);
},
{
name = center;
pos = (169,293);
},
{
name = top;
pos = (231,520);
},
{
name = topright;
pos = (365,770);
}
);
layerId = UUID0;
shapes = (
{
closed = 1;
nodes = (
(247,0,ls),
(260,0,o),
(270,9,o),
(273,22,cs),
(276,36,ls),
(279,49,o),
(272,58,o),
(259,58,cs),
(199,58,ls),
(124,58,o),
(134,100,o),
(149,171,cs),
(211,462,l),
(335,462,ls),
(348,462,o),
(358,471,o),
(361,484,cs),
(364,498,ls),
(367,511,o),
(360,520,o),
(347,520,cs),
(223,520,l),
(259,688,ls),
(262,701,o),
(254,710,o),
(241,710,cs),
(224,710,ls),
(211,710,o),
(201,701,o),
(198,688,cs),
(162,520,l),
(84,520,ls),
(71,520,o),
(60,511,o),
(57,498,cs),
(54,484,ls),
(51,471,o),
(59,462,o),
(72,462,cs),
(150,462,l),
(87,167,ls),
(67,73,o),
(68,0,o),
(198,0,cs)
);
}
);
width = 351;
},
{
anchors = (
{
name = bottom;
pos = (259,0);
},
{
name = center;
pos = (229,260);
},
{
name = top;
pos = (320,520);
},
{
name = topright;
pos = (532,810);
}
);
color = 6;
layerId = "A0D8A2CD-35BA-4362-A7DB-C0E331BFD9A3";
shapes = (
{
closed = 1;
nodes = (
(415,0,ls),
(430,0,o),
(444,12,o),
(447,27,cs),
(475,158,ls),
(478,173,o),
(469,185,o),
(454,185,cs),
(363,185,ls),
(333,185,o),
(323,204,o),
(330,235,cs),
(354,345,l),
(480,345,ls),
(495,345,o),
(510,357,o),
(513,372,cs),
(538,493,ls),
(541,508,o),
(532,520,o),
(517,520,cs),
(391,520,l),
(426,683,ls),
(429,698,o),
(419,710,o),
(404,710,cs),
(229,710,ls),
(214,710,o),
(200,698,o),
(197,683,cs),
(162,520,l),
(83,520,ls),
(68,520,o),
(53,508,o),
(50,493,cs),
(25,372,ls),
(22,357,o),
(31,345,o),
(46,345,cs),
(125,345,l),
(97,215,ls),
(62,51,o),
(167,0,o),
(312,0,cs)
);
}
);
width = 529;
}
);
unicode = 116;
userData = {
com.typemytype.robofont.guides = (
{
angle = 0;
isGlobal = 0;
magnetic = 5;
x = 0;
y = 175;
},
{
angle = 90;
isGlobal = 0;
magnetic = 5;
x = 342;
y = 0;
},
{
angle = 90;
isGlobal = 0;
magnetic = 5;
x = 35;
y = 0;
}
);
};
},
{
color = 6;
glyphname = tbar;
kernLeft = t;
kernRight = t;
layers = (
{
layerId = UUID0;
shapes = (
{
closed = 1;
nodes = (
(253,0,l),
(266,0,o),
(276,9,o),
(279,22,c),
(282,36,l),
(285,49,o),
(278,58,o),
(265,58,c),
(205,58,l),
(130,58,o),
(140,100,o),
(155,171,c),
(183,304,l),
(307,304,l),
(320,304,o),
(331,313,o),
(334,326,c),
(337,340,l),
(340,353,o),
(332,362,o),
(319,362,c),
(195,362,l),
(217,462,l),
(341,462,l),
(354,462,o),
(365,471,o),
(367,484,c),
(370,498,l),
(373,511,o),
(366,520,o),
(353,520,c),
(229,520,l),
(265,688,l),
(268,701,o),
(260,710,o),
(247,710,c),
(230,710,l),
(217,710,o),
(207,701,o),
(204,688,c),
(168,520,l),
(90,520,l),
(77,520,o),
(66,511,o),
(63,498,c),
(60,484,l),
(58,471,o),
(65,462,o),
(78,462,c),
(156,462,l),
(134,362,l),
(56,362,l),
(43,362,o),
(33,353,o),
(30,340,cs),
(27,326,ls),
(24,313,o),
(31,304,o),
(44,304,cs),
(122,304,l),
(93,167,l),
(73,73,o),
(74,0,o),
(204,0,c)
);
}
);
width = 359;
},
{
color = 6;
layerId = "A0D8A2CD-35BA-4362-A7DB-C0E331BFD9A3";
shapes = (
{
closed = 1;
nodes = (
(417,0,ls),
(432,0,o),
(446,12,o),
(449,27,cs),
(477,158,ls),
(480,173,o),
(471,185,o),
(456,185,cs),
(365,185,ls),
(335,185,o),
(326,204,o),
(332,235,cs),
(339,265,l),
(465,265,ls),
(480,265,o),
(494,277,o),
(498,292,cs),
(508,343,ls),
(512,358,o),
(502,370,o),
(487,370,cs),
(361,370,l),
(371,415,l),
(497,415,ls),
(512,415,o),
(526,427,o),
(529,442,cs),
(540,493,ls),
(543,508,o),
(534,520,o),
(519,520,cs),
(393,520,l),
(428,683,ls),
(431,698,o),
(421,710,o),
(406,710,cs),
(231,710,ls),
(216,710,o),
(202,698,o),
(199,683,cs),
(164,520,l),
(85,520,ls),
(70,520,o),
(55,508,o),
(52,493,cs),
(41,442,ls),
(38,427,o),
(48,415,o),
(63,415,cs),
(142,415,l),
(132,370,l),
(53,370,ls),
(38,370,o),
(24,358,o),
(20,343,cs),
(10,292,ls),
(6,277,o),
(16,265,o),
(31,265,cs),
(110,265,l),
(99,215,ls),
(64,51,o),
(159,0,o),
(304,0,cs)
);
}
);
width = 531;
}
);
unicode = 359;
userData = {
com.typemytype.robofont.guides = (
{
angle = 90;
isGlobal = 0;
magnetic = 5;
x = 342;
y = 0;
}
);
};
},
{
color = 6;
glyphname = u;
kernLeft = u;
kernRight = u;
layers = (
{
anchors = (
{
name = bottom;
pos = (238,0);
},
{
name = ogonek;
pos = (453,57);
},
{
name = top;
pos = (328,520);
},
{
name = topright;
pos = (621,520);
}
);
layerId = UUID0;
shapes = (
{
closed = 1;
nodes = (
(313,-10,o),
(349,22,o),
(395,69,c),
(385,22,ls),
(382,9,o),
(390,0,o),
(403,0,cs),
(420,0,ls),
(433,0,o),
(443,9,o),
(446,22,cs),
(547,498,ls),
(550,511,o),
(543,520,o),
(530,520,cs),
(513,520,ls),
(500,520,o),
(489,511,o),
(486,498,cs),
(427,219,ls),
(404,112,o),
(322,48,o),
(222,48,cs),
(112,48,o),
(97,106,o),
(121,219,cs),
(180,498,ls),
(183,511,o),
(176,520,o),
(163,520,cs),
(146,520,ls),
(133,520,o),
(122,511,o),
(119,498,cs),
(59,214,ls),
(32,87,o),
(69,-10,o),
(222,-10,cs)
);
}
);
width = 586;
},
{
anchors = (
{
name = bottom;
pos = (282,0);
},
{
name = ogonek;
pos = (553,10);
},
{
name = top;
pos = (375,520);
},
{
name = topright;
pos = (708,520);
}
);
color = 6;
layerId = "A0D8A2CD-35BA-4362-A7DB-C0E331BFD9A3";
shapes = (
{
closed = 1;
nodes = (
(259,-10,o),
(306,11,o),
(349,60,c),
(342,27,ls),
(339,12,o),
(349,0,o),
(364,0,cs),
(539,0,ls),
(554,0,o),
(568,12,o),
(571,27,cs),
(670,493,ls),
(673,508,o),
(664,520,o),
(649,520,cs),
(459,520,ls),
(444,520,o),
(429,508,o),
(426,493,cs),
(369,224,ls),
(361,188,o),
(339,169,o),
(307,169,cs),
(275,169,o),
(261,188,o),
(269,224,cs),
(326,493,ls),
(329,508,o),
(320,520,o),
(305,520,cs),
(114,520,ls),
(99,520,o),
(84,508,o),
(81,493,cs),
(23,217,l),
(-11,59,o),
(77,-10,o),
(178,-10,cs)
);
}
);
width = 673;
}
);
unicode = 117;
userData = {
com.typemytype.robofont.guides = (
{
angle = 0;
isGlobal = 0;
magnetic = 5;
x = 0;
y = "-10";
},
{
angle = 90;
isGlobal = 0;
magnetic = 5;
x = 432;
y = 0;
},
{
angle = 90;
isGlobal = 0;
magnetic = 5;
x = 126;
y = 0;
},
{
angle = 90;
isGlobal = 0;
magnetic = 5;
x = 65;
y = 0;
}
);
};
},
{
color = 6;
glyphname = uogonek;
kernLeft = u;
kernRight = u;
layers = (
{
hints = (
{
horizontal = 1;
place = (-370, 0);
type = Tag;
}
);
layerId = UUID0;
shapes = (
{
closed = 1;
nodes = (
(386,-220,ls),
(399,-220,o),
(410,-211,o),
(413,-198,cs),
(416,-185,ls),
(419,-172,o),
(412,-163,o),
(399,-163,cs),
(394,-163,ls),
(360,-163,o),
(342,-141,o),
(353,-90,cs),
(363,-45,o),
(389,-21,o),
(436,-2,c),
(439,0,l),
(452,6,o),
(458,14,o),
(460,22,cs),
(561,498,ls),
(564,511,o),
(557,520,o),
(544,520,cs),
(527,520,ls),
(514,520,o),
(503,511,o),
(500,498,cs),
(441,219,ls),
(418,112,o),
(342,48,o),
(247,48,cs),
(147,48,o),
(111,106,o),
(135,219,cs),
(194,498,ls),
(197,511,o),
(190,520,o),
(177,520,cs),
(160,520,ls),
(147,520,o),
(136,511,o),
(133,498,cs),
(73,214,ls),
(46,87,o),
(89,-10,o),
(225,-10,cs),
(311,-10,o),
(363,22,o),
(409,69,c),
(403,43,l),
(403,40,o),
(402,38,o),
(402,35,c),
(362,18,o),
(307,-26,o),
(293,-90,cs),
(275,-175,o),
(316,-220,o),
(377,-220,cs)
);
}
);
width = 585;
},
{
color = 6;
layerId = "A0D8A2CD-35BA-4362-A7DB-C0E331BFD9A3";
shapes = (
{
closed = 1;
nodes = (
(506,-220,ls),
(521,-220,o),
(536,-208,o),
(539,-193,cs),
(554,-125,ls),
(557,-110,o),
(547,-98,o),
(532,-98,cs),
(522,-98,ls),
(483,-98,o),
(478,-70,o),
(483,-49,cs),
(487,-29,o),
(503,-2,o),
(537,0,c),
(553,0,ls),
(568,0,o),
(583,12,o),
(586,27,cs),
(685,493,ls),
(688,508,o),
(679,520,o),
(664,520,cs),
(474,520,ls),
(459,520,o),
(444,508,o),
(441,493,cs),
(384,224,ls),
(376,188,o),
(354,169,o),
(322,169,cs),
(290,169,o),
(276,188,o),
(284,224,cs),
(341,493,ls),
(344,508,o),
(335,520,o),
(320,520,cs),
(129,520,ls),
(114,520,o),
(99,508,o),
(96,493,cs),
(37,217,ls),
(4,59,o),
(82,-10,o),
(183,-10,cs),
(254,-10,o),
(321,11,o),
(364,60,c),
(357,27,ls),
(354,14,o),
(361,3,o),
(372,0,c),
(366,-15,o),
(360,-32,o),
(357,-49,cs),
(337,-144,o),
(371,-220,o),
(492,-220,cs)
);
}
);
width = 674;
}
);
unicode = 371;
userData = {
com.typemytype.robofont.guides = (
{
angle = 0;
isGlobal = 0;
magnetic = 5;
x = 0;
y = 213;
},
{
angle = 90;
isGlobal = 0;
magnetic = 5;
x = 493;
y = 0;
}
);
};
},
{
color = 6;
glyphname = v;
layers = (
{
anchors = (
{
name = bottom;
pos = (212,0);
},
{
name = top;
pos = (322,520);
}
);
layerId = UUID0;
shapes = (
{
closed = 1;
nodes = (
(214,0,ls),
(235,0,o),
(245,10,o),
(254,25,c),
(536,489,ls),
(548,508,o),
(537,520,o),
(525,520,cs),
(501,520,ls),
(488,520,o),
(479,510,o),
(476,505,c),
(215,73,l),
(139,498,l),
(136,515,o),
(128,520,o),
(116,520,cs),
(97,520,ls),
(86,520,o),
(75,513,o),
(78,496,cs),
(163,25,l),
(166,10,o),
(172,0,o),
(193,0,c)
);
}
);
width = 533;
},
{
anchors = (
{
name = bottom;
pos = (261,0);
},
{
name = top;
pos = (371,520);
}
);
color = 6;
layerId = "A0D8A2CD-35BA-4362-A7DB-C0E331BFD9A3";
shapes = (
{
closed = 1;
nodes = (
(334,0,ls),
(354,0,o),
(363,13,o),
(372,25,c),
(662,489,ls),
(671,503,o),
(666,520,o),
(646,520,cs),
(467,520,ls),
(447,520,o),
(435,507,o),
(429,496,cs),
(299,263,l),
(269,496,ls),
(267,507,o),
(261,520,o),
(241,520,cs),
(82,520,ls),
(58,520,o),
(49,505,o),
(52,489,cs),
(146,25,l),
(149,13,o),
(154,0,o),
(174,0,cs)
);
}
);
width = 632;
}
);
unicode = 118;
userData = {
com.typemytype.robofont.guides = (
{
angle = 90;
isGlobal = 0;
magnetic = 5;
x = 267;
y = 0;
}
);
};
},
{
color = 6;
glyphname = w;
kernLeft = w;
kernRight = w;
layers = (
{
anchors = (
{
name = bottom;
pos = (338,0);
},
{
name = top;
pos = (428,520);
}
);
layerId = UUID0;
shapes = (
{
closed = 1;
nodes = (
(171,0,ls),
(189,0,o),
(201,8,o),
(210,25,cs),
(417,419,l),
(461,25,ls),
(463,8,o),
(472,0,o),
(490,0,cs),
(509,0,ls),
(527,0,o),
(537,7,o),
(546,25,cs),
(785,493,ls),
(792,507,o),
(790,520,o),
(772,520,cs),
(748,520,ls),
(735,520,o),
(728,510,o),
(726,505,cs),
(514,89,l),
(469,500,ls),
(468,508,o),
(464,520,o),
(447,520,cs),
(423,520,ls),
(406,520,o),
(398,508,o),
(394,500,c),
(178,89,l),
(141,505,ls),
(140,514,o),
(134,520,o),
(121,520,cs),
(104,520,ls),
(87,520,o),
(80,509,o),
(81,497,cs),
(124,25,ls),
(126,8,o),
(133,0,o),
(151,0,cs)
);
}
);
width = 786;
},
{
anchors = (
{
name = bottom;
pos = (381,0);
},
{
name = top;
pos = (473,520);
}
);
color = 6;
layerId = "A0D8A2CD-35BA-4362-A7DB-C0E331BFD9A3";
shapes = (
{
closed = 1;
nodes = (
(261,0,ls),
(281,0,o),
(292,13,o),
(299,25,cs),
(414,227,l),
(452,25,ls),
(454,13,o),
(460,0,o),
(480,0,cs),
(614,0,ls),
(634,0,o),
(646,13,o),
(652,25,cs),
(896,488,l),
(903,502,o),
(898,520,o),
(880,520,cs),
(716,520,ls),
(696,520,o),
(682,507,o),
(677,496,cs),
(572,288,l),
(551,496,ls),
(550,507,o),
(542,520,o),
(522,520,cs),
(429,520,ls),
(409,520,o),
(396,507,o),
(390,496,cs),
(281,288,l),
(264,496,ls),
(263,507,o),
(255,520,o),
(235,520,cs),
(86,520,ls),
(70,520,o),
(54,504,o),
(56,488,cs),
(104,25,ls),
(105,13,o),
(112,0,o),
(132,0,cs)
);
}
);
width = 872;
}
);
unicode = 119;
userData = {
com.typemytype.robofont.guides = (
{
angle = 90;
isGlobal = 0;
magnetic = 5;
x = 45;
y = 0;
},
{
angle = 90;
isGlobal = 0;
magnetic = 5;
x = 737;
y = 0;
}
);
};
},
{
color = 6;
glyphname = x;
layers = (
{
anchors = (
{
name = bottom;
pos = (204,0);
},
{
name = top;
pos = (314,520);
}
);
layerId = UUID0;
shapes = (
{
closed = 1;
nodes = (
(15,0,l),
(35,0,o),
(42,9,o),
(48,15,c),
(243,212,l),
(354,15,ls),
(358,8,o),
(366,0,o),
(379,0,c),
(398,0,l),
(416,0,o),
(421,17,o),
(413,31,cs),
(289,253,l),
(518,485,ls),
(534,501,o),
(519,521,o),
(505,520,c),
(489,520,l),
(469,520,o),
(462,511,o),
(456,505,c),
(258,306,l),
(146,505,l),
(142,512,o),
(135,520,o),
(122,520,c),
(103,520,l),
(85,520,o),
(80,501,o),
(87,489,c),
(213,266,l),
(-17,34,ls),
(-30,21,o),
(-20,0,o),
(-3,0,cs)
);
}
);
width = 517;
},
{
anchors = (
{
name = bottom;
pos = (261,0);
},
{
name = top;
pos = (371,520);
}
);
color = 6;
layerId = "A0D8A2CD-35BA-4362-A7DB-C0E331BFD9A3";
shapes = (
{
closed = 1;
nodes = (
(160,0,l),
(178,0,o),
(188,11,o),
(193,17,c),
(280,113,l),
(324,17,l),
(328,10,o),
(333,0,o),
(351,0,c),
(533,0,l),
(557,0,o),
(568,20,o),
(560,37,c),
(457,262,l),
(654,483,l),
(666,495,o),
(664,520,o),
(642,520,c),
(450,520,l),
(430,520,o),
(419,507,o),
(414,501,c),
(340,419,l),
(302,501,l),
(299,507,o),
(294,520,o),
(274,520,c),
(97,520,l),
(79,520,o),
(63,500,o),
(69,483,c),
(165,275,l),
(-50,37,l),
(-61,23,o),
(-58,0,o),
(-37,0,c)
);
}
);
width = 631;
}
);
unicode = 120;
userData = {
com.typemytype.robofont.guides = (
{
angle = 90;
isGlobal = 0;
magnetic = 5;
x = 255;
y = 0;
}
);
};
},
{
color = 6;
glyphname = y;
kernLeft = y;
kernRight = y;
layers = (
{
anchors = (
{
name = bottom;
pos = (212,0);
},
{
name = top;
pos = (308,520);
}
);
layerId = UUID0;
shapes = (
{
closed = 1;
nodes = (
(86,-190,l),
(99,-190,o),
(107,-183,o),
(112,-175,cs),
(543,491,ls),
(555,509,o),
(541,520,o),
(530,520,cs),
(506,520,l),
(493,520,o),
(485,513,o),
(480,505,c),
(223,108,l),
(138,505,ls),
(136,514,o),
(130,520,o),
(117,520,c),
(99,520,l),
(80,520,o),
(75,507,o),
(78,494,c),
(176,35,l),
(53,-157,ls),
(41,-175,o),
(48,-190,o),
(63,-190,cs)
);
}
);
width = 534;
},
{
anchors = (
{
name = bottom;
pos = (268,0);
},
{
name = top;
pos = (378,520);
}
);
color = 6;
layerId = "A0D8A2CD-35BA-4362-A7DB-C0E331BFD9A3";
shapes = (
{
closed = 1;
nodes = (
(219,-190,ls),
(239,-190,o),
(252,-178,o),
(259,-166,cs),
(680,489,l),
(687,502,o),
(684,520,o),
(665,520,cs),
(488,520,ls),
(468,520,o),
(456,508,o),
(449,496,cs),
(311,268,l),
(272,496,ls),
(270,507,o),
(265,520,o),
(245,520,cs),
(86,520,ls),
(64,520,o),
(52,505,o),
(55,489,cs),
(152,33,l),
(31,-159,ls),
(22,-173,o),
(29,-190,o),
(45,-190,cs)
);
}
);
width = 646;
}
);
unicode = 121;
},
{
color = 6;
glyphname = z;
kernLeft = z;
kernRight = z;
layers = (
{
anchors = (
{
name = bottom;
pos = (188,0);
},
{
name = center;
pos = (243,260);
},
{
name = top;
pos = (290,520);
}
);
layerId = UUID0;
shapes = (
{
closed = 1;
nodes = (
(366,0,ls),
(379,0,o),
(389,9,o),
(392,22,cs),
(395,36,ls),
(398,49,o),
(391,58,o),
(378,58,cs),
(72,58,l),
(460,462,ls),
(466,468,o),
(469,473,o),
(470,481,cs),
(473,498,ls),
(475,511,o),
(469,520,o),
(456,520,cs),
(120,520,ls),
(107,520,o),
(96,511,o),
(93,498,cs),
(90,484,ls),
(87,471,o),
(95,462,o),
(108,462,cs),
(384,462,l),
(-5,58,ls),
(-10,52,o),
(-12,48,o),
(-14,39,cs),
(-18,22,ls),
(-21,9,o),
(-13,0,o),
(0,0,cs)
);
}
);
width = 486;
},
{
anchors = (
{
name = bottom;
pos = (241,0);
},
{
name = center;
pos = (296,260);
},
{
name = top;
pos = (351,520);
}
);
color = 6;
layerId = "A0D8A2CD-35BA-4362-A7DB-C0E331BFD9A3";
shapes = (
{
closed = 1;
nodes = (
(471,0,ls),
(486,0,o),
(500,12,o),
(503,27,cs),
(528,145,ls),
(532,160,o),
(522,172,o),
(507,172,cs),
(319,172,l),
(534,338,l),
(545,346,o),
(552,355,o),
(555,367,cs),
(581,493,ls),
(584,508,o),
(575,520,o),
(560,520,cs),
(118,520,ls),
(103,520,o),
(88,508,o),
(85,493,cs),
(60,375,ls),
(57,360,o),
(66,348,o),
(81,348,cs),
(252,348,l),
(27,177,ls),
(16,169,o),
(7,158,o),
(4,142,cs),
(-21,27,ls),
(-24,12,o),
(-14,0,o),
(1,0,cs)
);
}
);
width = 591;
}
);
unicode = 122;
userData = {
com.typemytype.robofont.guides = (
{
angle = 0;
isGlobal = 0;
magnetic = 5;
x = 0;
y = 36;
},
{
angle = 90;
isGlobal = 0;
magnetic = 5;
x = 480;
y = 0;
},
{
angle = 90;
isGlobal = 0;
magnetic = 5;
x = 70;
y = 0;
}
);
};
},
{
color = 6;
glyphname = f_f;
kernLeft = f;
kernRight = f;
layers = (
{
anchors = (
{
name = caret_1;
pos = (319,0);
}
);
layerId = UUID0;
shapes = (
{
closed = 1;
nodes = (
(529,572,l),
(544,643,o),
(579,682,o),
(649,682,c),
(694,682,l),
(707,682,o),
(718,691,o),
(721,704,c),
(724,718,l),
(727,731,o),
(720,740,o),
(707,740,c),
(649,740,l),
(545,740,o),
(488,666,o),
(469,577,c),
(457,520,l),
(236,520,l),
(247,572,l),
(262,643,o),
(297,682,o),
(367,682,c),
(412,682,l),
(425,682,o),
(436,691,o),
(439,704,c),
(442,718,l),
(445,731,o),
(438,740,o),
(425,740,c),
(367,740,l),
(263,740,o),
(206,666,o),
(187,577,c),
(175,520,l),
(86,520,l),
(73,520,o),
(62,511,o),
(59,498,c),
(56,484,l),
(54,471,o),
(61,462,o),
(74,462,c),
(163,462,l),
(69,22,l),
(66,9,o),
(74,0,o),
(87,0,c),
(104,0,l),
(117,0,o),
(127,9,o),
(130,22,c),
(224,462,l),
(445,462,l),
(351,22,l),
(348,9,o),
(356,0,o),
(369,0,c),
(386,0,l),
(399,0,o),
(409,9,o),
(412,22,c),
(506,462,l),
(638,462,l),
(651,462,o),
(662,471,o),
(664,484,c),
(667,498,l),
(670,511,o),
(663,520,o),
(650,520,c),
(518,520,l)
);
}
);
width = 638;
},
{
anchors = (
{
name = caret_1;
pos = (451.5,0);
}
);
color = 6;
layerId = "A0D8A2CD-35BA-4362-A7DB-C0E331BFD9A3";
shapes = (
{
closed = 1;
nodes = (
(803,532,l),
(807,553,o),
(823,565,o),
(853,565,c),
(934,565,l),
(949,565,o),
(963,577,o),
(966,592,c),
(992,713,l),
(995,728,o),
(986,740,o),
(971,740,c),
(858,740,l),
(713,740,o),
(610,701,o),
(575,537,c),
(571,520,l),
(388,520,l),
(391,532,l),
(395,553,o),
(411,565,o),
(441,565,c),
(522,565,l),
(537,565,o),
(551,577,o),
(554,592,c),
(580,713,l),
(583,728,o),
(574,740,o),
(559,740,c),
(446,740,l),
(301,740,o),
(198,701,o),
(163,537,c),
(159,520,l),
(90,520,l),
(75,520,o),
(60,508,o),
(57,493,c),
(32,372,l),
(28,357,o),
(38,345,o),
(53,345,c),
(122,345,l),
(54,27,l),
(51,12,o),
(61,0,o),
(76,0,c),
(251,0,l),
(266,0,o),
(280,12,o),
(283,27,c),
(351,345,l),
(534,345,l),
(466,27,l),
(463,12,o),
(473,0,o),
(488,0,c),
(663,0,l),
(678,0,o),
(692,12,o),
(695,27,c),
(763,345,l),
(877,345,l),
(892,345,o),
(906,357,o),
(910,372,c),
(935,493,l),
(938,508,o),
(929,520,o),
(914,520,c),
(800,520,l)
);
}
);
width = 903;
}
);
userData = {
com.typemytype.robofont.guides = (
{
angle = 0;
isGlobal = 0;
magnetic = 5;
x = 0;
y = 345;
},
{
angle = 0;
isGlobal = 0;
magnetic = 5;
x = 0;
y = 9;
},
{
angle = 0;
isGlobal = 0;
magnetic = 5;
x = 0;
y = 740;
},
{
angle = 90;
isGlobal = 0;
magnetic = 5;
x = 297;
y = 0;
},
{
angle = 90;
isGlobal = 0;
magnetic = 5;
x = 371;
y = 0;
}
);
};
},
{
color = 6;
glyphname = f_f_i;
kernLeft = f;
kernRight = i;
layers = (
{
anchors = (
{
name = caret_1;
pos = (258.333,0);
},
{
name = caret_2;
pos = (516.667,0);
}
);
layerId = UUID0;
shapes = (
{
closed = 1;
nodes = (
(104,0,l),
(117,0,o),
(127,9,o),
(130,22,c),
(224,462,l),
(445,462,l),
(351,22,l),
(348,9,o),
(356,0,o),
(369,0,c),
(386,0,l),
(399,0,o),
(409,9,o),
(412,22,c),
(506,462,l),
(667,462,l),
(574,22,l),
(571,9,o),
(579,0,o),
(592,0,c),
(609,0,l),
(622,0,o),
(632,9,o),
(635,22,c),
(736,498,l),
(739,511,o),
(732,520,o),
(719,520,c),
(518,520,l),
(529,572,l),
(544,643,o),
(579,682,o),
(649,682,c),
(753,682,l),
(766,682,o),
(777,691,o),
(780,704,c),
(783,718,l),
(786,731,o),
(779,740,o),
(766,740,c),
(649,740,l),
(545,740,o),
(488,666,o),
(469,577,c),
(457,520,l),
(236,520,l),
(247,572,l),
(262,643,o),
(297,682,o),
(367,682,c),
(412,682,l),
(425,682,o),
(436,691,o),
(439,704,c),
(442,718,l),
(445,731,o),
(438,740,o),
(425,740,c),
(367,740,l),
(263,740,o),
(206,666,o),
(187,577,c),
(175,520,l),
(86,520,l),
(73,520,o),
(62,511,o),
(59,498,c),
(56,484,l),
(54,471,o),
(61,462,o),
(74,462,c),
(163,462,l),
(69,22,l),
(66,9,o),
(74,0,o),
(87,0,c)
);
}
);
width = 775;
},
{
anchors = (
{
name = caret_1;
pos = (399,0);
},
{
name = caret_2;
pos = (798,0);
}
);
color = 6;
layerId = "A0D8A2CD-35BA-4362-A7DB-C0E331BFD9A3";
shapes = (
{
closed = 1;
nodes = (
(251,0,l),
(266,0,o),
(280,12,o),
(283,27,c),
(351,345,l),
(534,345,l),
(466,27,l),
(463,12,o),
(473,0,o),
(488,0,c),
(663,0,l),
(678,0,o),
(692,12,o),
(695,27,c),
(763,345,l),
(933,345,l),
(866,27,l),
(863,12,o),
(873,0,o),
(888,0,c),
(1063,0,l),
(1078,0,o),
(1092,12,o),
(1095,27,c),
(1194,493,l),
(1197,508,o),
(1188,520,o),
(1173,520,c),
(800,520,l),
(803,532,l),
(807,553,o),
(823,565,o),
(853,565,c),
(1183,565,l),
(1198,565,o),
(1212,577,o),
(1215,592,c),
(1241,713,l),
(1244,728,o),
(1235,740,o),
(1220,740,c),
(858,740,l),
(713,740,o),
(610,701,o),
(575,537,c),
(571,520,l),
(388,520,l),
(391,532,l),
(395,553,o),
(411,565,o),
(441,565,c),
(522,565,l),
(537,565,o),
(551,577,o),
(554,592,c),
(580,713,l),
(583,728,o),
(574,740,o),
(559,740,c),
(446,740,l),
(301,740,o),
(198,701,o),
(163,537,c),
(159,520,l),
(90,520,l),
(75,520,o),
(60,508,o),
(57,493,c),
(32,372,l),
(28,357,o),
(38,345,o),
(53,345,c),
(122,345,l),
(54,27,l),
(51,12,o),
(61,0,o),
(76,0,c)
);
}
);
width = 1197;
}
);
userData = {
com.typemytype.robofont.guides = (
{
angle = 90;
isGlobal = 0;
magnetic = 5;
x = 712;
y = 0;
}
);
};
},
{
color = 6;
glyphname = f_f_l;
kernLeft = f;
kernRight = l;
layers = (
{
anchors = (
{
name = caret_1;
pos = (278.333,0);
},
{
name = caret_2;
pos = (556.667,0);
}
);
layerId = UUID0;
shapes = (
{
closed = 1;
nodes = (
(104,0,l),
(117,0,o),
(127,9,o),
(130,22,c),
(224,462,l),
(445,462,l),
(351,22,l),
(348,9,o),
(356,0,o),
(369,0,c),
(386,0,l),
(399,0,o),
(409,9,o),
(412,22,c),
(506,462,l),
(726,462,l),
(633,22,l),
(630,9,o),
(638,0,o),
(651,0,c),
(668,0,l),
(681,0,o),
(691,9,o),
(694,22,c),
(842,718,l),
(845,731,o),
(837,740,o),
(824,740,c),
(807,740,l),
(794,740,o),
(784,731,o),
(781,718,c),
(739,520,l),
(518,520,l),
(529,572,l),
(544,643,o),
(579,682,o),
(649,682,c),
(694,682,l),
(707,682,o),
(718,691,o),
(721,704,c),
(724,718,l),
(727,731,o),
(720,740,o),
(707,740,c),
(649,740,l),
(545,740,o),
(488,666,o),
(469,577,c),
(457,520,l),
(236,520,l),
(247,572,l),
(262,643,o),
(297,682,o),
(367,682,c),
(412,682,l),
(425,682,o),
(436,691,o),
(439,704,c),
(442,718,l),
(445,731,o),
(438,740,o),
(425,740,c),
(367,740,l),
(263,740,o),
(206,666,o),
(187,577,c),
(175,520,l),
(86,520,l),
(73,520,o),
(62,511,o),
(59,498,c),
(56,484,l),
(54,471,o),
(61,462,o),
(74,462,c),
(163,462,l),
(69,22,l),
(66,9,o),
(74,0,o),
(87,0,c)
);
}
);
width = 835;
},
{
anchors = (
{
name = caret_1;
pos = (403.333,0);
},
{
name = caret_2;
pos = (806.667,0);
}
);
color = 6;
layerId = "A0D8A2CD-35BA-4362-A7DB-C0E331BFD9A3";
shapes = (
{
closed = 1;
nodes = (
(251,0,l),
(266,0,o),
(280,12,o),
(283,27,c),
(351,345,l),
(534,345,l),
(466,27,l),
(463,12,o),
(473,0,o),
(488,0,c),
(663,0,l),
(678,0,o),
(692,12,o),
(695,27,c),
(763,345,l),
(945,345,l),
(878,27,l),
(875,12,o),
(885,0,o),
(900,0,c),
(1075,0,l),
(1090,0,o),
(1104,12,o),
(1107,27,c),
(1253,713,l),
(1256,728,o),
(1246,740,o),
(1231,740,c),
(1056,740,l),
(1041,740,o),
(1027,728,o),
(1024,713,c),
(983,520,l),
(800,520,l),
(803,532,l),
(807,553,o),
(823,565,o),
(853,565,c),
(914,565,l),
(929,565,o),
(943,577,o),
(946,592,c),
(972,713,l),
(975,728,o),
(966,740,o),
(951,740,c),
(858,740,l),
(713,740,o),
(610,701,o),
(575,537,c),
(571,520,l),
(388,520,l),
(391,532,l),
(395,553,o),
(411,565,o),
(441,565,c),
(522,565,l),
(537,565,o),
(551,577,o),
(554,592,c),
(580,713,l),
(583,728,o),
(574,740,o),
(559,740,c),
(446,740,l),
(301,740,o),
(198,701,o),
(163,537,c),
(159,520,l),
(90,520,l),
(75,520,o),
(60,508,o),
(57,493,c),
(32,372,l),
(28,357,o),
(38,345,o),
(53,345,c),
(122,345,l),
(54,27,l),
(51,12,o),
(61,0,o),
(76,0,c)
);
}
);
width = 1210;
}
);
},
{
color = 6;
glyphname = fi;
kernLeft = f;
kernRight = i;
layers = (
{
anchors = (
{
name = caret_1;
pos = (246.5,0);
}
);
layerId = UUID0;
shapes = (
{
closed = 1;
nodes = (
(104,0,l),
(117,0,o),
(127,9,o),
(130,22,c),
(224,462,l),
(385,462,l),
(292,22,l),
(289,9,o),
(297,0,o),
(310,0,c),
(327,0,l),
(340,0,o),
(350,9,o),
(353,22,c),
(454,498,l),
(457,511,o),
(450,520,o),
(437,520,c),
(236,520,l),
(247,572,l),
(262,643,o),
(297,682,o),
(367,682,c),
(471,682,l),
(484,682,o),
(495,691,o),
(498,704,c),
(501,718,l),
(504,731,o),
(497,740,o),
(484,740,c),
(367,740,l),
(263,740,o),
(206,666,o),
(187,577,c),
(175,520,l),
(86,520,l),
(73,520,o),
(62,511,o),
(59,498,c),
(56,484,l),
(54,471,o),
(61,462,o),
(74,462,c),
(163,462,l),
(69,22,l),
(66,9,o),
(74,0,o),
(87,0,c)
);
}
);
width = 493;
},
{
anchors = (
{
name = caret_1;
pos = (392.5,0);
}
);
color = 6;
layerId = "A0D8A2CD-35BA-4362-A7DB-C0E331BFD9A3";
shapes = (
{
closed = 1;
nodes = (
(251,0,ls),
(266,0,o),
(280,12,o),
(283,27,cs),
(351,345,l),
(521,345,l),
(454,27,ls),
(451,12,o),
(461,0,o),
(476,0,cs),
(651,0,ls),
(666,0,o),
(680,12,o),
(683,27,cs),
(782,493,ls),
(785,508,o),
(776,520,o),
(761,520,cs),
(388,520,l),
(391,532,ls),
(395,553,o),
(411,565,o),
(441,565,cs),
(771,565,ls),
(786,565,o),
(800,577,o),
(803,592,cs),
(829,713,ls),
(832,728,o),
(823,740,o),
(808,740,cs),
(446,740,ls),
(301,740,o),
(198,701,o),
(163,537,cs),
(159,520,l),
(90,520,ls),
(75,520,o),
(60,508,o),
(57,493,cs),
(32,372,l),
(28,357,o),
(38,345,o),
(53,345,cs),
(122,345,l),
(54,27,ls),
(51,12,o),
(61,0,o),
(76,0,cs)
);
}
);
width = 785;
}
);
unicode = 64257;
userData = {
com.typemytype.robofont.guides = (
{
angle = 90;
isGlobal = 0;
magnetic = 5;
x = 430;
y = 0;
},
{
angle = 90;
isGlobal = 0;
magnetic = 5;
x = 35;
y = 0;
}
);
};
},
{
color = 6;
glyphname = fl;
kernLeft = f;
kernRight = l;
layers = (
{
anchors = (
{
name = caret_1;
pos = (276.5,0);
}
);
layerId = UUID0;
shapes = (
{
closed = 1;
nodes = (
(104,0,l),
(117,0,o),
(127,9,o),
(130,22,c),
(224,462,l),
(444,462,l),
(351,22,l),
(348,9,o),
(356,0,o),
(369,0,c),
(386,0,l),
(399,0,o),
(409,9,o),
(412,22,c),
(560,718,l),
(563,731,o),
(555,740,o),
(542,740,c),
(525,740,l),
(512,740,o),
(502,731,o),
(499,718,c),
(457,520,l),
(236,520,l),
(247,572,l),
(262,643,o),
(297,682,o),
(367,682,c),
(412,682,l),
(425,682,o),
(436,691,o),
(439,704,c),
(442,718,l),
(445,731,o),
(438,740,o),
(425,740,c),
(367,740,l),
(263,740,o),
(206,666,o),
(187,577,c),
(175,520,l),
(86,520,l),
(73,520,o),
(62,511,o),
(59,498,c),
(56,484,l),
(54,471,o),
(61,462,o),
(74,462,c),
(163,462,l),
(69,22,l),
(66,9,o),
(74,0,o),
(87,0,c)
);
}
);
width = 553;
},
{
anchors = (
{
name = caret_1;
pos = (399,0);
}
);
color = 6;
layerId = "A0D8A2CD-35BA-4362-A7DB-C0E331BFD9A3";
shapes = (
{
closed = 1;
nodes = (
(251,0,ls),
(266,0,o),
(280,12,o),
(283,27,cs),
(351,345,l),
(533,345,l),
(466,27,ls),
(463,12,o),
(473,0,o),
(488,0,cs),
(663,0,ls),
(678,0,o),
(692,12,o),
(695,27,cs),
(841,713,ls),
(844,728,o),
(834,740,o),
(819,740,cs),
(644,740,ls),
(629,740,o),
(615,728,o),
(612,713,cs),
(571,520,l),
(388,520,l),
(391,532,ls),
(395,553,o),
(411,565,o),
(441,565,cs),
(502,565,ls),
(517,565,o),
(531,577,o),
(534,592,cs),
(560,713,ls),
(563,728,o),
(554,740,o),
(539,740,cs),
(446,740,ls),
(301,740,o),
(198,701,o),
(163,537,cs),
(159,520,l),
(91,520,ls),
(76,520,o),
(61,508,o),
(58,493,cs),
(33,372,l),
(29,357,o),
(39,345,o),
(54,345,cs),
(122,345,l),
(54,27,ls),
(51,12,o),
(61,0,o),
(76,0,cs)
);
}
);
width = 798;
}
);
unicode = 64258;
userData = {
com.typemytype.robofont.guides = (
{
angle = 90;
isGlobal = 0;
magnetic = 5;
x = 35;
y = 0;
}
);
};
},
{
color = 6;
glyphname = ordfeminine;
layers = (
{
layerId = UUID0;
shapes = (
{
closed = 1;
nodes = (
(223,429,o),
(251,444,o),
(266,463,c),
(264,456,ls),
(262,443,o),
(269,434,o),
(282,434,c),
(299,434,ls),
(312,434,o),
(323,443,o),
(325,456,cs),
(356,598,ls),
(369,660,o),
(339,705,o),
(263,705,cs),
(188,705,o),
(150,664,o),
(145,644,cs),
(143,631,o),
(151,627,o),
(164,627,cs),
(181,627,ls),
(203,627,o),
(209,647,o),
(263,647,cs),
(311,647,o),
(299,617,o),
(297,611,c),
(235,602,ls),
(157,591,o),
(105,556,o),
(99,505,cs),
(94,463,o),
(129,429,o),
(187,429,cs)
);
},
{
closed = 1;
nodes = (
(165,483,o),
(159,494,o),
(161,507,cs),
(164,527,o),
(185,545,o),
(235,552,cs),
(286,559,l),
(278,519,o),
(241,483,o),
(187,483,cs)
);
}
);
width = 364;
},
{
color = 6;
layerId = "A0D8A2CD-35BA-4362-A7DB-C0E331BFD9A3";
shapes = (
{
closed = 1;
nodes = (
(180,429,o),
(209,441,o),
(228,462,c),
(225,448,ls),
(223,441,o),
(229,434,o),
(237,434,cs),
(326,434,ls),
(334,434,o),
(341,441,o),
(343,448,cs),
(374,594,ls),
(390,670,o),
(333,705,o),
(250,705,cs),
(144,705,o),
(118,655,o),
(110,629,cs),
(108,622,o),
(112,617,o),
(118,617,cs),
(205,617,ls),
(222,617,o),
(226,633,o),
(243,633,cs),
(258,633,o),
(258,626,o),
(254,607,c),
(198,598,ls),
(126,586,o),
(77,560,o),
(66,510,cs),
(56,464,o),
(90,429,o),
(149,429,cs)
);
},
{
closed = 1;
nodes = (
(188,505,o),
(181,510,o),
(183,518,cs),
(184,525,o),
(192,532,o),
(211,537,cs),
(240,544,l),
(234,516,o),
(220,505,o),
(200,505,cs)
);
}
);
width = 349;
}
);
unicode = 170;
},
{
color = 6;
glyphname = ordmasculine;
layers = (
{
layerId = UUID0;
shapes = (
{
closed = 1;
nodes = (
(277,429,o),
(328,465,o),
(349,545,cs),
(352,555,o),
(358,579,o),
(359,589,cs),
(372,669,o),
(324,705,o),
(261,705,cs),
(198,705,o),
(140,669,o),
(119,589,cs),
(116,579,o),
(110,555,o),
(109,545,cs),
(96,465,o),
(139,429,o),
(208,429,cs)
);
},
{
closed = 1;
nodes = (
(174,487,o),
(164,507,o),
(170,545,cs),
(171,555,o),
(177,579,o),
(180,589,cs),
(189,624,o),
(217,647,o),
(254,647,cs),
(294,647,o),
(303,624,o),
(298,589,cs),
(297,579,o),
(291,555,o),
(288,545,cs),
(278,507,o),
(251,487,o),
(214,487,cs)
);
}
);
width = 358;
},
{
color = 6;
layerId = "A0D8A2CD-35BA-4362-A7DB-C0E331BFD9A3";
shapes = (
{
closed = 1;
nodes = (
(320,429,o),
(354,470,o),
(373,540,cs),
(376,550,o),
(384,584,o),
(385,594,cs),
(396,664,o),
(332,705,o),
(249,705,cs),
(146,705,o),
(106,664,o),
(87,594,cs),
(84,584,o),
(76,550,o),
(75,540,cs),
(64,470,o),
(122,429,o),
(211,429,cs)
);
},
{
closed = 1;
nodes = (
(201,511,o),
(199,517,o),
(202,545,cs),
(203,555,o),
(209,579,o),
(212,589,cs),
(219,614,o),
(225,623,o),
(242,623,cs),
(259,623,o),
(261,614,o),
(258,589,c),
(257,579,o),
(251,555,o),
(248,545,cs),
(240,517,o),
(235,511,o),
(218,511,cs)
);
}
);
width = 348;
}
);
unicode = 186;
userData = {
com.typemytype.robofont.guides = (
{
angle = 0;
isGlobal = 0;
magnetic = 5;
x = 0;
y = 589;
},
{
angle = 0;
isGlobal = 0;
magnetic = 5;
x = 0;
y = 545;
},
{
angle = 0;
isGlobal = 0;
magnetic = 5;
x = 0;
y = 429;
},
{
angle = 0;
isGlobal = 0;
magnetic = 5;
x = 0;
y = 705;
},
{
angle = 90;
isGlobal = 0;
magnetic = 5;
x = 134;
y = 0;
}
);
};
},
{
color = 6;
glyphname = "Be-cy";
kernLeft = afii10026;
layers = (
{
layerId = UUID0;
shapes = (
{
closed = 1;
nodes = (
(306,0,ls),
(452,0,o),
(540,115,o),
(559,204,cs),
(583,314,o),
(534,398,o),
(390,398,cs),
(167,398,l),
(219,640,l),
(594,640,ls),
(608,640,o),
(619,649,o),
(621,662,cs),
(625,677,ls),
(627,691,o),
(620,700,o),
(606,700,cs),
(190,700,ls),
(177,700,o),
(166,691,o),
(164,677,cs),
(24,22,ls),
(22,9,o),
(29,0,o),
(42,0,cs)
);
},
{
closed = 1;
nodes = (
(156,343,l),
(369,343,ls),
(476,343,o),
(514,288,o),
(497,207,cs),
(480,127,o),
(407,60,o),
(308,60,cs),
(95,60,l)
);
}
);
width = 632;
},
{
color = 6;
layerId = "A0D8A2CD-35BA-4362-A7DB-C0E331BFD9A3";
shapes = (
{
closed = 1;
nodes = (
(321,0,ls),
(501,0,o),
(625,85,o),
(655,226,cs),
(684,365,o),
(591,447,o),
(416,447,cs),
(326,447,l),
(336,495,l),
(631,495,ls),
(646,495,o),
(660,507,o),
(664,522,cs),
(696,673,ls),
(699,688,o),
(689,700,o),
(674,700,cs),
(156,700,ls),
(141,700,o),
(127,688,o),
(124,673,cs),
(-14,27,ls),
(-17,12,o),
(-7,0,o),
(8,0,cs)
);
},
{
closed = 1;
nodes = (
(290,280,l),
(360,280,ls),
(388,280,o),
(400,253,o),
(395,226,cs),
(389,199,o),
(368,172,o),
(337,172,cs),
(267,172,l)
);
}
);
width = 672;
}
);
unicode = 1041;
userData = {
com.typemytype.robofont.guides = (
{
angle = 0;
isGlobal = 0;
magnetic = 5;
x = 0;
y = 280;
},
{
angle = 0;
isGlobal = 0;
magnetic = 5;
x = 0;
y = 447;
},
{
angle = 90;
isGlobal = 0;
magnetic = 5;
x = 516;
y = 0;
}
);
};
},
{
color = 6;
glyphname = "Ge-cy";
kernLeft = afii10026;
kernRight = afii10020;
layers = (
{
anchors = (
{
name = bottomright;
pos = (50,0);
},
{
name = top;
pos = (370,700);
}
);
layerId = UUID0;
shapes = (
{
closed = 1;
nodes = (
(60,0,ls),
(74,0,o),
(84,9,o),
(87,22,cs),
(219,640,l),
(544,640,ls),
(558,640,o),
(568,649,o),
(571,662,cs),
(575,677,ls),
(579,691,o),
(570,700,o),
(556,700,cs),
(190,700,ls),
(177,700,o),
(167,691,o),
(164,677,cs),
(24,22,ls),
(21,9,o),
(29,0,o),
(42,0,cs)
);
}
);
width = 505;
},
{
anchors = (
{
name = bottomright;
pos = (97,0);
},
{
name = top;
pos = (407,700);
}
);
color = 6;
layerId = "A0D8A2CD-35BA-4362-A7DB-C0E331BFD9A3";
shapes = (
{
closed = 1;
nodes = (
(204,0,ls),
(219,0,o),
(233,12,o),
(236,27,cs),
(336,495,l),
(583,495,ls),
(598,495,o),
(613,507,o),
(616,522,cs),
(648,673,ls),
(651,688,o),
(641,700,o),
(626,700,cs),
(156,700,ls),
(141,700,o),
(127,688,o),
(124,673,cs),
(-14,27,ls),
(-17,12,o),
(-7,0,o),
(8,0,cs)
);
}
);
width = 599;
}
);
unicode = 1043;
userData = {
com.typemytype.robofont.guides = (
{
angle = 90;
isGlobal = 0;
magnetic = 5;
x = 516;
y = 0;
}
);
};
},
{
color = 6;
glyphname = "Gheupturn-cy";
layers = (
{
layerId = UUID0;
shapes = (
{
closed = 1;
nodes = (
(579,840,ls),
(566,840,o),
(555,831,o),
(553,818,cs),
(528,700,l),
(202,700,ls),
(189,700,o),
(178,691,o),
(175,677,cs),
(35,22,ls),
(33,9,o),
(40,0,o),
(53,0,cs),
(71,0,ls),
(85,0,o),
(96,9,o),
(98,22,cs),
(230,640,l),
(555,640,ls),
(569,640,o),
(580,649,o),
(582,662,cs),
(616,818,ls),
(618,831,o),
(611,840,o),
(597,840,cs)
);
}
);
width = 516;
},
{
color = 6;
layerId = "A0D8A2CD-35BA-4362-A7DB-C0E331BFD9A3";
shapes = (
{
closed = 1;
nodes = (
(471,840,ls),
(456,840,o),
(442,828,o),
(439,813,cs),
(415,700,l),
(168,700,ls),
(153,700,o),
(138,688,o),
(135,673,cs),
(-3,27,ls),
(-6,12,o),
(4,0,o),
(19,0,cs),
(215,0,ls),
(230,0,o),
(244,12,o),
(247,27,cs),
(347,495,l),
(594,495,ls),
(609,495,o),
(623,507,o),
(627,522,cs),
(689,813,ls),
(692,828,o),
(682,840,o),
(667,840,cs)
);
}
);
width = 610;
}
);
metricLeft = "En-cy";
metricRight = "Ge-cy";
unicode = 1168;
},
{
color = 3;
glyphname = "Ghestroke-cy";
layers = (
{
layerId = UUID0;
shapes = (
{
closed = 1;
nodes = (
(306,321,ls),
(319,321,o),
(330,330,o),
(333,343,cs),
(335,357,ls),
(338,370,o),
(331,379,o),
(318,379,cs),
(43,379,ls),
(30,379,o),
(19,370,o),
(16,357,cs),
(14,343,ls),
(11,330,o),
(18,321,o),
(31,321,cs)
);
},
{
ref = "Ge-cy";
}
);
width = 505;
},
{
color = 3;
layerId = "A0D8A2CD-35BA-4362-A7DB-C0E331BFD9A3";
shapes = (
{
closed = 1;
nodes = (
(404,269,ls),
(419,269,o),
(433,281,o),
(437,296,cs),
(451,364,ls),
(454,379,o),
(445,391,o),
(430,391,cs),
(55,391,ls),
(40,391,o),
(25,379,o),
(22,364,cs),
(8,296,ls),
(4,281,o),
(14,269,o),
(29,269,cs)
);
},
{
pos = (36,0);
ref = "Ge-cy";
}
);
width = 635;
}
);
unicode = 1170;
},
{
color = 6;
glyphname = "Ghemiddlehook-cy";
layers = (
{
layerId = UUID0;
shapes = (
{
closed = 1;
nodes = (
(72,0,ls),
(86,0,o),
(96,9,o),
(99,22,cs),
(231,640,l),
(556,640,ls),
(570,640,o),
(581,649,o),
(583,662,cs),
(586,677,ls),
(589,691,o),
(582,700,o),
(568,700,cs),
(202,700,ls),
(189,700,o),
(178,691,o),
(175,677,cs),
(36,22,ls),
(33,9,o),
(41,0,o),
(54,0,cs)
);
},
{
closed = 1;
nodes = (
(148,252,l),
(173,371,o),
(284,393,o),
(356,393,cs),
(464,393,o),
(501,346,o),
(480,246,cs),
(458,143,ls),
(439,55,o),
(388,-15,o),
(248,-15,cs),
(244,-15,ls),
(231,-15,o),
(220,-24,o),
(218,-37,cs),
(214,-53,ls),
(212,-66,o),
(219,-75,o),
(232,-75,cs),
(236,-75,ls),
(409,-75,o),
(495,21,o),
(521,143,cs),
(542,241,ls),
(570,371,o),
(505,453,o),
(377,453,cs),
(287,453,o),
(216,427,o),
(169,376,c)
);
}
);
width = 606;
},
{
color = 6;
layerId = "A0D8A2CD-35BA-4362-A7DB-C0E331BFD9A3";
shapes = (
{
closed = 1;
nodes = (
(215,0,ls),
(230,0,o),
(245,12,o),
(248,27,cs),
(347,495,l),
(594,495,ls),
(609,495,o),
(624,507,o),
(627,522,cs),
(659,673,ls),
(662,688,o),
(653,700,o),
(638,700,cs),
(168,700,ls),
(153,700,o),
(138,688,o),
(135,673,cs),
(-2,27,ls),
(-5,12,o),
(4,0,o),
(19,0,cs)
);
},
{
closed = 1;
nodes = (
(274,149,l),
(280,179,o),
(302,189,o),
(348,189,cs),
(395,189,o),
(412,172,o),
(403,132,cs),
(403,129,ls),
(397,105,o),
(380,90,o),
(337,90,cs),
(327,90,ls),
(312,90,o),
(298,78,o),
(295,63,cs),
(268,-63,ls),
(265,-78,o),
(274,-90,o),
(289,-90,cs),
(299,-90,ls),
(488,-90,o),
(619,-27,o),
(652,128,cs),
(658,153,ls),
(693,317,o),
(631,397,o),
(457,397,cs),
(400,397,o),
(345,382,o),
(308,362,c)
);
}
);
width = 726;
}
);
metricLeft = "En-cy";
metricRight = "Dje-cy";
unicode = 1172;
},
{
color = 6;
glyphname = "De-cy";
layers = (
{
layerId = UUID0;
shapes = (
{
closed = 1;
nodes = (
(-29,-139,ls),
(-15,-139,o),
(-4,-130,o),
(-1,-117,cs),
(23,0,l),
(518,0,l),
(494,-117,ls),
(491,-130,o),
(498,-139,o),
(511,-139,cs),
(529,-139,ls),
(543,-139,o),
(554,-130,o),
(557,-117,cs),
(589,38,ls),
(592,51,o),
(585,60,o),
(571,60,cs),
(521,60,l),
(652,677,ls),
(655,691,o),
(648,700,o),
(634,700,cs),
(278,700,ls),
(265,700,o),
(254,691,o),
(251,678,cs),
(205,457,ls),
(143,168,o),
(80,60,o),
(18,60,cs),
(-5,60,ls),
(-18,60,o),
(-29,51,o),
(-32,38,cs),
(-64,-117,ls),
(-67,-130,o),
(-60,-139,o),
(-47,-139,cs)
);
},
{
closed = 1;
nodes = (
(171,119,o),
(221,238,o),
(266,449,cs),
(306,640,l),
(581,640,l),
(458,60,l),
(110,60,l)
);
}
);
width = 682;
},
{
color = 6;
layerId = "A0D8A2CD-35BA-4362-A7DB-C0E331BFD9A3";
shapes = (
{
closed = 1;
nodes = (
(169,-140,ls),
(184,-140,o),
(198,-128,o),
(201,-113,cs),
(225,0,l),
(505,0,l),
(481,-113,ls),
(478,-128,o),
(488,-140,o),
(503,-140,cs),
(699,-140,ls),
(714,-140,o),
(728,-128,o),
(731,-113,cs),
(797,193,ls),
(800,208,o),
(790,220,o),
(775,220,cs),
(730,220,l),
(827,673,ls),
(830,688,o),
(820,700,o),
(805,700,cs),
(267,700,ls),
(252,700,o),
(238,688,o),
(235,673,cs),
(194,481,ls),
(169,363,o),
(130,220,o),
(64,220,cs),
(49,220,ls),
(34,220,o),
(20,208,o),
(17,193,cs),
(-49,-113,ls),
(-52,-129,o),
(-42,-140,o),
(-27,-140,cs)
);
},
{
closed = 1;
nodes = (
(380,274,o),
(406,350,o),
(427,449,cs),
(434,480,l),
(536,480,l),
(480,220,l),
(349,220,l)
);
}
);
width = 845;
}
);
metricRight = "Tse-cy";
unicode = 1044;
userData = {
com.typemytype.robofont.guides = (
{
angle = 0;
isGlobal = 0;
magnetic = 5;
x = 0;
y = "-110";
}
);
};
},
{
color = 6;
glyphname = "Zhe-cy";
layers = (
{
anchors = (
{
name = bottomright;
pos = (851,0);
},
{
name = top;
pos = (592,700);
}
);
layerId = UUID0;
shapes = (
{
closed = 1;
nodes = (
(975,700,ls),
(959,700,o),
(948,695,o),
(939,685,c),
(689,385,l),
(555,385,l),
(618,678,l),
(620,691,o),
(613,700,o),
(600,700,cs),
(581,700,ls),
(568,700,o),
(557,691,o),
(555,678,c),
(492,385,l),
(362,385,l),
(235,685,ls),
(231,695,o),
(221,700,o),
(205,700,cs),
(194,700,ls),
(179,700,o),
(172,691,o),
(170,680,c),
(169,676,o),
(170,672,o),
(172,667,cs),
(302,360,l),
(18,35,l),
(15,32,o),
(15,28,o),
(14,24,cs),
(11,11,o),
(19,0,o),
(32,0,cs),
(57,0,ls),
(69,0,o),
(75,5,o),
(82,13,cs),
(356,325,l),
(480,325,l),
(415,22,l),
(413,9,o),
(420,0,o),
(433,0,cs),
(452,0,ls),
(465,0,o),
(476,9,o),
(478,21,c),
(543,325,l),
(689,325,l),
(840,13,ls),
(844,5,o),
(849,0,o),
(861,0,cs),
(873,0,ls),
(886,0,o),
(898,11,o),
(901,24,cs),
(902,28,o),
(902,32,o),
(901,35,c),
(745,360,l),
(1005,667,ls),
(1009,672,o),
(1012,676,o),
(1013,680,cs),
(1016,691,o),
(1012,700,o),
(997,700,cs)
);
}
);
width = 1015;
},
{
associatedMasterId = UUID0;
color = 6;
layerId = "74D3214D-D933-44DE-8CE3-90AEEB3E65C7";
name = "1";
shapes = (
{
closed = 1;
nodes = (
(845,15,ls),
(850,11,o),
(862,0,o),
(883,0,cs),
(900,0,ls),
(911,0,o),
(920,9,o),
(920,20,cs),
(920,24,o),
(919,29,o),
(914,34,cs),
(554,365,l),
(893,667,ls),
(897,671,o),
(898,676,o),
(898,680,cs),
(898,691,o),
(889,700,o),
(878,700,cs),
(862,700,ls),
(841,700,o),
(829,689,o),
(824,685,cs),
(462,365,l)
);
},
{
closed = 1;
nodes = (
(438,9,o),
(447,0,o),
(461,0,cs),
(479,0,ls),
(492,0,o),
(501,9,o),
(501,22,cs),
(501,677,ls),
(501,691,o),
(492,700,o),
(479,700,cs),
(461,700,ls),
(447,700,o),
(438,691,o),
(438,677,cs),
(438,22,ls)
);
},
{
closed = 1;
nodes = (
(115,685,ls),
(110,689,o),
(98,700,o),
(77,700,cs),
(61,700,ls),
(50,700,o),
(41,691,o),
(41,680,cs),
(41,676,o),
(42,671,o),
(46,667,cs),
(385,365,l),
(25,34,ls),
(20,29,o),
(19,24,o),
(19,20,cs),
(19,9,o),
(28,0,o),
(39,0,cs),
(56,0,ls),
(77,0,o),
(89,11,o),
(94,15,cs),
(477,365,l)
);
}
);
width = 939;
},
{
associatedMasterId = UUID0;
background = {
shapes = (
{
closed = 1;
nodes = (
(78,691,o),
(69,700,o),
(48,700,cs),
(32,700,ls),
(21,700,o),
(14,691,o),
(14,680,cs),
(14,676,o),
(16,672,o),
(19,667,c),
(221,346,l),
(295,345,l),
(82,685,ls)
);
},
{
closed = 1;
nodes = (
(25,17,o),
(36,0,o),
(53,0,cs),
(73,0,ls),
(81,0,o),
(89,5,o),
(92,13,cs),
(163,201,ls),
(196,288,o),
(235,325,o),
(297,325,cs),
(399,325,l),
(399,385,l),
(297,384,ls),
(206,383,o),
(145,334,o),
(103,223,cs),
(32,35,ls)
);
}
);
};
color = 6;
layerId = "120D3225-B10F-40EF-8059-E57268FB1EA0";
name = "Aug 29 16, 12:34";
shapes = (
{
closed = 1;
nodes = (
(808,0,ls),
(825,0,o),
(836,17,o),
(829,35,cs),
(758,223,ls),
(716,334,o),
(655,383,o),
(564,384,cs),
(462,385,l),
(462,325,l),
(564,325,ls),
(626,325,o),
(665,288,o),
(698,201,cs),
(769,13,ls),
(772,5,o),
(780,0,o),
(788,0,cs)
);
},
{
closed = 1;
nodes = (
(73,0,ls),
(81,0,o),
(89,5,o),
(92,13,cs),
(163,201,ls),
(196,288,o),
(235,325,o),
(297,325,cs),
(399,325,l),
(399,385,l),
(297,384,ls),
(206,383,o),
(145,334,o),
(103,223,cs),
(32,35,ls),
(25,17,o),
(36,0,o),
(53,0,cs)
);
},
{
closed = 1;
nodes = (
(90,685,ls),
(86,691,o),
(79,700,o),
(58,700,cs),
(42,700,ls),
(31,700,o),
(24,691,o),
(24,680,cs),
(24,676,o),
(26,672,o),
(29,667,c),
(221,346,l),
(293,345,l)
);
},
{
closed = 1;
nodes = (
(440,0,ls),
(453,0,o),
(462,9,o),
(462,22,cs),
(462,677,ls),
(462,691,o),
(453,700,o),
(440,700,cs),
(422,700,ls),
(408,700,o),
(399,691,o),
(399,677,cs),
(399,22,ls),
(399,9,o),
(408,0,o),
(422,0,cs)
);
},
{
closed = 1;
nodes = (
(640,346,l),
(832,667,l),
(835,672,o),
(837,676,o),
(837,680,cs),
(837,691,o),
(830,700,o),
(819,700,cs),
(803,700,ls),
(782,700,o),
(773,691,o),
(769,685,cs),
(566,345,l)
);
}
);
width = 880;
},
{
anchors = (
{
name = bottomright;
pos = (899,0);
},
{
name = top;
pos = (680,700);
}
);
color = 6;
layerId = "A0D8A2CD-35BA-4362-A7DB-C0E331BFD9A3";
shapes = (
{
closed = 1;
nodes = (
(978,700,ls),
(956,700,o),
(942,689,o),
(934,678,cs),
(766,463,l),
(750,463,l),
(795,673,ls),
(798,688,o),
(788,700,o),
(773,700,cs),
(587,700,ls),
(572,700,o),
(558,688,o),
(555,673,cs),
(510,463,l),
(484,463,l),
(408,678,ls),
(404,689,o),
(394,700,o),
(372,700,cs),
(161,700,ls),
(149,700,o),
(137,690,o),
(135,678,c),
(134,674,o),
(134,670,o),
(135,667,c),
(251,365,l),
(-16,33,l),
(-19,30,o),
(-21,25,o),
(-22,22,c),
(-24,10,o),
(-16,0,o),
(-4,0,cs),
(234,0,ls),
(261,0,o),
(274,17,o),
(279,23,c),
(449,243,l),
(463,243,l),
(417,27,ls),
(414,11,o),
(424,0,o),
(439,0,cs),
(625,0,ls),
(640,0,o),
(654,11,o),
(657,27,cs),
(703,243,l),
(737,243,l),
(813,23,l),
(816,17,o),
(823,0,o),
(850,0,cs),
(1068,0,ls),
(1080,0,o),
(1092,10,o),
(1094,22,c),
(1095,25,o),
(1095,30,o),
(1094,33,c),
(967,365,l),
(1211,667,l),
(1214,670,o),
(1216,674,o),
(1217,678,c),
(1219,690,o),
(1211,700,o),
(1199,700,cs)
);
}
);
width = 1174;
}
);
metricLeft = "=|Ka-cy";
metricRight = "Ka-cy";
unicode = 1046;
},
{
color = 6;
glyphname = "Ze-cy";
layers = (
{
anchors = (
{
name = bottom;
pos = (237,0);
},
{
name = top;
pos = (364,700);
}
);
layerId = UUID0;
shapes = (
{
closed = 1;
nodes = (
(372,-10,o),
(479,73,o),
(505,193,cs),
(521,271,o),
(499,334,o),
(437,368,c),
(502,403,o),
(537,463,o),
(551,527,cs),
(570,618,o),
(510,710,o),
(355,710,cs),
(213,710,o),
(122,647,o),
(90,540,cs),
(87,528,o),
(95,520,o),
(107,520,cs),
(127,520,ls),
(138,520,o),
(147,525,o),
(154,541,cs),
(186,619,o),
(261,650,o),
(352,650,cs),
(439,650,o),
(504,603,o),
(488,527,cs),
(468,436,o),
(395,396,o),
(302,396,cs),
(236,396,ls),
(223,396,o),
(212,387,o),
(209,373,cs),
(206,358,ls),
(203,345,o),
(210,336,o),
(223,336,cs),
(294,336,ls),
(402,336,o),
(461,283,o),
(442,193,cs),
(422,103,o),
(321,50,o),
(220,50,cs),
(119,50,o),
(66,94,o),
(63,157,cs),
(62,177,o),
(52,180,o),
(41,180,cs),
(25,180,ls),
(13,180,o),
(1,173,o),
(0,161,cs),
(-12,61,o),
(72,-10,o),
(217,-10,cs)
);
}
);
width = 591;
},
{
anchors = (
{
name = bottom;
pos = (307,0);
},
{
name = top;
pos = (445,700);
}
);
color = 6;
layerId = "A0D8A2CD-35BA-4362-A7DB-C0E331BFD9A3";
shapes = (
{
closed = 1;
nodes = (
(495,-10,o),
(639,77,o),
(667,209,cs),
(678,260,o),
(674,330,o),
(604,368,c),
(676,403,o),
(701,460,o),
(710,501,cs),
(735,618,o),
(628,710,o),
(447,710,cs),
(206,710,o),
(111,589,o),
(82,501,cs),
(79,489,o),
(87,479,o),
(99,479,cs),
(297,479,ls),
(315,479,o),
(322,484,o),
(333,495,cs),
(339,502,o),
(359,515,o),
(399,515,cs),
(445,515,o),
(453,496,o),
(448,474,cs),
(443,448,o),
(419,438,o),
(386,438,cs),
(311,438,ls),
(296,438,o),
(281,424,o),
(278,409,cs),
(252,289,ls),
(249,274,o),
(258,260,o),
(273,260,cs),
(348,260,ls),
(395,260,o),
(416,249,o),
(410,221,cs),
(404,196,o),
(382,183,o),
(329,183,cs),
(293,183,o),
(276,190,o),
(266,203,cs),
(259,212,o),
(253,219,o),
(235,219,cs),
(39,219,ls),
(27,219,o),
(14,209,o),
(12,197,cs),
(4,108,o),
(52,-10,o),
(293,-10,cs)
);
}
);
width = 713;
}
);
metricRight = "Ve-cy";
unicode = 1047;
userData = {
com.typemytype.robofont.guides = (
{
angle = 0;
isGlobal = 0;
magnetic = 5;
x = 0;
y = "-10";
},
{
angle = 0;
isGlobal = 0;
magnetic = 5;
x = 0;
y = 180;
},
{
angle = 90;
isGlobal = 0;
magnetic = 5;
x = 61;
y = 0;
},
{
angle = 90;
isGlobal = 0;
magnetic = 5;
x = 309;
y = 0;
}
);
};
},
{
color = 6;
glyphname = "Ii-cy";
kernLeft = afii10026;
kernRight = afii10026;
layers = (
{
anchors = (
{
name = bottomright;
pos = (652,0);
},
{
name = top;
pos = (443,700);
}
);
layerId = UUID0;
shapes = (
{
closed = 1;
nodes = (
(76,0,ls),
(89,0,o),
(97,9,o),
(99,12,cs),
(632,588,l),
(511,22,ls),
(508,9,o),
(516,0,o),
(530,0,cs),
(548,0,ls),
(561,0,o),
(571,9,o),
(574,22,cs),
(714,677,ls),
(717,691,o),
(709,700,o),
(696,700,cs),
(675,700,ls),
(662,700,o),
(654,691,o),
(652,688,cs),
(118,110,l),
(239,677,ls),
(242,691,o),
(234,700,o),
(221,700,cs),
(203,700,ls),
(189,700,o),
(179,691,o),
(176,677,cs),
(36,23,ls),
(33,9,o),
(41,0,o),
(54,0,cs)
);
}
);
width = 727;
},
{
anchors = (
{
name = bottomright;
pos = (734,0);
},
{
name = top;
pos = (501,700);
}
);
color = 6;
layerId = "A0D8A2CD-35BA-4362-A7DB-C0E331BFD9A3";
shapes = (
{
closed = 1;
nodes = (
(192,0,ls),
(215,0,o),
(227,11,o),
(237,23,c),
(508,313,l),
(447,27,ls),
(444,12,o),
(454,0,o),
(469,0,cs),
(665,0,ls),
(680,0,o),
(694,12,o),
(697,27,cs),
(835,673,ls),
(838,688,o),
(828,700,o),
(813,700,cs),
(640,700,ls),
(621,700,o),
(607,692,o),
(595,677,c),
(319,364,l),
(385,673,ls),
(388,688,o),
(378,700,o),
(363,700,cs),
(167,700,ls),
(152,700,o),
(138,688,o),
(135,673,cs),
(-3,27,ls),
(-6,12,o),
(4,0,o),
(19,0,cs)
);
}
);
width = 809;
}
);
metricLeft = "En-cy";
metricRight = "En-cy";
unicode = 1048;
},
